<?xml version="1.0" standalone="no"?>
<!DOCTYPE svg PUBLIC "-//W3C//DTD SVG 1.1//EN" "http://www.w3.org/Graphics/SVG/1.1/DTD/svg11.dtd" >
<svg xmlns="http://www.w3.org/2000/svg" xmlns:xlink="http://www.w3.org/1999/xlink" version="1.1">
<metadata></metadata>
<defs>
<font id="frutiger_bqregular" horiz-adv-x="1236" >
<font-face units-per-em="2048" ascent="1638" descent="-410" />
<missing-glyph horiz-adv-x="555" />
<glyph horiz-adv-x="0" />
<glyph horiz-adv-x="682" />
<glyph unicode=" "  horiz-adv-x="555" />
<glyph unicode="&#x09;" horiz-adv-x="555" />
<glyph unicode="&#xa0;" horiz-adv-x="555" />
<glyph unicode="!" horiz-adv-x="598" d="M156 1438h376l-49 -955h-276zM172 2v324h342v-324h-342z" />
<glyph unicode="&#x22;" horiz-adv-x="811" d="M51 1348q-12 47 0 88q11 46 56 72t94 26q47 0 84.5 -24.5t48.5 -69.5q5 -20 2 -68l-109 -536h-65zM477 1348q-7 58 0 86q9 39 47.5 69.5t104.5 30.5q46 0 84 -24.5t49 -71.5q4 -17 0 -66l-109 -536h-63z" />
<glyph unicode="#" horiz-adv-x="1193" d="M0 381v254h229l27 194h-205v254h240l51 361h254l-49 -361h203l49 361h256l-49 -361h188v-254h-223l-27 -194h201v-254h-238l-53 -381h-258l55 381h-202l-56 -381h-252l52 381h-193zM483 635h203l27 194h-201z" />
<glyph unicode="$" d="M57 1051q0 128 74 229q25 34 54 60t66 45t65.5 31.5t76.5 23.5t74 16t82 14v170h113v-167q137 -7 202.5 -17.5t202.5 -44.5l-27 -274q-85 40 -151 55.5t-217 26.5v-314q76 -19 123 -33q114 -32 189 -76t128 -128q66 -109 66 -224q0 -51 -19 -114q-8 -29 -22 -58.5 t-38.5 -68.5t-65.5 -77t-93 -67q-64 -35 -124.5 -49.5t-151.5 -25.5v-179h-115v175q-143 6 -220 16.5t-216 44.5l30 295q95 -40 169.5 -55.5t234.5 -22.5v338q-112 28 -168 47.5t-105 46.5q-102 57 -159.5 150.5t-57.5 210.5zM399 1073q0 -34 23 -72q16 -24 41 -40 t42.5 -21.5t53.5 -15.5v293q-37 -6 -56 -11.5t-44 -21.5t-41 -43q-19 -38 -19 -68zM662 256q58 11 93 27.5t60 56.5q21 42 21 76q0 33 -19 67q-25 45 -60 65t-95 36v-328z" />
<glyph unicode="%" horiz-adv-x="1878" d="M51 981q-2 111 12 192t62 150q90 137 274 137q216 0 299 -172q29 -60 41 -149q9 -81 9 -138q0 -67 -12.5 -152.5t-33.5 -135.5q-9 -24 -23 -47t-40 -49.5t-57.5 -46.5t-78 -33t-100.5 -13q-159 0 -245 86q-41 41 -60 92q-43 97 -47 279zM281 981q0 -90 14 -162 q10 -73 47 -108q29 -25 57 -25q15 0 47 16q46 36 56 113q4 19 9 85.5t5 123.5q0 125 -33 205q-24 69 -86 69q-30 0 -52 -20.5t-38 -71.5q-26 -77 -26 -225zM561 0l502 1430h237l-507 -1430h-232zM1112 457q0 46 2 71q0 24 3 52t12.5 78.5t35.5 100.5t64 85q37 37 96 59 q73 25 143 25q151 0 244 -103q40 -48 57 -90q22 -56 31 -141q8 -63 8 -137q0 -193 -41 -289q-31 -62 -65 -96q-88 -88 -240 -88q-106 0 -166 34.5t-102 90.5q-40 54 -59 124q-23 84 -23 224zM1343 477q0 -105 19 -205q4 -31 12 -49q25 -78 88 -78q48 0 78 54q41 69 41 252 q0 94 -6 145q-12 89 -51 135q-33 33 -62 35q-55 -5 -82 -59q-13 -29 -24.5 -93t-12.5 -137z" />
<glyph unicode="&#x26;" horiz-adv-x="1536" d="M33 422q0 177 149 301q29 23 129 84l-55 49q-127 127 -127 281q0 90 43 157q51 81 166.5 137t288.5 56q147 0 247 -37q113 -40 177.5 -121.5t64.5 -198.5q0 -173 -155 -292q-41 -30 -144 -82l254 -244q51 83 67.5 130t30.5 144h318q-2 -78 -10 -120q-10 -68 -42.5 -146.5 t-72.5 -136.5q-32 -43 -90 -98l256 -285h-402l-88 98q-97 -60 -147 -80q-117 -47 -285 -47q-177 0 -298 55.5t-183 131.5q-33 37 -62.5 106.5t-29.5 157.5zM383 434q0 -51 27 -100q21 -38 53.5 -64t66.5 -36t56 -13.5t41 -3.5q38 0 79.5 12.5t67 25.5t72.5 40l-330 328 q-43 -30 -63 -48q-70 -65 -70 -141zM469 1112q0 -38 27.5 -81t51 -65t64.5 -57q40 24 62 39t52.5 42.5t45 59t14.5 68.5q0 30 -10 53q-17 38 -56.5 59t-86.5 21q-33 0 -60 -8q-55 -19 -79.5 -59t-24.5 -72z" />
<glyph unicode="'" horiz-adv-x="425" d="M68 1399.5q0 18.5 4 32.5q7 36 46.5 69t104.5 33q47 0 82 -23q27 -18 39.5 -41t12.5 -46t-1 -52l-108 -536h-66l-110 512l-2 16q-2 17 -2 35.5z" />
<glyph unicode="(" horiz-adv-x="724" d="M104 629q0 121 17 239q22 142 62.5 247t123.5 259l131 195h303l-125 -228q-45 -94 -79 -188q-88 -243 -88 -530q0 -99 14 -222q12 -87 35 -170t44 -138.5t66 -160.5l129 -229h-301l-160 246q-45 95 -73 160q-99 230 -99 520z" />
<glyph unicode=")" horiz-adv-x="724" d="M-23 -307q62 102 91 155q16 29 44 88.5t31 65.5q61 160 83 248q42 170 42 373q0 111 -10 213q-17 140 -50 240.5t-102 256.5l-126 223h299q84 -115 122 -178q39 -61 69 -120.5t66.5 -153.5t57 -214.5t20.5 -254.5q0 -104 -13.5 -203t-31.5 -175t-50.5 -155t-57.5 -129 t-66 -112.5t-61.5 -91t-57.5 -76.5h-299z" />
<glyph unicode="*" horiz-adv-x="937" d="M37 1032l76 238l276 -131l-45 301h244l-35 -293l270 129l74 -234l-291 -63l207 -211l-203 -145l-141 258l-145 -263l-201 148l211 215z" />
<glyph unicode="+" horiz-adv-x="1024" d="M68 467v262h313v315h260v-315h315v-262h-315v-320h-260v320h-313z" />
<glyph unicode="," horiz-adv-x="512" d="M-6 -231l137 559h350l-205 -559h-282z" />
<glyph unicode="-" horiz-adv-x="724" d="M76 465v274h567v-274h-567z" />
<glyph unicode="." horiz-adv-x="512" d="M80 2v330h350v-330h-350z" />
<glyph unicode="/" horiz-adv-x="854" d="M4 6l528 1450h312l-535 -1450h-305z" />
<glyph unicode="0" d="M57 707q0 380 117 561q39 57 92 98q137 109 348 109q222 0 353 -113q102 -84 154.5 -233.5t52.5 -399.5q0 -271 -72 -450q-28 -81 -74 -138q-70 -88 -183 -129t-237 -41q-63 0 -110 6q-213 32 -322 197q-68 105 -92.5 237.5t-26.5 295.5zM428 707q-2 -82 12.5 -202 t40.5 -177q23 -53 62.5 -78t70.5 -25q30 0 66 25q78 54 102 211q19 143 19 305q0 221 -47 334q-47 114 -138 114q-68 0 -106 -56t-53 -136q-10 -50 -19.5 -153.5t-9.5 -161.5z" />
<glyph unicode="1" d="M86 1116l492 322h335v-1436h-362v1065l-293 -207z" />
<glyph unicode="2" d="M72 -2v270q172 144 284 248q26 25 79 77.5t79 78.5q34 38 49 57q8 7 27.5 30t46 60.5t46 87t19.5 94.5q0 38 -18 80q-16 35 -45 59t-62.5 32.5t-52.5 11t-37 2.5q-110 0 -243 -49q-20 -7 -123 -54l-25 303l256 64q2 0 32.5 5t55 8.5t63.5 6.5t72 3q134 0 232 -37 q131 -47 204.5 -151t73.5 -243q0 -58 -14 -114t-32 -98t-54 -95.5t-61 -85.5t-72 -88l-184 -194l-107 -97l559 6v-278h-1048z" />
<glyph unicode="3" d="M68 27l12 297q123 -48 207 -63q76 -13 159 -13q74 0 127 14q71 16 116.5 59t45.5 109q0 76 -53 119t-129 53q-47 6 -242 6v260h48.5h45.5h39t37.5 1t31.5 2t31 3t26.5 4.5t27 6t22.5 8t23 10.5q80 44 80 129q0 55 -39 96q-66 72 -217 72q-68 0 -138 -12t-196 -45l-22 272 q71 19 105.5 28t126.5 21.5t185 12.5q388 0 514 -197q58 -90 58 -203q0 -56 -15 -104t-40 -81t-46 -52.5t-43 -34.5q-19 -13 -46.5 -26t-50.5 -22l-23 -9q92 -29 133 -56q23 -14 45 -34.5t47 -53t40 -81.5t15 -105q0 -152 -98 -264q-72 -79 -210.5 -132t-338.5 -53 q-92 0 -173.5 11t-227.5 47z" />
<glyph unicode="4" d="M37 270v256l538 914h424v-910h158v-260h-160v-270h-346v270h-614zM305 526h357l10 617z" />
<glyph unicode="5" d="M119 27v303l21 -8q20 -9 26.5 -11.5t29 -11t36 -12t37.5 -10.5t44 -10t45 -7.5t50.5 -6t52.5 -1.5q104 0 163.5 24t94.5 70q43 57 43 121q0 51 -24.5 95t-65.5 71q-81 51 -252 51q-80 0 -287 -27v783h950v-266h-606v-232q15 1 46 2t46 2q156 2 274.5 -32t200.5 -132 q101 -128 101 -297q0 -114 -47.5 -217.5t-132.5 -171.5q-164 -125 -453 -125q-95 1 -177 11.5t-114.5 18t-101.5 26.5z" />
<glyph unicode="6" d="M63 670q0 221 45.5 361t124.5 237q77 93 164 135q137 72 336 72q63 0 125.5 -9t104.5 -19t122 -32l-26 -278q-74 26 -104.5 36t-91 22.5t-113.5 12.5q-156 -2 -242 -102q-47 -54 -68 -119q-20 -67 -24 -196q2 2 11.5 13t22 24t25.5 24q90 80 236 80q88 0 172.5 -29.5 t142.5 -85.5q52 -50 96.5 -141t44.5 -211q-2 -108 -49 -223q-18 -39 -43 -74.5t-66.5 -73.5t-92 -65t-124.5 -44.5t-159 -17.5q-186 0 -311 80q-64 40 -123 119q-136 183 -136 504zM438 475q-6 -49 2 -92q14 -69 64.5 -118.5t116.5 -49.5q85 0 135.5 67t50.5 156 q0 87 -51 155.5t-133 68.5q-36 0 -78 -19q-36 -16 -67.5 -56.5t-39.5 -111.5z" />
<glyph unicode="7" d="M61 1161v277h1053v-297q-65 -159 -113 -264q-61 -139 -196 -431q-75 -161 -199 -444h-413l532 1159h-664z" />
<glyph unicode="8" d="M55 391q0 29 5.5 60.5t20.5 75t50.5 86.5t87.5 75q49 32 125 57q-90 45 -131 80q-36 30 -61 70t-35.5 79.5t-14.5 66t-4 49.5q0 134 101 241q150 146 442 146q205 0 340 -99q48 -36 82 -75q74 -89 74 -203q0 -24 -5 -53.5t-18 -70.5t-43 -83.5t-72 -75.5 q-40 -33 -110 -65q66 -18 108 -41q83 -51 134 -141.5t51 -188.5q0 -120 -76 -223q-144 -191 -479 -191q-167 1 -286 49.5t-181 114.5q-105 111 -105 260zM410 412q0 -33 16 -68q16 -39 44 -66t58.5 -38.5t52.5 -16t40 -4.5q82 2 140 56.5t58 138.5q0 58 -37 104 q-23 28 -57.5 50t-59.5 32.5t-71 26.5q-65 -28 -107 -62q-75 -67 -77 -153zM436 1063q0 -45 27 -88q18 -31 47 -54.5t52 -34.5t67 -28q62 23 90 45q27 16 54.5 57t27.5 99q0 41 -15 74q-14 31 -38 52t-51.5 29.5t-46 11.5t-34.5 3q-58 -3 -90 -21q-27 -13 -46.5 -33 t-28 -41.5t-12 -38.5t-3.5 -32z" />
<glyph unicode="9" d="M61 983q0 170 97 297q26 34 60 64.5t86.5 62.5t126.5 51t159 19q63 0 155 -19q28 -6 50 -12.5t58 -22.5t66 -36.5t65.5 -56.5t64.5 -81q116 -175 116 -463q0 -391 -161 -600q-36 -48 -97 -96q-161 -121 -411 -121q-31 0 -63 2t-57 5t-54.5 8.5t-48 9.5t-44.5 11t-36.5 10 t-32.5 10t-25 8l29 286q171 -77 317 -77q160 0 242 104q53 63 70 133q15 58 20 172q-42 -50 -63 -67q-36 -27 -98 -50.5t-140 -23.5q-34 0 -73 5t-104 29.5t-116 65.5t-85.5 98t-48.5 113.5t-19 93.5t-5 68zM430 1036q-13 -89 31 -164q7 -13 17 -26t28 -29.5t44.5 -26.5 t57.5 -10q85 0 137 65.5t52 155.5q0 30 -13 78q-21 64 -67.5 104t-108.5 40q-27 -1 -52.5 -9t-53.5 -27t-47 -57.5t-25 -93.5z" />
<glyph unicode=":" horiz-adv-x="598" d="M162 4v328h350v-328h-350zM162 754v329h350v-329h-350z" />
<glyph unicode=";" horiz-adv-x="598" d="M63 -231l142 561h356l-213 -561h-285zM188 752v333h351v-333h-351z" />
<glyph unicode="&#x3c;" horiz-adv-x="1024" d="M2 592v254l1022 461v-285l-672 -303l672 -295v-283z" />
<glyph unicode="=" horiz-adv-x="1024" d="M0 252v260h1024v-260h-1024zM0 678v260h1024v-260h-1024z" />
<glyph unicode="&#x3e;" horiz-adv-x="1024" d="M0 141v283l674 295l-674 303v285l1024 -461v-254z" />
<glyph unicode="?" horiz-adv-x="1067" d="M96 1436q79 20 118.5 28t124.5 16.5t193 8.5q118 0 193 -16q134 -30 224.5 -118.5t90.5 -221.5q0 -90 -53 -187q-7 -13 -16.5 -27t-21 -30t-17.5 -25l-139 -166q-55 -63 -72 -99t-29 -118h-299q0 72 10 121q12 57 44 105.5t83 105.5q1 1 16.5 19t18.5 21.5t17.5 21 t19 23.5t16 22.5t15.5 25.5t12 24.5t11 27t5.5 26t2.5 27.5q0 72 -60.5 120t-183.5 48q-28 0 -55.5 -2t-49 -5t-46 -8.5t-40 -9t-37 -10.5t-31 -10.5l-28.5 -10.5t-22 -8zM367 2v322h342v-322h-342z" />
<glyph unicode="@" horiz-adv-x="1835" d="M141 487q0 220 93.5 424t275.5 349q13 11 37 28q70 52 170 96q161 74 362 74q232 0 391 -117q61 -41 113 -112q111 -157 111 -365q0 -52 -6 -111.5t-38 -169t-87 -198.5q-47 -80 -113 -141q-22 -21 -51 -41.5t-84.5 -44t-106.5 -23.5q-19 0 -41 2.5t-62 22t-61 53.5 q-13 21 -24 63q-32 -39 -57 -61q-90 -78 -203 -78q-88 0 -150 45q-131 86 -131 305q0 183 90 344q2 3 10 16t15 23t19 27t26 33q86 98 190 129q63 14 99 14q104 0 170 -69q14 -14 41 -56l20 82h184l-67 -325q-43 -210 -53 -291q-4 -32 -4 -49q0 -27 12 -41.5t26 -14.5 q54 0 123 94q54 74 98 191t44 264q0 174 -90 287q-49 61 -144 106t-227 45q-119 0 -239.5 -46t-219.5 -130q-38 -33 -73.5 -71.5t-77.5 -100t-72.5 -128t-51 -156t-20.5 -183.5q0 -31 3.5 -65t17 -98.5t50.5 -130.5t93 -117q75 -67 190.5 -114.5t268.5 -47.5q278 0 524 178 q52 38 143 121l95 -127q-110 -98 -162 -135q-274 -199 -596 -199q-167 0 -301.5 49.5t-218.5 110.5q-137 102 -199 235q-74 141 -74 346zM690 489q0 -86 40 -128t91 -42q47 0 94 36.5t78 86.5q80 128 78 275q0 90 -53 139q-39 33 -84 33q-43 0 -90 -30.5t-86 -102.5 q-68 -126 -68 -267z" />
<glyph unicode="A" horiz-adv-x="1579" d="M4 2l545 1438h473l545 -1440h-412l-108 295h-547l-111 -293h-385zM588 561h368l-178 578z" />
<glyph unicode="B" horiz-adv-x="1366" d="M121 -2v1444h561q90 0 133 -2q29 -1 51 -3t70.5 -11t85 -23t82 -42.5t75 -65.5t50 -95.5t20.5 -130.5q0 -154 -94 -242q-8 -8 -16 -15t-18.5 -13.5t-16 -11t-18.5 -11t-16.5 -9t-19 -9t-17.5 -7.5t-20.5 -8.5t-19.5 -7.5q2 0 15 -3.5t27.5 -7.5t32.5 -9.5t36.5 -13.5 t32.5 -17q76 -43 116.5 -121.5t40.5 -173.5q0 -32 -5.5 -64t-21.5 -77t-54 -88.5t-93 -75.5q-61 -36 -142 -56t-134 -23.5t-150 -6.5h-573zM502 266h213q47 3 76 13q64 22 90 69t26 88q0 80 -80 133q-23 15 -53 22t-50.5 8t-59.5 1h-162v-334zM502 858h137q6 0 19.5 1 t19.5 1q106 9 158 68q34 43 34 90q0 45 -22 76q-19 31 -51 49t-57.5 23t-73.5 10h-164v-318z" />
<glyph unicode="C" horiz-adv-x="1409" d="M76 729q0 273 133 453q50 72 135 135q119 88 256 124t303 36q117 0 200.5 -16.5t227.5 -59.5l-31 -305q-84 34 -122.5 48.5t-104.5 29t-129 14.5q-84 0 -164 -27q-78 -25 -136 -69.5t-88.5 -90.5t-49 -102t-23 -94t-4.5 -76q0 -182 105 -303q140 -162 383 -162 q28 0 55.5 2t53.5 6t46.5 7.5t44 10.5t38 11.5t36 13t30 12t28 12t22.5 9.5l20 -321q-74 -24 -112.5 -34t-116.5 -19t-184 -9q-109 0 -191 12q-309 40 -493 261q-168 200 -168 491z" />
<glyph unicode="D" horiz-adv-x="1579" d="M123 -2v1438h438q254 -4 375 -23q37 -6 62.5 -11.5t77 -23t93 -40t92 -64t91.5 -94.5q139 -184 139 -465q0 -39 -2.5 -77t-16.5 -107.5t-38.5 -130t-74 -129.5t-116.5 -121q-63 -49 -135.5 -80t-161 -45.5t-151.5 -19t-168 -7.5h-504zM510 283h152q2 0 16 1t21 2t24.5 3 t29 4.5t30 7t33.5 9.5t34 12.5t35.5 16.5t35 20.5t35.5 25.5q138 119 138 328q0 28 -3.5 58.5t-14 81.5t-37.5 101.5t-68 87.5q-44 44 -115 72q-69 26 -178 35h-168v-866z" />
<glyph unicode="E" d="M121 0v1436h1016v-277h-631v-285h592v-278h-592v-320h653v-276h-1038z" />
<glyph unicode="F" horiz-adv-x="1150" d="M125 2v1438h973v-273l-586 -6v-307h563v-276h-563v-576h-387z" />
<glyph unicode="G" horiz-adv-x="1579" d="M78 713q0 346 207 544q227 220 698 220q202 0 358 -37q18 -5 51.5 -16.5t41.5 -14.5l-35 -303q-115 50 -192 71t-181 21q-332 -2 -473 -221q-74 -111 -74 -250q0 -84 31 -172q27 -76 72.5 -132.5t91.5 -86t101 -47.5t92 -22.5t73 -4.5q60 0 158 27v276h-224v273h592v-791 q-63 -18 -85.5 -24t-77 -15.5t-134.5 -19.5l-223 -13q-147 6 -220 14.5t-144 28.5q-254 70 -389 271q-115 177 -115 424z" />
<glyph unicode="H" horiz-adv-x="1492" d="M125 0v1436h391v-535h455v537h391v-1440h-391v610h-457v-608h-389z" />
<glyph unicode="I" horiz-adv-x="641" d="M123 2v1434h393v-1434h-393z" />
<glyph unicode="J" horiz-adv-x="894" d="M12 23v309q81 -23 138 -23q112 0 174 76q24 24 38 72q13 42 15 116v871h397v-977q-9 -124 -31 -198.5t-88 -145.5q-137 -141 -389 -141q-47 0 -72 1.5t-72.5 11t-109.5 28.5z" />
<glyph unicode="K" horiz-adv-x="1409" d="M123 2v1436h389v-588q113 166 195 276q171 234 231 314h459l-516 -666q304 -421 395 -541q51 -67 176 -229h-483l-459 655v-657h-387z" />
<glyph unicode="L" horiz-adv-x="1150" d="M125 0v1436h391v-1143h582v-293h-973z" />
<glyph unicode="M" horiz-adv-x="2091" d="M123 0v1440h594q98 -299 145 -430q105 -295 111 -314q26 -84 65 -239q54 187 72 241q12 36 37.5 106.5t38.5 106.5q19 52 52 157t52 157q2 7 76 213h590v-1440h-377l10 1161q-31 -116 -61 -203q-13 -38 -40.5 -113.5t-41.5 -113.5q-17 -49 -47.5 -146.5t-46.5 -142.5 q-33 -98 -90 -256q-36 -113 -64 -190h-344l-379 1126q1 -27 4 -75.5t5 -88t3 -75.5v-166q0 -120 5 -715h-369z" />
<glyph unicode="N" horiz-adv-x="1622" d="M121 2v1434l473 -2q122 -221 254 -451q19 -35 55 -96.5t64.5 -113t52.5 -97.5q26 -48 119 -244q-17 413 -17 449q-2 138 -2 276.5t2 278.5h361v-1436h-482q-118 217 -213 385q-151 261 -208 379q-26 52 -117 248q13 -338 16 -609v-401h-358z" />
<glyph unicode="O" horiz-adv-x="1622" d="M76 733q0 286 137 473q85 112 211 180q177 91 379 91q106 -1 200 -22t162.5 -56t115 -70t81.5 -74q69 -76 122.5 -212.5t53.5 -319.5q0 -33 -2 -66t-11 -95t-25 -117t-48 -121t-76 -119q-98 -119 -250 -181.5t-315 -62.5q-42 0 -89 5t-121 21t-152 55t-142 97 q-117 105 -175 264q-56 154 -56 319v11zM481 750q0 -189 51 -306q41 -91 113 -143.5t166 -52.5q157 0 254 151q72 115 72 308q0 215 -76 335q-28 42 -64 78q-93 74 -192 74q-66 0 -129 -33q-174 -92 -195 -411z" />
<glyph unicode="P" horiz-adv-x="1280" d="M123 4v1434h575q33 0 103 -4q265 -25 370 -197q68 -118 68 -264q0 -167 -78 -279q-35 -52 -90 -92q-58 -42 -121 -61q-122 -43 -317 -43q-2 0 -119 6v-500h-391zM506 1167l2 -387q50 -2 95 -4h13q38 0 80 10q48 12 86 39q70 52 70 148q0 112 -100 164q-50 27 -119 32 q-29 2 -56 2q-37 0 -71 -4z" />
<glyph unicode="Q" horiz-adv-x="1622" d="M70 727q0 116 23 216.5t62.5 172t77 119.5t80.5 84q63 53 141 88.5t152 49t118 18t83 4.5q108 0 201.5 -21t160.5 -57t112.5 -71.5t80.5 -76.5q31 -36 59 -82.5t55.5 -112.5t43.5 -155t16 -188q0 -335 -176 -529q-25 -28 -56.5 -54t-52 -40t-65.5 -43l342 -325h-441 l-229 243l-18 -1q-17 0 -36.5 -0.5t-45 0t-43.5 1.5q-105 6 -210 47.5t-188 110.5q-124 105 -185.5 265t-61.5 337zM477 731v-10q0 -196 74 -315q98 -156 260 -156q157 0 248 143q71 114 71 318q0 36 -4 102q-17 197 -125 303q-85 82 -198 82q-76 0 -137 -37 q-185 -101 -189 -430z" />
<glyph unicode="R" horiz-adv-x="1366" d="M123 0v1436h694l98 -6q225 -28 310 -183q47 -91 47 -194q0 -135 -72 -224q-36 -46 -81 -72.5t-118 -54.5q20 -5 56 -30q8 -6 16 -14t14 -15t13.5 -18t12 -17.5t11.5 -20t9.5 -18.5t10 -21t9 -19.5t8.5 -21t8 -18.5l177 -491h-406l-109 344q-22 59 -42 95.5t-42.5 61.5 t-56.5 37q-34 10 -74 14q-31 3 -77 3h-27v-553h-389zM502 829q27 0 78.5 -1t76.5 -1q188 0 219 122q5 22 5 46t-6 47t-22 48.5t-50 44t-82 24.5q-22 4 -219 8v-338z" />
<glyph unicode="S" horiz-adv-x="1193" d="M53 1032q0 185 142 307q154 136 454 136q74 0 149.5 -9t121.5 -18t145 -31l-27 -291q-3 1 -28 10t-44 15.5t-53 16.5t-64 16.5t-68.5 11t-73.5 4.5q-120 0 -179 -31q-30 -15 -50.5 -45.5t-20.5 -62.5q0 -36 24 -64q18 -25 47 -43t50.5 -25.5t60.5 -17.5q247 -72 350 -155 q22 -19 43 -45t46 -67t40 -98t15 -120q0 -217 -179 -346q-163 -113 -446 -113q-44 0 -86 2.5t-83 8.5t-69.5 10.5t-67.5 14t-53.5 13t-51.5 14.5t-38 11l35 307q125 -48 206.5 -69t180.5 -21q55 0 97 6q49 7 86 27q65 45 65 115q0 38 -20 71q-22 33 -55.5 51t-112.5 43 q-166 50 -233 82q-63 30 -109 66q-22 19 -43 42.5t-46.5 62.5t-41 93.5t-15.5 114.5z" />
<glyph unicode="T" horiz-adv-x="1150" d="M0 1147v289h1102v-287h-352v-1147h-390v1145h-360z" />
<glyph unicode="U" horiz-adv-x="1492" d="M121 481v959h387v-895q2 -67 11.5 -113.5t39.5 -91.5q63 -92 184 -92t185 88q29 40 40.5 86.5t14.5 140.5v879h387v-926q-7 -86 -18 -142t-39 -114q-38 -78 -102 -137t-142.5 -92.5t-161 -49.5t-168.5 -16q-94 0 -178 19q-282 62 -385 270q-18 36 -29.5 77.5t-15 65.5 t-10.5 84z" />
<glyph unicode="V" horiz-adv-x="1449" d="M2 1436l412 -2q23 -74 66.5 -221t66.5 -220q52 -160 82 -272q28 -96 108 -404q63 275 101 406q21 79 64 221t56 186q15 53 43 156t41 150h398l-471 -1438h-484z" />
<glyph unicode="W" horiz-adv-x="2048" d="M6 1440h395l187 -1098q21 173 55 397q4 24 59 324q33 165 72 377h496q57 -250 108 -514q46 -235 103 -594q21 189 41 319q10 64 32.5 191t32.5 190q45 263 66 406h379l-303 -1438h-500q-72 332 -127 623q-52 293 -90 526q-52 -395 -82 -561q-42 -252 -109 -586h-491z" />
<glyph unicode="X" horiz-adv-x="1449" d="M14 0l467 750l-424 682h435l249 -439l248 441h416l-424 -703l446 -733h-434l-274 494l-277 -492h-428z" />
<glyph unicode="Y" horiz-adv-x="1449" d="M2 1438h451l66 -129t67 -129q73 -143 88 -174q19 -38 59 -148q19 51 32 84t28 65t24 50t33.5 64t42.5 81q21 39 119 236h424l-521 -908v-530h-391v526z" />
<glyph unicode="Z" d="M70 0v328l665 829h-653v281h1112v-301l-690 -852h704v-285h-1138z" />
<glyph unicode="[" horiz-adv-x="724" d="M166 -303v1866h557v-209h-246v-1450h246v-207h-557z" />
<glyph unicode="\" horiz-adv-x="724" d="M4 1446h262l467 -1483h-262z" />
<glyph unicode="]" horiz-adv-x="724" d="M-6 -94h250v1448h-244v207h553v-1866h-559v211z" />
<glyph unicode="^" horiz-adv-x="1492" d="M233 637l416 809h213l398 -809h-283l-225 473l-238 -473h-281z" />
<glyph unicode="_" horiz-adv-x="1024" d="M-20 -231h1064v-261h-1064v261z" />
<glyph unicode="`" horiz-adv-x="555" d="M-395 1456h411l222 -295h-246z" />
<glyph unicode="a" d="M47 332q0 67 27 125t54.5 85.5t55.5 45.5q46 31 119 51t123 26t129 11h223q0 47 -10 78q-27 62 -96 91t-146 29q-65 0 -137.5 -17.5t-191.5 -63.5v245q92 24 140 35.5t124 23t145 11.5q131 0 227 -33t154 -78q76 -58 105 -133q5 -11 9 -23t7.5 -25t6 -23t4 -25.5t3 -24 t2.5 -26.5t1.5 -24t1.5 -26.5t1 -25.5v-641h-323v166q-61 -76 -84 -96q-107 -99 -289 -99q-85 0 -158 29q-100 39 -163.5 130t-63.5 202zM403 334q0 -63 45 -100t107 -37q103 0 170 88q33 42 43 84t12 112q-135 6 -139 6q-127 0 -190 -53q-48 -42 -48 -100z" />
<glyph unicode="b" horiz-adv-x="1366" d="M111 0v1554h368v-632q29 43 70 82q50 44 117.5 69.5t107.5 31t74 5.5q73 0 137 -21t108 -55t70.5 -62t46.5 -57q90 -139 90 -354q0 -324 -196 -487q-121 -101 -283 -101q-49 0 -93.5 9.5t-75.5 21t-63 35.5t-48.5 38t-39.5 44.5t-28.5 39t-23.5 36.5v-197h-338zM485 573 q-1 -20 -1 -39q0 -108 48 -184q35 -42 48 -53q64 -45 131 -45q80 0 137 59q80 82 80 238q0 47 -15 115q-7 22 -17.5 43t-33 53t-61 51.5t-86.5 19.5q-52 0 -99 -22q-117 -58 -131 -236z" />
<glyph unicode="c" horiz-adv-x="1024" d="M47 545q0 218 113 362q81 101 216 155t275 54q80 -1 150 -16t174 -47l-23 -269q-47 20 -71.5 29t-62 17t-75.5 8q-53 0 -108 -19q-23 -7 -45.5 -18t-51 -33.5t-49.5 -50.5t-36 -72t-15 -96q0 -71 25 -129q19 -45 53 -79t67 -51t72.5 -27t62.5 -12.5t44 -2.5q29 0 58.5 4 t55.5 11.5t44 13t38 13.5t23 9v-274q-54 -17 -82 -25t-96 -17.5t-146 -9.5q-301 0 -467 174q-143 153 -143 398z" />
<glyph unicode="d" horiz-adv-x="1366" d="M59 549q0 123 37 227q49 144 165.5 237t264.5 93q32 0 68.5 -5t96.5 -28.5t106 -62.5q16 -13 30.5 -28.5t23 -26.5t18 -25t12.5 -17v641h368v-1556h-342v180q-1 -1 -9 -13t-20 -29t-20 -27q-126 -138 -315 -138q-29 0 -64 5.5t-85 20.5t-103.5 49t-95.5 83 q-54 65 -95 170t-41 250zM434 557v-22q0 -168 103 -248q47 -41 114 -41q57 0 103 26q123 73 123 269q0 83 -25 145q-26 62 -81.5 101t-121.5 40q-67 0 -117 -39q-90 -69 -98 -231z" />
<glyph unicode="e" d="M51 557q0 223 125 371q154 186 451 186q93 0 167.5 -18t125.5 -51t83.5 -66t59.5 -74q60 -87 86 -194q23 -104 27 -281l-766 -2q25 -87 45 -115q27 -41 94.5 -71.5t165.5 -30.5q57 0 126 14.5t109.5 28t120.5 41.5l6 -254q-74 -26 -104 -35.5t-113 -23t-178 -13.5 q-386 0 -541 250q-90 143 -90 338zM406 645h434q-9 57 -13 72q-18 91 -92 135q-50 31 -108 31q-61 0 -109 -29q-24 -13 -42 -31t-28.5 -35t-19 -44.5t-12.5 -46t-10 -52.5z" />
<glyph unicode="f" horiz-adv-x="894" d="M4 825v254h217q-2 32 -2 70q0 19 1 39q1 61 11 106q35 138 138 207q48 32 122 50.5t112 21t69 2.5q80 0 188 -27l-16 -241q-70 14 -94 14q-45 0 -82 -21q-26 -15 -41.5 -38.5t-21.5 -58t-7.5 -57t-1.5 -61.5h266v-260h-264v-825h-375v825h-219z" />
<glyph unicode="g" horiz-adv-x="1366" d="M55 539q0 114 31.5 222t95.5 187q20 25 48 49t72 52t106 45.5t131 17.5q175 0 295 -108q25 -22 73 -86v167h344v-1052q-3 -107 -21 -168q-28 -98 -97 -174q-92 -103 -216.5 -140.5t-289.5 -37.5q-103 0 -190.5 11.5t-135 24.5t-108.5 35l16 279q84 -33 125 -47.5 t112 -30.5t132 -16q157 0 241 79q25 20 47 66q28 68 28 188q0 28 -1 58q-29 -43 -68 -80q-55 -51 -140 -80t-165 -29q-96 0 -176 39q-38 18 -74.5 45t-76.5 73t-69.5 102.5t-49 137t-19.5 171.5zM432 553v-16q0 -148 86 -230q59 -59 135 -59q37 0 84 19t86 69q60 77 60 194 q0 51 -6 88q-14 106 -89 168q-54 48 -126 48q-53 0 -103 -25q-120 -65 -127 -256z" />
<glyph unicode="h" horiz-adv-x="1366" d="M111 0v1556h370l2 -630q4 7 32.5 36t51.5 48q124 100 275 100q40 0 83 -7.5t110.5 -42.5t117.5 -95q30 -35 49 -72.5t28 -86t11.5 -79.5t5.5 -96v-631h-373v575q-3 51 -6.5 79t-21 63.5t-49.5 56.5q-41 29 -97 29q-41 0 -78 -20.5t-53.5 -39.5t-27.5 -36 q-32 -47 -40.5 -99t-8.5 -131v-477h-381z" />
<glyph unicode="i" horiz-adv-x="598" d="M106 1245v273h377v-273h-377zM111 2v1081h372v-1081h-372z" />
<glyph unicode="j" horiz-adv-x="598" d="M-106 -420l12 234q1 0 22.5 -3.5t36.5 -3.5q32 0 68 19q33 18 50.5 55.5t21 67t4.5 78.5v1056h374v-1116q-4 -101 -19 -162.5t-65 -121.5q-104 -125 -305 -125q-52 0 -117.5 8.5t-82.5 13.5zM111 1247v273h376v-273h-376z" />
<glyph unicode="k" d="M111 2v1552h370v-933l314 464h411l-375 -497l398 -588h-443l-303 520v-518h-372z" />
<glyph unicode="l" horiz-adv-x="598" d="M111 2v1550h370v-1550h-370z" />
<glyph unicode="m" horiz-adv-x="2091" d="M109 2v1079h344l2 -200q20 40 57 82q61 69 155.5 110t188.5 41q62 0 133.5 -22t116.5 -60q34 -30 92 -127q53 70 78 92q48 44 131.5 78.5t198.5 34.5q64 0 120 -16q21 -6 47.5 -18.5t60.5 -35.5t65 -61.5t47 -85.5q19 -58 24 -193v-700h-377v557q0 50 -2 77t-15.5 64.5 t-41.5 63.5q-44 41 -104 41q-56 0 -109 -41q-29 -23 -48 -50.5t-27.5 -64t-11.5 -64t-5 -73.5v-510h-377v565q-3 92 -16.5 136.5t-49.5 70.5q-42 31 -96 31q-57 0 -99 -32.5t-61 -63.5q-21 -32 -32 -72t-13.5 -67.5t-3.5 -78.5v-487h-372z" />
<glyph unicode="n" horiz-adv-x="1366" d="M113 0v1075h342l2 -184q25 41 65 84q20 21 45.5 40t65 41.5t94 36t115.5 13.5q85 0 151 -25q50 -17 90.5 -44.5t66 -59t40 -56t22.5 -47.5q27 -68 37 -215v-661h-375v561q0 52 -2.5 80.5t-18 67t-46.5 65.5q-43 39 -102 39q-61 0 -121 -45q-15 -11 -27 -24.5t-21.5 -26.5 t-17 -28.5t-12 -27.5t-8.5 -28t-6 -26t-3.5 -25t-2 -21.5t-1 -18.5t-0.5 -14v-526h-372z" />
<glyph unicode="o" horiz-adv-x="1366" d="M55 549q0 113 35 205q18 52 45.5 98.5t76 96t110.5 85t154 58.5t202 24q35 0 73.5 -3.5t108 -15.5t141.5 -44.5t129 -81.5q69 -59 119.5 -161.5t50.5 -256.5q0 -246 -133 -393q-66 -75 -187 -131t-298 -56q-274 0 -446 146q-88 74 -134.5 188.5t-46.5 241.5zM436 557 q-1 -13 -1 -26q0 -164 106 -252q61 -52 137 -52q57 0 106 27q55 32 96 104q40 70 40 180v5q0 103 -41 188q-67 127 -191 127q-62 0 -115 -29q-126 -67 -137 -272z" />
<glyph unicode="p" horiz-adv-x="1366" d="M96 1081h346l2 -198q32 56 68 94q128 133 330 133q74 0 138.5 -20t108 -53.5t70 -61t45.5 -57.5q92 -142 92 -375q0 -94 -19.5 -175.5t-52 -139.5t-65 -97t-69.5 -68q-109 -86 -277 -86q-153 0 -256 82q-27 21 -82 86v-581h-369q-2 184 -2 368t2 369v504q-2 46 -5 138 t-5 138zM479 553q-1 -13 -1 -26q0 -150 100 -228q60 -47 131 -47q66 0 118 43q97 76 97 252q0 59 -15 121q-19 70 -71.5 116.5t-120.5 46.5q-61 0 -111 -30q-118 -65 -127 -248z" />
<glyph unicode="q" horiz-adv-x="1366" d="M53 545q0 230 109 383q63 86 161.5 136t206.5 50q119 0 218 -61q11 -6 21 -13.5l18 -13.5t18 -15.5t15.5 -14.5t16 -17l14 -16t15 -19t13.5 -17.5t15 -20t15 -19.5v198h340v-1523h-372v577q-24 -28 -38 -42.5t-48 -42t-66.5 -42t-83.5 -27t-109 -12.5q-182 0 -305 113 q-72 66 -114 160q-28 59 -45 147q-15 67 -15 152zM432 559v-22q0 -82 26 -139q30 -66 72 -101q47 -47 123 -47q64 0 117 37q45 30 77 91t32 157q0 178 -109 258q-62 43 -127 43q-42 0 -82 -23q-49 -27 -86.5 -89t-42.5 -165z" />
<glyph unicode="r" horiz-adv-x="894" d="M98 1081h346l11 -219q32 82 59 115q90 119 258 119q31 0 115 -11l-8 -315q-76 12 -125 12q-145 0 -209 -94q-23 -33 -36.5 -77t-17.5 -75t-8 -85v-449h-374q-2 125 -1.5 249t1.5 247q0 278 -3 370q-1 36 -4 106.5t-4 106.5z" />
<glyph unicode="s" horiz-adv-x="1024" d="M59 756q0 177 162 276q119 74 324 74q85 0 154.5 -10.5t199.5 -46.5l-27 -261q-3 1 -19.5 8.5l-22 10t-22.5 9.5t-27.5 10.5t-28.5 9t-34 9t-36.5 7t-42.5 6.5q-37 6 -80 6q-49 0 -82 -16q-31 -15 -44 -36.5t-13 -35.5q1 -23 19 -43t44 -31q16 -6 35.5 -10.5t51 -8.5 t36.5 -5q1 0 19 -4.5t38 -10.5t46.5 -14t54 -19.5t49.5 -23.5q32 -16 59 -43q89 -89 89 -227q0 -184 -154 -281q-61 -38 -139 -55.5t-211 -17.5q-113 0 -186.5 12t-194.5 47l16 264q4 -1 25.5 -9.5t27.5 -11t27 -9.5t31.5 -10t32 -9t39.5 -9l42 -7t50 -7q41 -6 84 -6 q45 0 71 11q7 2 16.5 7t23.5 14t23 24t9 32q0 19 -16 43q-30 41 -117 56q-23 5 -60.5 14t-118 38.5t-120.5 61.5q-37 30 -70 88t-33 140z" />
<glyph unicode="t" horiz-adv-x="894" d="M2 827v258h231v242l353 107v-349h262v-258h-262v-370v-12q0 -210 168 -212q24 0 100 15v-242q-155 -20 -233 -20q-199 0 -299 100q-56 65 -80 129q-19 59 -27 184v428h-213z" />
<glyph unicode="u" horiz-adv-x="1366" d="M106 422v659h373v-559q1 -44 3 -66.5t9.5 -54.5t25 -54t46.5 -40q50 -31 99 -31q94 0 163 101q20 32 31 73.5t13 66t5 79.5v485h373v-1081h-346v188q-1 -1 -11 -14.5t-20 -26.5t-25 -30.5t-28 -30.5q-118 -109 -317 -109q-66 0 -123 15q-79 21 -142.5 81t-93.5 138 q-23 65 -35 211z" />
<glyph unicode="v" d="M2 1081l397 -2q113 -345 138 -432q31 -112 90 -358q48 216 87 349.5t148 440.5h367l-414 -1079h-409z" />
<glyph unicode="w" horiz-adv-x="1961" d="M4 1081l395 -2q13 -47 36 -142t36 -142q6 -25 19.5 -74.5t23 -88.5t16.5 -75q32 -150 52 -285q61 286 84 381q48 196 108 428l449 -2q46 -184 71 -278q8 -31 23 -85.5t26.5 -100.5t20.5 -87q28 -132 43 -231q49 259 63 319q24 111 62 242q25 101 57 221h361l-342 -1081 h-426q-76 282 -113 438q-33 135 -80 363l-203 -799h-434z" />
<glyph unicode="x" d="M2 0l367 557l-324 526h432l160 -323l168 323h412l-343 -530l345 -555h-431l-180 344l-190 -342h-416z" />
<glyph unicode="y" d="M-2 1083l403 -2q87 -251 148 -448q32 -110 84 -303q87 310 100 352q41 135 127 401l375 -2q-84 -213 -252 -643q-107 -280 -141 -364q-19 -45 -103 -238l-13.5 -27t-15 -29.5t-14 -26t-17 -28.5t-17.5 -24q-48 -60 -140 -107t-225 -47q-84 0 -225 33l30 260 q98 -14 127 -14q111 0 168 70q21 30 39 73q-26 67 -262 672q-64 158 -176 442z" />
<glyph unicode="z" horiz-adv-x="1067" d="M63 0v305l494 512h-483v266h911v-290l-496 -527h502v-266h-928z" />
<glyph unicode="{" horiz-adv-x="724" d="M70 504v14q32 7 57 21q21 12 38 30.5t27.5 36.5t18 45t11 45t5.5 49t2 44.5v42.5v16v252q1 10 -1 49.5t6 110t26 112.5q18 41 53 76q43 37 88 53q40 15 109.5 22.5t104.5 8t110 0.5v-16q-56 -11 -95.5 -27.5t-72.5 -52.5q-35 -38 -45 -94.5t-10 -170.5v-194 q2 -160 -8.5 -241.5t-51.5 -135.5q-12 -16 -28 -30t-30.5 -22.5t-31.5 -16t-28 -10.5t-23 -6.5t-14 -4.5q39 -12 60.5 -21t49 -28t49.5 -47t34 -58t17 -81t6 -87t1 -122v-220q0 -113 12 -172t49 -96q53 -51 160 -76v-14q-169 0 -255 13t-142 59q-35 29 -57.5 69t-30.5 90 t-10 86t-1 89v258q3 35 0 71q0 85 -12.5 129.5t-42.5 81.5q-19 26 -41 39q-23 18 -63 31z" />
<glyph unicode="|" horiz-adv-x="468" d="M104 -512v2044h261v-2044h-261z" />
<glyph unicode="}" horiz-adv-x="724" d="M0 -498q93 18 141 56q4 3 10.5 9t11 9.5t5.5 3.5q36 40 45.5 96.5t9.5 171.5v195q0 129 4 197q3 107 54 172q13 18 29.5 33t29 24t31 17t26.5 10.5t25 7.5l16 4q-48 12 -86 35q-88 50 -114 143q-17 62 -17 266v222q0 117 -13.5 178t-57.5 98q-44 40 -150 66v16 q136 0 213.5 -8t128.5 -31q85 -38 125 -127q17 -40 22 -88.5t7 -151.5v-260q-2 -119 6.5 -174.5t42.5 -101.5q21 -28 45.5 -43.5t64.5 -30.5v-16q-46 -11 -75 -33q-30 -22 -48.5 -55t-25.5 -78t-8.5 -72.5t-1.5 -75.5v-16v-250q5 -189 -25 -262q-23 -52 -63 -88 q-39 -36 -93 -57q-18 -6 -39 -10.5t-47.5 -7t-45.5 -4.5t-51 -2.5t-45.5 -0.5h-47.5h-39v14z" />
<glyph unicode="~" horiz-adv-x="1492" d="M211 616q51 70 89 103q102 90 230 90q45 0 89.5 -13.5t123.5 -50.5l72 -32q101 -45 158 -45q46 0 97 32t73 55.5t33 37.5l106 -215q-44 -49 -88 -82q-78 -54 -136 -72q-48 -16 -95 -16q-49 0 -93.5 13.5t-128.5 53.5l-55 27q-3 1 -18 8.5t-18.5 9t-17 7.5t-19 7.5 t-17.5 5.5t-20 5t-18.5 2.5t-20.5 1.5q-41 -3 -76 -17q-21 -10 -43.5 -29.5t-37 -35.5t-56.5 -64z" />
<glyph unicode="&#xa1;" horiz-adv-x="598" d="M57 4l52 957h280l45 -957h-377zM78 1118v320h344v-320h-344z" />
<glyph unicode="&#xa3;" horiz-adv-x="1150" d="M51 0v270h201v398h-180v190h180q0 64 1 97.5t6.5 86t16.5 87.5t32.5 78.5t53.5 82.5q154 187 459 187q65 0 124.5 -8t81.5 -13.5t75 -19.5l-15 -269q-116 33 -176 33q-66 0 -118 -20.5t-82.5 -53.5t-47 -62.5t-24.5 -59.5q-12 -49 -12 -146h313v-190h-305v-398h457v-270 h-1041z" />
<glyph unicode="&#xa4;" horiz-adv-x="1366" d="M12 219l168 168q-22 33 -35 59q-53 100 -53 259q0 25 1.5 48.5t5.5 45t7 37.5t10 36l10.5 30t13 29.5t12.5 25t14 25t12 22.5l-164 163l195 195l164 -164q91 49 139 64q77 24 172 24q58 0 103 -6.5t87.5 -23.5t58 -25t58.5 -33l166 166l197 -197l-166 -163 q48 -89 63 -138q23 -75 23 -170q0 -72 -13.5 -132.5t-27.5 -91t-39 -75.5q-2 -3 -3 -5t-2.5 -4.5t-2.5 -4.5l166 -168l-197 -195l-166 168q-1 -1 -24 -13t-29 -15t-29 -13.5t-35.5 -14.5t-37.5 -11.5t-46 -10.5t-49 -5.5t-57 -2.5q-56 0 -104 7.5t-89.5 25t-60 27 t-55.5 31.5l-166 -168zM348 688q0 -143 101 -237.5t241 -94.5q109 0 195 66q44 33 73 75.5t40.5 83.5t15.5 66.5t4 48.5q0 142 -88 232q-106 106 -248 106q-61 0 -117 -22q-37 -13 -71 -35.5t-69 -60t-56 -96.5t-21 -132z" />
<glyph unicode="&#xa6;" horiz-adv-x="468" d="M104 389h261v-780h-261v780zM104 631v780h261v-780h-261z" />
<glyph unicode="&#xa7;" horiz-adv-x="1110" d="M57 606q0 45 12.5 84t40 74t50 57.5t63.5 57.5q-1 1 -17 12t-23.5 17t-24.5 21t-27 27t-23.5 32t-21 39.5t-13 45.5t-5.5 53q0 91 53 172q117 172 459 172q156 0 358 -45l-18 -249q-1 0 -29 8t-53.5 14.5t-62.5 14t-76 12t-74 4.5q-106 0 -164 -29q-45 -25 -45 -67 q0 -45 59 -84q20 -12 39 -19.5t56 -19t69 -23.5q84 -26 152 -61q39 -13 98 -54q63 -49 102 -102q58 -83 58 -176q0 -45 -10.5 -83.5t-36 -75.5t-45 -60t-58.5 -64q1 -1 17 -14t34.5 -30.5t30.5 -33.5q53 -66 53 -161q0 -159 -143 -265q-47 -34 -108.5 -56.5t-121.5 -30.5 t-91.5 -10.5t-59.5 -2.5q-67 0 -144.5 10.5t-130 21.5t-141.5 32l21 266q203 -82 374 -82q33 0 60 6q11 0 37 7.5t56 32t30 58.5q0 22 -12 50.5t-42 48.5q-15 10 -32.5 18t-55.5 21t-61 22q-89 35 -188 84l-14 7q-14 8 -23.5 13.5t-27.5 17t-32 21.5t-30.5 25t-28.5 29 q-68 85 -68 190zM352 657q0 -49 27 -82q30 -38 104 -75.5t211 -91.5q34 48 45 75.5t11 61.5q0 76 -54 121q-32 26 -145 75q-22 9 -66.5 28t-66.5 28q-33 -38 -49.5 -69t-16.5 -71z" />
<glyph unicode="&#xa8;" horiz-adv-x="555" d="M-281 1169v297h310v-297h-310zM184 1167v299h308v-299h-308z" />
<glyph unicode="&#xa9;" horiz-adv-x="1705" d="M125 725q0 90 16 162q34 152 126.5 276t234.5 201q158 88 354 88q95 0 183 -22t154 -58.5t111.5 -70.5t79.5 -70q32 -34 63 -79.5t64 -110.5t53 -149.5t19 -172.5q0 -34 -5 -76.5t-20 -108.5t-51 -140t-88 -138q-37 -44 -85 -84.5t-118.5 -83t-165 -68.5t-198.5 -26 q-85 0 -165 18.5t-141.5 49t-103 58.5t-75.5 58q-41 36 -78.5 81.5t-77 113t-63 159t-23.5 193.5zM190 723q0 -197 105 -361q91 -138 233 -217q146 -86 324 -86q128 0 254.5 50t220.5 145q49 50 86 110.5t56 110t31 104t14.5 84t3.5 58.5q0 125 -40.5 228.5t-86.5 170.5 q-94 129 -237 197.5t-298 68.5q-137 0 -260.5 -52t-212 -140.5t-141 -211.5t-52.5 -259zM358 723q0 31 4 63.5t16 87t43 111.5t77 105q144 147 372 147q186 0 324 -104q23 -17 76 -70l-178 -172q-102 102 -222 102q-74 0 -131 -30q-51 -27 -90 -85.5t-39 -148.5 q0 -137 90 -211q70 -57 177 -57q30 0 57 6q39 6 71.5 23.5t86.5 64.5l178 -166q-33 -38 -68 -63q-137 -109 -323 -109h-27q-227 10 -354 141q-140 145 -140 365z" />
<glyph unicode="&#xab;" horiz-adv-x="1110" d="M23 604l239 420h305l-219 -418l217 -430h-301zM520 602l240 422h313l-227 -428l217 -420h-303z" />
<glyph unicode="&#xac;" horiz-adv-x="1366" d="M0 465v260h1366v-725h-262v465h-1104z" />
<glyph unicode="&#xad;" horiz-adv-x="724" d="M76 465v274h567v-274h-567z" />
<glyph unicode="&#xae;" horiz-adv-x="1705" d="M125 725q0 264 166 467q28 32 58.5 61.5t84 67.5t112 65.5t140.5 46.5t170 19q175 0 328 -76t258 -217q144 -194 141 -440q0 -42 -6 -87t-22 -110t-53.5 -136.5t-92.5 -135.5q-68 -80 -151.5 -135.5t-163 -79.5t-135.5 -32.5t-105 -8.5q-249 0 -446 149q-34 27 -66 58 t-73.5 85.5t-71.5 115t-51 146t-21 177.5zM190 723q0 -131 50 -252q75 -187 244 -299.5t372 -112.5q112 0 223 39q198 70 317.5 241t121.5 382q0 223 -129 399q-24 32 -52 62t-78 69t-105 67t-134 48t-164 20q-223 0 -393 -126q-32 -23 -63 -51t-70.5 -78.5t-69 -106.5 t-50 -135.5t-20.5 -165.5zM512 262v938h336q55 0 82 -2q105 -4 160.5 -27.5t91.5 -70.5q51 -66 51 -152q0 -28 -5.5 -52.5t-13.5 -42.5t-21.5 -35t-24 -27.5t-28 -22.5t-26 -16.5t-24.5 -13t-19 -9.5q24 -14 31 -20q56 -43 69 -146q0 -2 7 -41.5t14.5 -77.5t24 -90.5 t36.5 -91.5l-258 2q-13 28 -22.5 62t-13.5 55.5t-10 65.5t-9 61q-15 81 -25 100q-7 12 -18 21q-10 8 -21.5 13.5t-25.5 7.5t-23 3t-26.5 1.5t-24.5 0.5h-39v-393h-225zM737 834h101q78 0 108 7.5t49 41.5q15 23 15 53q0 24 -13 47q-26 45 -118 45h-142v-194z" />
<glyph unicode="&#xb0;" horiz-adv-x="724" d="M10 1174q0 149 102.5 250.5t249.5 101.5q81 0 146 -31q95 -41 151 -129t56 -192q0 -81 -31 -146q-41 -95 -130 -152t-192 -57q-129 0 -229 86q-123 105 -123 269zM250 1178q0 -47 34 -81t81 -34q46 0 79 34t33 81t-33.5 79.5t-81.5 32.5q-46 0 -79 -32.5t-33 -79.5z" />
<glyph unicode="&#xb1;" horiz-adv-x="1024" d="M68 0v260h893v-260h-893zM68 696v260h317v316h260v-316h316v-260h-316v-319h-260v319h-317z" />
<glyph unicode="&#xb4;" horiz-adv-x="555" d="M-23 1165l220 299h415l-399 -299h-236z" />
<glyph unicode="&#xb5;" horiz-adv-x="1150" d="M121 768q0 56 9.5 95t41.5 69q31 31 72 31q70 0 103 -92q0 -1 0.5 -1.5t0.5 -1.5q6 -42 6 -65q0 -89 -63 -555q65 -154 184 -154q59 0 113 47q71 60 99 169t28 302q0 6 -1 64.5t-0.5 91.5t7 78.5t20.5 68.5q30 48 88 48q40 0 74 -27q29 -23 41 -66.5t12 -119.5 q0 -83 -10 -181q-20 -208 -92 -348q11 -51 37.5 -74.5t56.5 -23.5q44 0 62 38.5t18 86.5q0 31 -2 47l72 4q30 -87 30 -149q0 -109 -69 -150q-35 -23 -78 -23q-30 0 -68 15q-42 17 -71.5 54.5t-40.5 84.5q-35 -50 -79.5 -85t-88 -50t-76 -21t-61.5 -6q-132 0 -220 101 q-12 -167 52 -299q20 -41 49.5 -85.5t43 -71t13.5 -54.5q0 -21 -8 -41q-31 -56 -94 -56q-58 0 -103 45q-86 99 -86 396q0 203 25 356q-25 124 -36 283t-11 225z" />
<glyph unicode="&#xb6;" horiz-adv-x="1366" d="M168 1008q0 168 94 284q69 87 168 123q41 17 81 23t120 8h512v-160h-74v-1628h-172v1628h-240v-1628h-174v940q-1 0 -11.5 3t-22 7t-27 9t-27.5 10q-129 57 -186 180q-18 37 -29 84q-12 54 -12 117z" />
<glyph unicode="&#xb7;" horiz-adv-x="382" d="M8 594q0 29 15 68q8 18 19.5 35t31.5 37.5t51 33t68 12.5q53 0 88 -20q31 -16 52.5 -41.5t29.5 -53t10.5 -46.5t1.5 -33q0 -32 -17 -70q-24 -48 -70 -75t-95 -27q-74 0 -129.5 53t-55.5 127z" />
<glyph unicode="&#xb8;" horiz-adv-x="555" d="M-145 -430l39 108q124 -53 200 -53q40 0 72.5 17.5t32.5 52.5t-28.5 57.5t-84.5 22.5q-19 0 -76 -8l-39 36l172 281h115l-141 -225q3 0 38 3t52 3q95 0 153 -55q46 -43 46 -99q0 -50 -33 -92q-68 -90 -242 -90q-92 0 -276 41z" />
<glyph unicode="&#xbb;" horiz-adv-x="1110" d="M33 182l223 424l-223 420h305l242 -424l-242 -420h-305zM532 180l220 422l-220 424h304l241 -428l-239 -418h-306z" />
<glyph unicode="&#xbf;" horiz-adv-x="1067" d="M18 338q0 42 12 85t27.5 75t45 73.5t49.5 65.5t57 65q122 138 143 199q9 20 15 86h301q-3 -74 -10 -108.5t-25 -71.5q-25 -59 -115 -162q-40 -46 -59 -69.5t-43.5 -71.5t-24.5 -88q0 -58 37 -99q64 -71 211 -71q33 0 62.5 2t58 7t45.5 8t44 12.5t34.5 12t35.5 14t29 11.5 l8 -282q-9 -2 -48.5 -12t-70 -16.5t-77 -14.5t-97.5 -12.5t-104 -4.5q-59 0 -117 6q-225 21 -336 134q-88 90 -88 227zM348 1145v313h344v-313h-344z" />
<glyph unicode="&#xc0;" horiz-adv-x="1579" d="M4 2l545 1438h473l545 -1440h-412l-108 295h-547l-111 -293h-385zM276 1817h443l215 -283h-258zM588 561h368l-178 578z" />
<glyph unicode="&#xc1;" horiz-adv-x="1579" d="M4 2l545 1438h473l545 -1440h-412l-108 295h-547l-111 -293h-385zM588 561h368l-178 578zM655 1534l217 291h467l-426 -291h-258z" />
<glyph unicode="&#xc2;" horiz-adv-x="1579" d="M4 2l545 1438h473l545 -1440h-412l-108 295h-547l-111 -293h-385zM375 1534l229 293h379l215 -289h-254l-156 164l-153 -168h-260zM588 561h368l-178 578z" />
<glyph unicode="&#xc3;" horiz-adv-x="1579" d="M4 2l545 1438h473l545 -1440h-412l-108 295h-547l-111 -293h-385zM381 1548q12 74 25.5 114t37.5 73q80 98 201 98q61 0 137 -31q38 -17 53.5 -23.5t46 -15t56.5 -8.5q41 0 64 17t49 57l137 -2q0 -49 -6 -72q-12 -58 -51.5 -111.5t-88.5 -78.5q-43 -23 -100 -23 q-63 0 -133 31q-9 4 -32 15.5t-34.5 16.5t-30 12t-35 10t-34.5 3q-47 0 -71 -18t-52 -64h-139zM588 561h368l-178 578z" />
<glyph unicode="&#xc4;" horiz-adv-x="1579" d="M4 2l545 1438h473l545 -1440h-412l-108 295h-547l-111 -293h-385zM362 1532v291h338v-291h-338zM588 561h368l-178 578zM854 1532v289h338v-289h-338z" />
<glyph unicode="&#xc5;" horiz-adv-x="1579" d="M4 2l543 1438h471q101 -256 223 -578q49 -129 157.5 -419t166.5 -443h-410l-111 295h-542l-113 -293h-385zM563 1739q7 89 70 146t153 57q93 0 158.5 -64.5t65.5 -159.5q0 -42 -17 -82q-26 -64 -82 -101.5t-125 -37.5q-46 0 -98 23q-64 29 -97 87.5t-28 131.5zM588 561 h368l-180 586zM690 1706q6 -36 32.5 -61t59.5 -25q39 0 70 28t31 66q0 22 -9 43q-29 60 -83 60q-32 0 -62 -20t-39 -50q-5 -25 0 -41z" />
<glyph unicode="&#xc6;" horiz-adv-x="2048" d="M2 4l756 1438h1181v-275h-557l19 -282h510v-279h-486l27 -325h514v-279h-870l-27 307h-502l-149 -305h-416zM698 578h355l-56 634q-71 -167 -129 -290q-24 -51 -52 -108t-64 -128.5t-54 -107.5z" />
<glyph unicode="&#xc7;" horiz-adv-x="1409" d="M76 729q0 257 123 436q95 144 276 230q175 82 426 82q118 0 202 -16.5t228 -59.5l-31 -305q-81 33 -121.5 47.5t-107 29.5t-127.5 15q-29 0 -61.5 -4t-83 -16t-104 -41.5t-97.5 -73.5q-119 -124 -119 -324q0 -126 53 -229q21 -38 53.5 -74.5t84 -75t129.5 -62.5t168 -24 q79 0 158.5 17.5t113.5 31t82 35.5l20 -321q-64 -21 -91 -28.5t-103.5 -19.5t-159.5 -12q-47 0 -72 2l-69 -110q62 4 90 4q54 0 86 -13q48 -16 80.5 -53.5t32.5 -85.5t-29 -86q-68 -96 -248 -96q-93 0 -274 41l37 108q2 0 26 -9.5t49.5 -18.5t62 -17t64.5 -8q38 0 71.5 17.5 t33.5 52.5q0 34 -29.5 57t-83.5 23q-21 0 -76 -8l-39 36l107 174q-82 11 -127.5 19t-109 24.5t-115.5 43t-103 65.5q-47 37 -89 84.5t-87.5 120.5t-72.5 175.5t-27 219.5z" />
<glyph unicode="&#xc8;" d="M106 1817h443l215 -283h-258zM121 0v1436h1016v-277h-631v-285h592v-278h-592v-320h653v-276h-1038z" />
<glyph unicode="&#xc9;" d="M121 0v1436h1016v-277h-631v-285h592v-278h-592v-320h653v-276h-1038zM485 1534l217 291h467l-426 -291h-258z" />
<glyph unicode="&#xca;" d="M121 0v1436h1016v-277h-631v-285h592v-278h-592v-320h653v-276h-1038zM205 1534l229 293h379l215 -289h-256l-156 164l-153 -168h-258z" />
<glyph unicode="&#xcb;" d="M121 0v1436h1016v-277h-631v-285h592v-278h-592v-320h653v-276h-1038zM201 1538v291h340v-291h-340zM692 1536v289h340v-289h-340z" />
<glyph unicode="&#xcc;" horiz-adv-x="641" d="M-193 1817h443l215 -283h-258zM123 2v1434h393v-1434h-393z" />
<glyph unicode="&#xcd;" horiz-adv-x="641" d="M123 2v1434h393v-1434h-393zM186 1534l217 291h467l-426 -291h-258z" />
<glyph unicode="&#xce;" horiz-adv-x="641" d="M-94 1534l229 293h379l215 -289h-256l-156 164l-153 -168h-258zM123 2v1434h393v-1434h-393z" />
<glyph unicode="&#xcf;" horiz-adv-x="641" d="M-98 1538v291h340v-291h-340zM123 2v1434h393v-1434h-393zM393 1536v289h340v-289h-340z" />
<glyph unicode="&#xd1;" horiz-adv-x="1622" d="M121 2v1434l473 -2q122 -221 254 -451q19 -35 55 -96.5t64.5 -113t52.5 -97.5q26 -48 119 -244q-17 413 -17 449q-3 276 0 555h361v-1436h-482q-118 217 -213 385q-151 261 -208 379q-26 52 -117 248q13 -338 16 -609v-401h-358zM401 1548q12 74 26 113.5t38 73.5 q80 98 203 98q61 0 137 -31q3 -1 15 -6.5t15.5 -7t14.5 -6.5t15.5 -6.5t15 -5.5t16 -5.5t15 -3.5t16.5 -3t16 -2t17 -1q39 0 61 16.5t51 57.5l135 -2q0 -49 -6 -72q-12 -58 -51 -112t-88 -78q-43 -23 -100 -23q-65 0 -132 31l-32 16t-35 16.5t-30 11.5t-35.5 10t-34.5 3 q-47 0 -71 -18.5t-50 -63.5h-142z" />
<glyph unicode="&#xd2;" horiz-adv-x="1622" d="M76 733q0 286 137 473q85 112 211 180q177 91 379 91q106 -1 200 -22t162.5 -56t115 -70t81.5 -74q69 -76 122.5 -212.5t53.5 -319.5q0 -33 -2 -66t-11 -95t-25 -117t-48 -121t-76 -119q-98 -119 -250 -181.5t-315 -62.5q-42 0 -89 5t-121 21t-152 55t-142 97 q-117 105 -175 264t-56 330zM297 1817h444l215 -283h-258zM481 750q0 -189 51 -306q41 -91 113 -143.5t166 -52.5q157 0 254 151q72 115 72 308q0 215 -76 335q-28 42 -64 78q-93 74 -192 74q-66 0 -129 -33q-174 -92 -195 -411z" />
<glyph unicode="&#xd3;" horiz-adv-x="1622" d="M76 733q0 286 137 473q85 112 211 180q177 91 379 91q106 -1 200 -22t162.5 -56t115 -70t81.5 -74q69 -76 122.5 -212.5t53.5 -319.5q0 -33 -2 -66t-11 -95t-25 -117t-48 -121t-76 -119q-98 -119 -250 -181.5t-315 -62.5q-42 0 -89 5t-121 21t-152 55t-142 97 q-117 105 -175 264t-56 330zM481 750q0 -189 51 -306q41 -91 113 -143.5t166 -52.5q157 0 254 151q72 115 72 308q0 215 -76 335q-28 42 -64 78q-93 74 -192 74q-66 0 -129 -33q-174 -92 -195 -411zM678 1534l217 291h467l-426 -291h-258z" />
<glyph unicode="&#xd4;" horiz-adv-x="1622" d="M76 733q0 286 137 473q85 112 211 180q177 91 379 91q106 -1 200 -22t162.5 -56t115 -70t81.5 -74q69 -76 122.5 -212.5t53.5 -319.5q0 -33 -2 -66t-11 -95t-25 -117t-48 -121t-76 -119q-98 -119 -250 -181.5t-315 -62.5q-42 0 -89 5t-121 21t-152 55t-142 97 q-117 105 -175 264t-56 330zM397 1534l230 293h377l215 -289h-254l-156 164l-154 -168h-258zM481 750q0 -189 51 -306q41 -91 113 -143.5t166 -52.5q157 0 254 151q72 115 72 308q0 215 -76 335q-28 42 -64 78q-93 74 -192 74q-66 0 -129 -33q-174 -92 -195 -411z" />
<glyph unicode="&#xd5;" horiz-adv-x="1622" d="M76 733q0 286 137 473q85 112 211 180q177 91 379 91q106 -1 200 -22t162.5 -56t115 -70t81.5 -74q69 -76 122.5 -212.5t53.5 -319.5q0 -33 -2 -66t-11 -95t-25 -117t-48 -121t-76 -119q-98 -119 -250 -181.5t-315 -62.5q-42 0 -89 5t-121 21t-152 55t-142 97 q-117 105 -175 264t-56 330zM401 1548q12 74 26 113.5t38 73.5q80 98 203 98q61 0 137 -31q3 -1 15 -6.5t15.5 -7t14.5 -6.5t15.5 -6.5t15 -5.5t16 -5.5t15 -3.5t16.5 -3t16 -2t17 -1q39 0 61 16.5t51 57.5l135 -2q0 -49 -6 -72q-12 -58 -51 -112t-88 -78q-43 -23 -100 -23 q-65 0 -132 31l-32 16t-35 16.5t-30 11.5t-35.5 10t-34.5 3q-47 0 -71 -18.5t-50 -63.5h-142zM481 750q0 -189 51 -306q41 -91 113 -143.5t166 -52.5q157 0 254 151q72 115 72 308q0 215 -76 335q-28 42 -64 78q-93 74 -192 74q-66 0 -129 -33q-174 -92 -195 -411z" />
<glyph unicode="&#xd6;" horiz-adv-x="1622" d="M76 733q0 286 137 473q85 112 211 180q177 91 379 91q106 -1 200 -22t162.5 -56t115 -70t81.5 -74q69 -76 122.5 -212.5t53.5 -319.5q0 -33 -2 -66t-11 -95t-25 -117t-48 -121t-76 -119q-98 -119 -250 -181.5t-315 -62.5q-42 0 -89 5t-121 21t-152 55t-142 97 q-117 105 -175 264t-56 330zM389 1538v291h340v-291h-340zM481 750q0 -189 51 -306q41 -91 113 -143.5t166 -52.5q157 0 254 151q72 115 72 308q0 215 -76 335q-28 42 -64 78q-93 74 -192 74q-66 0 -129 -33q-174 -92 -195 -411zM881 1536v289h338v-289h-338z" />
<glyph unicode="&#xd7;" horiz-adv-x="1024" d="M74 342l254 254l-254 256l184 182l254 -254l254 254l184 -182l-252 -256l252 -254l-184 -184l-254 252l-254 -252z" />
<glyph unicode="&#xd8;" horiz-adv-x="1622" d="M45 55l168 176q-62 107 -82 154q-59 139 -59 328q0 164 51 318.5t153 256.5q33 33 77.5 63.5t110 62t154 50.5t185.5 19q36 0 71 -3t63 -6.5t60.5 -11.5t53 -12.5t50.5 -16.5t43 -17t41 -18.5t34.5 -17t33 -18t27.5 -14.5l145 149l99 -94l-146 -156q38 -48 64 -92 q98 -173 98 -428q0 -105 -18.5 -198t-50.5 -160.5t-64 -115t-68 -83.5q-53 -53 -120.5 -92t-124.5 -58t-121 -30.5t-99 -14t-67 -2.5q-209 0 -375 84q-29 13 -123 74l-157 -174zM467 725q0 -88 25 -201l544 572q-22 25 -33 36.5t-38.5 32t-63 30t-80.5 9.5q-79 0 -149 -35 q-42 -22 -76 -56.5t-55 -70t-36.5 -80.5t-22.5 -78t-10.5 -72.5t-4 -54t-0.5 -32.5zM555 385q31 -45 55 -66q74 -69 191 -69q85 0 155 41q83 48 137 158t54 284q0 43 -5.5 87.5t-10.5 69.5t-19 85z" />
<glyph unicode="&#xd9;" horiz-adv-x="1492" d="M121 481v959h387v-895q2 -67 11.5 -113.5t39.5 -91.5q63 -92 184 -92t185 88q29 40 40.5 86.5t14.5 140.5v879h387v-926q-7 -86 -18 -142t-39 -114q-38 -78 -102 -137t-142.5 -92.5t-161 -49.5t-168.5 -16q-94 0 -178 19q-282 62 -385 270q-18 36 -29.5 77.5t-15 65.5 t-10.5 84zM233 1817h443l217 -283h-258z" />
<glyph unicode="&#xda;" horiz-adv-x="1492" d="M121 481v959h387v-895q2 -67 11.5 -113.5t39.5 -91.5q63 -92 184 -92t185 88q29 40 40.5 86.5t14.5 140.5v879h387v-926q-7 -86 -18 -142t-39 -114q-38 -78 -102 -137t-142.5 -92.5t-161 -49.5t-168.5 -16q-94 0 -178 19q-282 62 -385 270q-18 36 -29.5 77.5t-15 65.5 t-10.5 84zM614 1534l217 291h465l-424 -291h-258z" />
<glyph unicode="&#xdb;" horiz-adv-x="1492" d="M121 481v959h387v-895q2 -67 11.5 -113.5t39.5 -91.5q63 -92 184 -92t185 88q29 40 40.5 86.5t14.5 140.5v879h387v-926q-7 -86 -18 -142t-39 -114q-38 -78 -102 -137t-142.5 -92.5t-161 -49.5t-168.5 -16q-94 0 -178 19q-282 62 -385 270q-18 36 -29.5 77.5t-15 65.5 t-10.5 84zM332 1534l231 293h377l215 -289h-254l-156 164l-153 -168h-260z" />
<glyph unicode="&#xdc;" horiz-adv-x="1492" d="M121 481v959h387v-895q2 -67 11.5 -113.5t39.5 -91.5q63 -92 184 -92t185 88q29 40 40.5 86.5t14.5 140.5v879h387v-926q-7 -86 -18 -142t-39 -114q-38 -78 -102 -137t-142.5 -92.5t-161 -49.5t-168.5 -16q-94 0 -178 19q-282 62 -385 270q-18 36 -29.5 77.5t-15 65.5 t-10.5 84zM328 1536v287h338v-287h-338zM819 1538v285h338v-285h-338z" />
<glyph unicode="&#xdf;" horiz-adv-x="1366" d="M111 4v1077q4 66 10 99q17 136 104 231q71 77 180.5 117.5t296.5 40.5q236 0 379 -96q164 -111 164 -308q0 -77 -31 -153q-31 -78 -79 -116t-140 -77q1 0 19 -6.5t37 -13t43.5 -17.5t42.5 -22q87 -51 123 -131t36 -191q0 -97 -28 -172q-20 -57 -54 -102t-70 -73 t-83 -48.5t-81.5 -30t-79 -14.5t-62.5 -5.5t-43 -0.5q-88 0 -211 14v264q63 -10 112 -10q94 0 153.5 53t59.5 150q0 63 -28 112q-18 33 -45.5 54t-63.5 30t-67 12t-76 3l2 258q69 5 102 14q19 6 39 17.5t44.5 32.5t40 57t15.5 80q0 47 -18 86q-15 38 -54.5 71t-109.5 33 q-52 0 -98 -27q-37 -22 -61 -55.5t-35 -78t-14.5 -80.5t-4.5 -87v-991h-366z" />
<glyph unicode="&#xe0;" d="M47 332q0 67 27 125t54.5 85.5t55.5 45.5q46 31 119 51t123 26t129 11h223q0 47 -10 78q-27 62 -96 91t-146 29q-65 0 -137.5 -17.5t-191.5 -63.5v245q92 24 140 35.5t124 23t145 11.5q131 0 227 -33t154 -78q76 -58 105 -133q5 -11 9 -23t7.5 -25t6 -23t4 -25.5t3 -24 t2.5 -26.5t1.5 -24t1.5 -26.5t1 -25.5v-641h-323v166q-61 -76 -84 -96q-107 -99 -289 -99q-85 0 -158 29q-100 39 -163.5 130t-63.5 202zM117 1456h411l222 -295h-246zM403 334q0 -63 45 -100t107 -37q103 0 170 88q33 42 43 84t12 112q-135 6 -139 6q-127 0 -190 -53 q-48 -42 -48 -100z" />
<glyph unicode="&#xe1;" d="M47 332q0 67 27 125t54.5 85.5t55.5 45.5q46 31 119 51t123 26t129 11h223q0 47 -10 78q-27 62 -96 91t-146 29q-65 0 -137.5 -17.5t-191.5 -63.5v245q92 24 140 35.5t124 23t145 11.5q131 0 227 -33t154 -78q76 -58 105 -133q5 -11 9 -23t7.5 -25t6 -23t4 -25.5t3 -24 t2.5 -26.5t1.5 -24t1.5 -26.5t1 -25.5v-641h-323v166q-61 -76 -84 -96q-107 -99 -289 -99q-85 0 -158 29q-100 39 -163.5 130t-63.5 202zM403 334q0 -63 45 -100t107 -37q103 0 170 88q33 42 43 84t12 112q-135 6 -139 6q-127 0 -190 -53q-48 -42 -48 -100zM489 1165 l220 299h415l-399 -299h-236z" />
<glyph unicode="&#xe2;" d="M47 332q0 67 27 125t54.5 85.5t55.5 45.5q46 31 119 51t123 26t129 11h223q0 47 -10 78q-27 62 -96 91t-146 29q-65 0 -137.5 -17.5t-191.5 -63.5v245q92 24 140 35.5t124 23t145 11.5q131 0 227 -33t154 -78q76 -58 105 -133q5 -11 9 -23t7.5 -25t6 -23t4 -25.5t3 -24 t2.5 -26.5t1.5 -24t1.5 -26.5t1 -25.5v-641h-323v166q-61 -76 -84 -96q-107 -99 -289 -99q-85 0 -158 29q-100 39 -163.5 130t-63.5 202zM211 1167l254 299h313l236 -303h-230l-168 176l-167 -172h-238zM403 334q0 -63 45 -100t107 -37q103 0 170 88q33 42 43 84t12 112 q-135 6 -139 6q-127 0 -190 -53q-48 -42 -48 -100z" />
<glyph unicode="&#xe3;" d="M47 332q0 67 27 125t54.5 85.5t55.5 45.5q46 31 119 51t123 26t129 11h223q0 47 -10 78q-27 62 -96 91t-146 29q-65 0 -137.5 -17.5t-191.5 -63.5v245q92 24 140 35.5t124 23t145 11.5q131 0 227 -33t154 -78q76 -58 105 -133q5 -11 9 -23t7.5 -25t6 -23t4 -25.5t3 -24 t2.5 -26.5t1.5 -24t1.5 -26.5t1 -25.5v-641h-323v166q-61 -76 -84 -96q-107 -99 -289 -99q-85 0 -158 29q-100 39 -163.5 130t-63.5 202zM211 1180q10 79 27 127q9 23 25 46t43 50t70.5 44t96.5 17q75 0 160 -37q7 -3 39.5 -17.5t54.5 -21t43 -6.5q42 1 65 19t50 59h141 q-11 -84 -22 -117q-9 -25 -23 -49t-41 -54.5t-70.5 -49.5t-97.5 -19q-69 2 -139 33q-6 2 -26 11t-28 12.5t-26 10t-29.5 9.5t-27 5.5t-29.5 2.5q-43 0 -65 -16.5t-48 -58.5h-143zM403 334q0 -63 45 -100t107 -37q103 0 170 88q33 42 43 84t12 112q-135 6 -139 6 q-127 0 -190 -53q-48 -42 -48 -100z" />
<glyph unicode="&#xe4;" d="M47 330q0 108 66 192q26 33 59 57.5t74 40.5t74 26.5t84.5 17t78 8.5t80.5 6h213q0 53 -10 78q-13 35 -42 60t-57.5 36.5t-64 18t-50 7.5t-28.5 1q-66 -2 -136 -19t-193 -63v239q123 39 201 54.5t184 15.5q253 0 399 -107q69 -55 100 -116q18 -34 28.5 -78.5t13 -75.5 t5.5 -88v-639h-323v166q-61 -80 -90 -105q-103 -90 -279 -90q-73 0 -151 25q-104 37 -170 128t-66 204zM233 1223v290h306v-290h-306zM401 332q0 -60 45 -97.5t107 -37.5q41 0 78.5 16t55.5 31.5t30 31.5q25 29 39 65.5t18 63.5t8 76q-68 6 -135 6q-139 0 -203 -55 q-43 -41 -43 -100zM694 1225v288h307v-288h-307z" />
<glyph unicode="&#xe5;" d="M43 336q0 162 145 260q39 24 84 40t104 25t90.5 12t98.5 7l217 2q-12 84 -34 113q-19 29 -55 48t-76.5 26t-60 8.5t-34.5 1.5q-54 0 -116 -13.5t-103 -27.5t-110 -41l2 241q89 27 135.5 39t116.5 22.5t143 10.5q255 0 397 -111q63 -50 96 -112q17 -34 27 -79.5 t12.5 -75.5t5.5 -85v-641h-319l-8 158q-60 -72 -90 -98q-108 -89 -281 -89q-116 0 -203 50q-83 44 -133.5 128.5t-50.5 180.5zM391 1444q3 35 29 86q20 34 49 58t58.5 34t50.5 14t38 4q94 0 158 -64t64 -157q0 -41 -13 -80q-26 -67 -82.5 -104t-128.5 -37q-46 0 -94 21 q-63 29 -99 92t-30 133zM401 338q0 -63 46 -99t110 -36q71 0 129 47t80 117q12 39 16 118q-183 10 -245 -6q-59 -13 -97.5 -49t-38.5 -92zM516 1413q6 -38 33 -65t61 -27q40 2 71.5 30t31.5 66q0 40 -28.5 71.5t-66.5 31.5q-31 0 -60 -19.5t-38 -48.5q-6 -19 -4 -39z" />
<glyph unicode="&#xe6;" horiz-adv-x="1961" d="M41 332q0 203 209 295q88 37 204.5 48.5t327.5 6.5q0 10 -8.5 47t-21.5 59q-24 39 -78 61t-84.5 25t-54.5 3q-168 0 -353 -91v244q80 34 125 45q42 11 135.5 25t178.5 14q45 0 83 -5t64 -9.5t54.5 -19t41 -20.5t37.5 -29t30.5 -28.5t31.5 -33.5q52 49 98 80 q108 67 297 67q73 0 153 -16q190 -35 289 -185q34 -52 55 -109.5t30.5 -126.5t12.5 -115.5t5 -127.5h-768q25 -84 51 -117q26 -35 68 -58t88 -31t70.5 -10.5t43.5 -2.5q85 0 156 20.5t174 65.5v-262q-74 -24 -111 -33.5t-113 -18.5t-180 -9q-229 0 -338 81q-13 9 -27 22.5 t-23.5 23t-25 27t-22.5 24.5q-48 -54 -69 -70q-70 -61 -157 -84.5t-198 -23.5q-108 0 -192.5 18t-155.5 70q-133 97 -133 264zM403 334q0 -43 21 -78q22 -34 64.5 -52t86.5 -18q121 0 181 105q26 43 32.5 87t4.5 111q-180 6 -244 -6q-18 -4 -35 -10.5t-46 -23t-47 -46.5 t-18 -69zM1130 649l439 2q-11 84 -31.5 131.5t-77.5 79.5q-49 27 -108 27q-53 0 -111 -29q-95 -56 -110 -205q-1 -4 -1 -6z" />
<glyph unicode="&#xe7;" horiz-adv-x="1024" d="M47 547q0 229 123 373q82 95 214 145.5t269 50.5q57 -1 115 -10.5t96 -20t111 -32.5l-23 -269q-45 19 -70 28t-63.5 17.5t-75.5 8.5q-57 0 -112 -19q-30 -11 -57.5 -27.5t-61.5 -47.5t-54 -81.5t-20 -113.5q0 -72 29 -139q37 -78 118 -120t177 -42q50 0 94.5 10t124.5 41 v-274q-104 -33 -152.5 -40.5t-126.5 -9.5l-73 -116q62 4 90 4q47 0 82 -10q49 -14 83 -53t34 -89q0 -53 -37 -96q-71 -86 -238 -86q-92 0 -276 41l39 108q134 -53 202 -53q38 0 70.5 18t32.5 54q0 33 -28.5 55.5t-82.5 22.5q-20 0 -78 -8l-39 36l109 177q-158 16 -236 51 q-151 64 -230 202.5t-79 313.5z" />
<glyph unicode="&#xe8;" d="M51 557q0 223 125 371q154 186 451 186q93 0 167.5 -18t125.5 -51t83.5 -66t59.5 -74q60 -87 86 -194q23 -104 27 -281l-766 -2q25 -87 45 -115q27 -41 94.5 -71.5t165.5 -30.5q57 0 126 14.5t109.5 28t120.5 41.5l6 -254q-74 -26 -104 -35.5t-113 -23t-178 -13.5 q-386 0 -541 250q-90 143 -90 338zM117 1456h411l222 -295h-246zM406 645h434q-9 57 -13 72q-18 91 -92 135q-50 31 -108 31q-61 0 -109 -29q-24 -13 -42 -31t-28.5 -35t-19 -44.5t-12.5 -46t-10 -52.5z" />
<glyph unicode="&#xe9;" d="M51 557q0 223 125 371q154 186 451 186q93 0 167.5 -18t125.5 -51t83.5 -66t59.5 -74q60 -87 86 -194q23 -104 27 -281l-766 -2q25 -87 45 -115q27 -41 94.5 -71.5t165.5 -30.5q57 0 126 14.5t109.5 28t120.5 41.5l6 -254q-74 -26 -104 -35.5t-113 -23t-178 -13.5 q-386 0 -541 250q-90 143 -90 338zM406 645h434q-9 57 -13 72q-18 91 -92 135q-50 31 -108 31q-61 0 -109 -29q-24 -13 -42 -31t-28.5 -35t-19 -44.5t-12.5 -46t-10 -52.5zM489 1165l220 299h415l-399 -299h-236z" />
<glyph unicode="&#xea;" d="M51 557q0 223 125 371q154 186 451 186q93 0 167.5 -18t125.5 -51t83.5 -66t59.5 -74q60 -87 86 -194q23 -104 27 -281l-766 -2q25 -87 45 -115q27 -41 94.5 -71.5t165.5 -30.5q57 0 126 14.5t109.5 28t120.5 41.5l6 -254q-74 -26 -104 -35.5t-113 -23t-178 -13.5 q-386 0 -541 250q-90 143 -90 338zM211 1167l254 299h313l236 -303h-230l-168 176l-167 -172h-238zM406 645h434q-9 57 -13 72q-18 91 -92 135q-50 31 -108 31q-61 0 -109 -29q-24 -13 -42 -31t-28.5 -35t-19 -44.5t-12.5 -46t-10 -52.5z" />
<glyph unicode="&#xeb;" d="M51 557q0 223 125 371q154 186 451 186q93 0 167.5 -18t125.5 -51t83.5 -66t59.5 -74q60 -87 86 -194q23 -104 27 -281l-766 -2q25 -87 45 -115q27 -41 94.5 -71.5t165.5 -30.5q57 0 126 14.5t109.5 28t120.5 41.5l6 -254q-74 -26 -104 -35.5t-113 -23t-178 -13.5 q-386 0 -541 250q-90 143 -90 338zM231 1169v297h310v-297h-310zM406 645h434q-9 57 -13 72q-18 91 -92 135q-50 31 -108 31q-61 0 -109 -29q-24 -13 -42 -31t-28.5 -35t-19 -44.5t-12.5 -46t-10 -52.5zM696 1167v299h308v-299h-308z" />
<glyph unicode="&#xec;" horiz-adv-x="598" d="M-205 1456h414l219 -295h-244zM111 2v1079h370v-1079h-370z" />
<glyph unicode="&#xed;" horiz-adv-x="598" d="M111 2v1079h370v-1079h-370zM170 1165l219 299h416l-399 -299h-236z" />
<glyph unicode="&#xee;" horiz-adv-x="598" d="M-109 1167l254 299h314l235 -303h-229l-168 176l-168 -172h-238zM111 2v1079h370v-1079h-370z" />
<glyph unicode="&#xef;" horiz-adv-x="598" d="M-88 1169v297h309v-297h-309zM111 2v1079h370v-1079h-370zM377 1167v299h307v-299h-307z" />
<glyph unicode="&#xf1;" horiz-adv-x="1366" d="M113 0v1075h342l2 -184q25 41 65 84q20 21 45.5 40t65 41.5t94 36t115.5 13.5q85 0 151 -25q50 -17 90.5 -44.5t66 -59t40 -56t22.5 -47.5q27 -68 37 -215v-661h-375v561q0 52 -2.5 80.5t-18 67t-46.5 65.5q-43 39 -102 39q-61 0 -121 -45q-15 -11 -27 -24.5t-21.5 -26.5 t-17 -28.5t-12 -27.5t-8.5 -28t-6 -26t-3.5 -25t-2 -21.5t-1 -18.5t-0.5 -14v-526h-372zM276 1180q12 88 27 127q6 17 16.5 35.5t30.5 41t45 39.5t62 29t80 12q74 0 159 -37q9 -3 41 -17t55 -21t44 -7q41 1 63 19t49 59h142q-10 -80 -23 -117q-8 -24 -22 -48.5t-40.5 -55 t-70 -49.5t-96.5 -19q-64 2 -142 33q-6 2 -26 11t-28 12.5t-26 10t-29.5 9.5t-27 5.5t-29.5 2.5q-43 0 -64.5 -16.5t-47.5 -58.5h-142z" />
<glyph unicode="&#xf2;" horiz-adv-x="1366" d="M55 549q0 113 35 205q18 52 45.5 98.5t76 96t110.5 85t154 58.5t202 24q35 0 73.5 -3.5t108 -15.5t141.5 -44.5t129 -81.5q69 -59 119.5 -161.5t50.5 -256.5q0 -246 -133 -393q-66 -75 -187 -131t-298 -56q-274 0 -446 146q-88 74 -134.5 188.5t-46.5 241.5zM180 1456 h412l221 -295h-246zM436 557q-9 -184 105 -278q61 -52 137 -52q57 0 106 27q55 33 96 104.5t40 184.5q0 103 -41 188q-67 127 -191 127q-62 0 -115 -29q-126 -67 -137 -272z" />
<glyph unicode="&#xf3;" horiz-adv-x="1366" d="M55 549q0 113 35 205q18 52 45.5 98.5t76 96t110.5 85t154 58.5t202 24q35 0 73.5 -3.5t108 -15.5t141.5 -44.5t129 -81.5q69 -59 119.5 -161.5t50.5 -256.5q0 -246 -133 -393q-66 -75 -187 -131t-298 -56q-274 0 -446 146q-88 74 -134.5 188.5t-46.5 241.5zM436 557 q-9 -184 105 -278q61 -52 137 -52q57 0 106 27q55 33 96 104.5t40 184.5q0 103 -41 188q-67 127 -191 127q-62 0 -115 -29q-126 -67 -137 -272zM555 1165l219 299h416l-402 -299h-233z" />
<glyph unicode="&#xf4;" horiz-adv-x="1366" d="M55 549q0 113 35 205q18 52 45.5 98.5t76 96t110.5 85t154 58.5t202 24q35 0 73.5 -3.5t108 -15.5t141.5 -44.5t129 -81.5q69 -59 119.5 -161.5t50.5 -256.5q0 -246 -133 -393q-66 -75 -187 -131t-298 -56q-274 0 -446 146q-88 74 -134.5 188.5t-46.5 241.5zM276 1167 l252 299h314l235 -303h-229l-168 176l-166 -172h-238zM436 557q-9 -184 105 -278q61 -52 137 -52q57 0 106 27q55 33 96 104.5t40 184.5q0 103 -41 188q-67 127 -191 127q-62 0 -115 -29q-126 -67 -137 -272z" />
<glyph unicode="&#xf5;" horiz-adv-x="1366" d="M55 549q0 113 35 205q18 52 45.5 98.5t76 96t110.5 85t154 58.5t202 24q35 0 73.5 -3.5t108 -15.5t141.5 -44.5t129 -81.5q69 -59 119.5 -161.5t50.5 -256.5q0 -246 -133 -393q-66 -75 -187 -131t-298 -56q-274 0 -446 146q-88 74 -134.5 188.5t-46.5 241.5zM276 1180 q12 88 27 127q6 17 16.5 35.5t30.5 41t45 39.5t62 29t80 12q74 0 159 -37q9 -3 41 -17t55 -21t44 -7q41 1 63 19t49 59h142q-10 -80 -23 -117q-8 -24 -22 -48.5t-40.5 -55t-70 -49.5t-96.5 -19q-64 2 -142 33q-6 2 -26 11t-28 12.5t-26 10t-29.5 9.5t-27 5.5t-29.5 2.5 q-43 0 -64.5 -16.5t-47.5 -58.5h-142zM436 557q-9 -184 105 -278q61 -52 137 -52q57 0 106 27q55 33 96 104.5t40 184.5q0 103 -41 188q-67 127 -191 127q-62 0 -115 -29q-126 -67 -137 -272z" />
<glyph unicode="&#xf6;" horiz-adv-x="1366" d="M53 561q3 105 39.5 203t102.5 170q86 91 217 136.5t268 45.5q182 0 309 -59.5t193 -138.5q73 -88 100 -213q16 -72 16 -154q0 -268 -159 -418q-68 -64 -180.5 -112t-268.5 -48q-147 0 -278 45q-94 34 -164 91.5t-106 116t-58 128t-27 116t-4 91.5zM297 1227v293h305v-293 h-305zM434 578q-10 -197 105 -299q61 -54 139 -54q87 0 153 66q89 89 89 258q0 90 -25 153q-27 71 -84 114.5t-129 43.5q-75 0 -134 -44t-89 -116q-21 -56 -25 -122zM760 1227v293h305v-293h-305z" />
<glyph unicode="&#xf7;" horiz-adv-x="1024" d="M2 465v258h1022v-258h-1022zM348 223q0 71 49 119.5t119 48.5q35 0 64 -12q47 -21 73.5 -66t24.5 -92q-3 -68 -50 -113t-114 -45t-116.5 46t-49.5 114zM348 958q0 68 47 117q51 51 117 51q70 0 118 -48.5t48 -119.5q0 -34 -12 -63q-14 -31 -36 -52.5t-46.5 -30.5 t-41.5 -12t-32 -3q-30 0 -53 10q-38 12 -73.5 51t-35.5 100z" />
<glyph unicode="&#xf8;" horiz-adv-x="1366" d="M51 545q0 116 39 223q26 69 68 124.5t87.5 91t101 61.5t101.5 39.5t97 21t79 9t56 1.5q89 0 167.5 -16t111 -29t92.5 -41l110 113l88 -82l-102 -105q1 -2 16 -20t35 -43.5t33 -44.5q76 -120 76 -297q0 -32 -4.5 -69t-17 -94t-43 -116.5t-75.5 -107.5q-68 -72 -192.5 -127 t-296.5 -55q-97 0 -174.5 17t-113.5 34t-95 51l-133 -137l-86 82l123 123q-56 72 -72 100q-76 128 -76 293zM424 545q0 -17 1.5 -32.5t3 -26.5t5 -24t5.5 -19t6.5 -18t5.5 -15l389 397q-18 18 -39 33q-52 39 -125 39q-38 0 -82 -15q-60 -21 -100 -74.5t-55 -114t-15 -130.5z M506 299l4 -4q16 -16 27 -25.5t33 -23.5t50.5 -21.5t61.5 -7.5q97 0 164 62q36 36 63 101.5t27 158.5q0 74 -31 170z" />
<glyph unicode="&#xf9;" horiz-adv-x="1366" d="M106 422v659h373v-559q1 -44 3 -66.5t9.5 -54.5t25 -54t46.5 -40q50 -31 99 -31q94 0 163 101q20 32 31 73.5t13 66t5 79.5v485h373v-1081h-346v188q-1 -1 -11 -14.5t-20 -26.5t-25 -30.5t-28 -30.5q-118 -109 -317 -109q-66 0 -123 15q-79 21 -142.5 81t-93.5 138 q-23 65 -35 211zM180 1456h412l221 -295h-246z" />
<glyph unicode="&#xfa;" horiz-adv-x="1366" d="M106 422v659h373v-559q1 -44 3 -66.5t9.5 -54.5t25 -54t46.5 -40q50 -31 99 -31q94 0 163 101q20 32 31 73.5t13 66t5 79.5v485h373v-1081h-346v188q-1 -1 -11 -14.5t-20 -26.5t-25 -30.5t-28 -30.5q-118 -109 -317 -109q-66 0 -123 15q-79 21 -142.5 81t-93.5 138 q-23 65 -35 211zM555 1165l219 299h416l-402 -299h-233z" />
<glyph unicode="&#xfb;" horiz-adv-x="1366" d="M106 422v659h373v-559q1 -44 3 -66.5t9.5 -54.5t25 -54t46.5 -40q50 -31 99 -31q94 0 163 101q20 32 31 73.5t13 66t5 79.5v485h373v-1081h-346v188q-1 -1 -11 -14.5t-20 -26.5t-25 -30.5t-28 -30.5q-118 -109 -317 -109q-66 0 -123 15q-79 21 -142.5 81t-93.5 138 q-23 65 -35 211zM276 1167l252 299h314l235 -303h-229l-168 176l-166 -172h-238z" />
<glyph unicode="&#xfc;" horiz-adv-x="1366" d="M106 406v673h371v-559q1 -50 4 -78t18.5 -65t45.5 -62q43 -39 102 -39q98 0 172 99q33 47 43 99.5t12 131.5v473h371v-1077h-346v186q-35 -49 -76 -90q-121 -116 -329 -116q-66 0 -115 12q-76 22 -138.5 75t-93.5 121q-28 63 -41 216zM295 1219v294h303v-294h-303z M756 1221v295h307v-295h-307z" />
<glyph unicode="&#xff;" d="M-2 1083l403 -2q87 -251 148 -448q32 -110 84 -303q87 310 100 352q41 135 127 401l375 -2q-84 -213 -252 -643q-107 -280 -141 -364q-19 -45 -103 -238l-13.5 -27t-15 -29.5t-14 -26t-17 -28.5t-17.5 -24q-48 -60 -140 -107t-225 -47q-84 0 -225 33l30 260 q98 -14 127 -14q111 0 168 70q21 30 39 73q-26 67 -262 672q-64 158 -176 442zM254 1169v297h307v-297h-307zM717 1167v299h307v-299h-307z" />
<glyph unicode="&#x152;" horiz-adv-x="2048" d="M70 731q0 205 77 361q90 188 273 274q63 31 136 50t124.5 25.5t142.5 14.5q124 4 187 2q38 0 107 -3.5t91 -4.5q27 -2 57.5 -3t68 -1.5t57.5 -1.5h551v-277h-525v-290h490v-273h-492v-321h551v-277q-541 0 -811 -4q-45 -1 -134 -4t-134 -4q-88 7 -130 11t-110 16.5 t-125 31.5q-40 14 -78.5 31.5t-85 48t-86 67.5t-78 90.5t-65 116t-43 146t-16.5 178.5zM479 727q0 -87 22 -158t54.5 -116t76.5 -78.5t82 -50t77 -25.5q83 -22 247 -14v889q-78 4 -114 4q-159 3 -271 -74q-71 -49 -122.5 -141t-51.5 -236z" />
<glyph unicode="&#x153;" horiz-adv-x="2091" d="M49 553q0 225 117 362q84 104 217 156.5t276 52.5q216 0 342 -96q29 -21 84 -78q42 52 89 88q108 80 313 80q67 0 108 -6q247 -30 351 -219q36 -64 54.5 -148t22.5 -144t5 -161h-758q26 -87 51 -121q25 -33 67 -55.5t86 -31t68.5 -11t40.5 -2.5q55 0 117.5 13.5t99 26 t113.5 40.5l-2 -250q-5 -1 -42 -11.5t-67.5 -18t-76 -16.5t-96 -14t-99.5 -5q-229 0 -342 79q-37 26 -101 95q-49 -55 -71 -70q-51 -40 -151.5 -74t-225.5 -34q-127 0 -236 38q-174 61 -264 202.5t-90 332.5zM430 559q0 -70 12 -123q22 -89 82 -148t146 -59q121 0 190 107 q51 80 51 227q0 74 -14 125q-4 16 -11.5 36t-25.5 48.5t-41 51t-60 39t-81 16.5q-33 0 -80 -15t-84 -55q-76 -86 -84 -250zM1272 657h428q-9 79 -28.5 126.5t-72.5 80.5t-112 33q-50 0 -107 -31q-19 -11 -34.5 -25.5t-26 -28t-18.5 -31t-12.5 -29.5t-8 -30t-4.5 -25.5 t-2.5 -23t-1.5 -16.5z" />
<glyph unicode="&#x178;" horiz-adv-x="1449" d="M2 1438h451l66 -129t67 -129q73 -143 88 -174q19 -38 59 -148q19 51 32 84t28 65t24 50t33.5 64t42.5 81q21 39 119 236h424l-521 -908v-530h-391v526zM307 1538v291h340v-291h-340zM799 1536v289h340v-289h-340z" />
<glyph unicode="&#x2c6;" horiz-adv-x="555" d="M-301 1167l254 299h313l236 -303h-230l-168 176l-167 -172h-238z" />
<glyph unicode="&#x2dc;" horiz-adv-x="555" d="M-301 1180q10 79 27 127q9 23 25 46t43 50t70.5 44t96.5 17q75 0 160 -37q7 -3 39.5 -17.5t54.5 -21t43 -6.5q42 1 65 19t50 59h141q-11 -84 -22 -117q-9 -25 -23 -49t-41 -54.5t-70.5 -49.5t-97.5 -19q-69 2 -139 33q-6 2 -26 11t-28 12.5t-26 10t-29.5 9.5t-27 5.5 t-29.5 2.5q-43 0 -65 -16.5t-48 -58.5h-143z" />
<glyph unicode="&#x2000;" horiz-adv-x="971" />
<glyph unicode="&#x2001;" horiz-adv-x="1942" />
<glyph unicode="&#x2002;" horiz-adv-x="971" />
<glyph unicode="&#x2003;" horiz-adv-x="1942" />
<glyph unicode="&#x2004;" horiz-adv-x="647" />
<glyph unicode="&#x2005;" horiz-adv-x="485" />
<glyph unicode="&#x2006;" horiz-adv-x="323" />
<glyph unicode="&#x2007;" horiz-adv-x="323" />
<glyph unicode="&#x2008;" horiz-adv-x="242" />
<glyph unicode="&#x2009;" horiz-adv-x="388" />
<glyph unicode="&#x200a;" horiz-adv-x="107" />
<glyph unicode="&#x2010;" horiz-adv-x="724" d="M76 465v274h567v-274h-567z" />
<glyph unicode="&#x2011;" horiz-adv-x="724" d="M76 465v274h567v-274h-567z" />
<glyph unicode="&#x2012;" horiz-adv-x="724" d="M76 465v274h567v-274h-567z" />
<glyph unicode="&#x2013;" d="M76 465v274h1071v-274h-1071z" />
<glyph unicode="&#x2014;" horiz-adv-x="1024" d="M0 463v262h1024v-262h-1024z" />
<glyph unicode="&#x2018;" horiz-adv-x="512" d="M23 881l210 559h287l-141 -559h-356z" />
<glyph unicode="&#x2019;" horiz-adv-x="512" d="M2 879l137 557h353l-211 -557h-279z" />
<glyph unicode="&#x201a;" horiz-adv-x="512" d="M-8 -238l137 566h358l-206 -566h-289z" />
<glyph unicode="&#x201c;" horiz-adv-x="980" d="M23 887l202 549h283l-139 -549h-346zM494 887l200 551h281l-133 -551h-348z" />
<glyph unicode="&#x201d;" horiz-adv-x="980" d="M2 887l135 549h344l-202 -549h-277zM469 887l133 549h348l-198 -549h-283z" />
<glyph unicode="&#x201e;" horiz-adv-x="980" d="M-14 -223l135 551h348l-205 -551h-278zM455 -223l133 551h350l-207 -551h-276z" />
<glyph unicode="&#x2022;" horiz-adv-x="681" d="M25 723q0 66 22 117q12 30 34 61t57.5 64t90 54t117.5 21q68 0 127 -24q49 -21 86 -55.5t55 -67t29 -70.5t13.5 -60t2.5 -42q-1 -71 -25 -128.5t-54 -90.5q-28 -33 -65 -55t-73.5 -30.5t-57.5 -11t-38 -2.5q-108 0 -188 60q-30 22 -56.5 52.5t-51.5 87.5t-25 120z" />
<glyph unicode="&#x2026;" horiz-adv-x="2048" d="M178 150q0 30 12 65q18 45 61 72.5t89 27.5q69 0 116 -45.5t48 -115.5q0 -35 -12 -68q-14 -31 -35.5 -52.5t-45 -30.5t-40 -12t-31.5 -3q-32 0 -64 14t-53.5 35.5t-30 45t-11.5 38.5t-3 29zM862 152q0 70 47.5 115.5t118.5 45.5q35 0 64 -12q35 -14 65.5 -51t30.5 -96 q-2 -38 -12 -60q-13 -39 -50 -72.5t-102 -33.5q-26 0 -61 12q-32 13 -54 34t-31.5 45t-12.5 40.5t-3 32.5zM1544 152q0 67 48 115t116 48q37 0 72 -16q41 -20 65.5 -61t24.5 -84q0 -37 -12 -68q-20 -44 -60.5 -71t-85.5 -27q-32 0 -59 10q-51 17 -80 58.5t-29 95.5z" />
<glyph unicode="&#x202f;" horiz-adv-x="388" />
<glyph unicode="&#x205f;" horiz-adv-x="485" />
<glyph unicode="&#x2122;" horiz-adv-x="1409" d="M0 1309v137h588v-137h-205v-543h-174v543h-209zM643 766v680h217l156 -490l145 490h219v-680h-168l9 362l12 140l-29 -111l-114 -391h-154l-121 393l-29 105l15 -136l10 -362h-168z" />
<glyph unicode="&#x25fc;" horiz-adv-x="1085" d="M0 0v1085h1085v-1085h-1085z" />
<glyph unicode="&#xfb01;" horiz-adv-x="1492" d="M4 825v254h217q-3 48 -1.5 109t11.5 106q35 138 138 207q48 32 122 50.5t112 21t69 2.5q80 0 188 -27l-16 -241q-70 14 -94 14q-45 0 -82 -21q-26 -15 -41.5 -38.5t-21.5 -58t-7.5 -57t-1.5 -61.5h266v-260h-264v-825h-375v825h-219zM1004 1245v273h376v-273h-376z M1008 2v1081h372v-1081h-372z" />
<glyph unicode="&#xfb02;" horiz-adv-x="1492" d="M4 825v254h217q-3 48 -1.5 109t11.5 106q35 138 138 207q48 32 122 50.5t112 21t69 2.5q80 0 188 -27l-16 -241q-70 14 -94 14q-45 0 -82 -21q-26 -15 -41.5 -38.5t-21.5 -58t-7.5 -57t-1.5 -61.5h266v-260h-264v-825h-375v825h-219zM1008 2v1550h370v-1550h-370z" />
</font>
</defs>
</svg>
