<?xml version="1.0" standalone="no"?>
<!DOCTYPE svg PUBLIC "-//W3C//DTD SVG 1.1//EN" "http://www.w3.org/Graphics/SVG/1.1/DTD/svg11.dtd" >
<svg xmlns="http://www.w3.org/2000/svg" xmlns:xlink="http://www.w3.org/1999/xlink" version="1.1">
<metadata></metadata>
<defs>
<font id="frutiger_bqregular" horiz-adv-x="1366" >
<font-face units-per-em="2048" ascent="1638" descent="-410" />
<missing-glyph horiz-adv-x="555" />
<glyph horiz-adv-x="0" />
<glyph horiz-adv-x="682" />
<glyph unicode=" "  horiz-adv-x="555" />
<glyph unicode="&#x09;" horiz-adv-x="555" />
<glyph unicode="&#xa0;" horiz-adv-x="555" />
<glyph unicode="!" horiz-adv-x="468" d="M160 1436h235l-30 -1033h-177zM170 2v219h219v-219h-219z" />
<glyph unicode="&#x22;" horiz-adv-x="811" d="M109 1391q-4 42 0 65q9 37 40 57.5t70 20.5q32 0 59.5 -17t36.5 -47q7 -26 4 -55l-83 -526h-48zM494 1391q-6 42 0 65q9 37 39 57.5t69 20.5q33 0 61 -17.5t37 -46.5q5 -21 2 -55l-81 -526h-48z" />
<glyph unicode="#" d="M86 469v158h305l33 221h-291v158h311l64 438h164l-64 -438h226l65 438h160l-62 -438h283v-158h-303l-33 -221h285v-158h-307l-68 -469h-162l68 469h-228l-67 -469h-166l72 469h-285zM553 627h229l31 221h-227z" />
<glyph unicode="$" horiz-adv-x="1067" d="M68 1065q0 89 55 182q30 49 67.5 83.5t88 56.5t91 33.5t107.5 25.5v172h103v-168q123 -11 179.5 -21.5t162.5 -44.5l-19 -188q-104 43 -155.5 57t-163.5 27v-436q79 -27 123 -45q305 -121 305 -373q0 -126 -69 -232t-183 -159q-10 -5 -20 -9.5t-21.5 -8t-19.5 -6 t-21 -5.5l-19.5 -4.5t-21.5 -4t-20 -3t-22 -3t-22 -3.5v-181h-108v177q-130 7 -192 18.5t-187 50.5l16 205q111 -50 170.5 -64.5t190.5 -27.5v504q-201 83 -260 129q-62 46 -98.5 118t-36.5 148zM276 1079q0 -28 21 -69q26 -47 68 -74.5t104 -50.5l-2 385q-60 -18 -99 -40 t-65 -65q-27 -47 -27 -86zM569 166l62 18q104 39 145 115q25 45 25 94q0 52 -27 99q-32 55 -80 85.5t-125 59.5v-471z" />
<glyph unicode="%" horiz-adv-x="1705" d="M53 981v84q10 212 119 317q78 78 188 78q94 0 172 -65q79 -65 107.5 -158t28.5 -217q0 -131 -20 -229t-83 -173q-75 -92 -198 -92q-61 0 -119 25q-154 67 -187 293q-8 54 -8 137zM201 991q-4 -202 65 -293q36 -51 92 -51q57 0 93 43q71 84 71 307q0 80 -12 154 q-18 105 -70 149q-41 33 -80 33q-32 0 -61 -18.5t-45 -46.5q-50 -77 -53 -277zM465 2l647 1446h123l-655 -1446h-115zM1030 479q2 86 10.5 145.5t39 126t83.5 107.5q79 60 172 60q151 0 234 -136q31 -49 47 -110t19 -106.5t3 -119.5q0 -70 -3.5 -117t-15.5 -105.5 t-40 -104.5t-72 -82q-84 -62 -172 -62q-150 0 -237 140q-48 77 -60.5 163.5t-7.5 200.5zM1178 457q-4 -152 28 -244q17 -48 45 -76q37 -37 80 -37q85 0 125.5 91.5t40.5 252.5q0 107 -22 199q0 1 -2.5 9.5t-4 13.5t-5.5 15.5t-7.5 18t-9.5 18t-12.5 19t-15.5 17.5t-19 16 q-35 21 -66 21q-57 0 -100 -58q-55 -78 -55 -276z" />
<glyph unicode="&#x26;" horiz-adv-x="1323" d="M57 410q0 133 80 235q46 55 102 91t142 77q-52 64 -79 102t-51 100.5t-24 127.5q0 74 33 133q44 89 134.5 136.5t193.5 47.5q145 0 248 -71q120 -83 120 -236q0 -165 -165 -291q-25 -20 -136 -88l283 -338q6 13 18.5 38.5t18.5 37.5q20 48 31.5 95t15.5 78.5t10 98.5h187 q-17 -177 -42.5 -257.5t-113.5 -235.5l242 -291h-254l-115 143q-7 -7 -22 -18.5t-19 -15.5q-31 -24 -56.5 -40t-72 -39t-105 -35.5t-124.5 -12.5q-132 0 -247.5 55t-176.5 158q-56 101 -56 215zM274 414q0 -72 25 -117q21 -47 56.5 -79.5t75.5 -45.5t67 -17.5t51 -4.5 q45 0 88 12q55 16 94 42.5t92 76.5l-338 411q-43 -24 -68.5 -41t-56 -43t-47 -51.5t-28 -62t-11.5 -80.5zM424 1137q0 -41 23.5 -91.5t46 -82t57.5 -74.5q90 61 127 92q88 70 88 162q0 37 -16 69q-28 48 -75 66t-81 18t-66 -14q-45 -18 -74.5 -58t-29.5 -87z" />
<glyph unicode="'" horiz-adv-x="425" d="M109 1391q-4 42 0 65q9 37 40 57.5t70 20.5q32 0 59.5 -17t36.5 -47q7 -26 4 -55l-83 -526h-48z" />
<glyph unicode="(" horiz-adv-x="598" d="M57 651q0 138 35 281q28 115 79.5 232t97.5 195.5t130 209.5h185q-69 -130 -91.5 -174t-58 -123t-76.5 -182q-44 -139 -64 -231.5t-20 -205.5q0 -93 20.5 -200.5t41.5 -176.5t63 -192l176 -360l-176 2q-44 69 -114 188q-53 92 -99 186q-46 121 -68.5 187t-41.5 165 t-19 199z" />
<glyph unicode=")" horiz-adv-x="598" d="M14 1563h189q129 -204 200 -349q138 -282 138 -569q0 -360 -213 -731q-63 -105 -129 -197l-183 2q6 10 27 46.5t26 45.5t22 39.5t26 48.5t25 51t32.5 69.5t36.5 82.5l35 95q86 225 86 450q0 114 -18.5 203.5t-61.5 226.5q-48 115 -81.5 189t-53.5 112t-64 117z" />
<glyph unicode="*" horiz-adv-x="937" d="M41 1065l51 168l316 -123l-41 326h176l-23 -324l303 133l58 -170l-328 -74l227 -241l-141 -109l-174 277l-170 -285l-145 96l219 258z" />
<glyph unicode="+" d="M88 514v164h510v510h164v-510h516v-164h-516v-514h-164v514h-510z" />
<glyph unicode="," horiz-adv-x="382" d="M-25 -270l131 503h232l-182 -503h-181z" />
<glyph unicode="-" horiz-adv-x="641" d="M47 461v151h528v-151h-528z" />
<glyph unicode="." horiz-adv-x="382" d="M76 4v225h227v-225h-227z" />
<glyph unicode="/" horiz-adv-x="724" d="M4 2l537 1428h164l-539 -1428h-162z" />
<glyph unicode="0" horiz-adv-x="1110" d="M66 739q0 64 2 95q18 416 237 561q102 73 242 73q42 0 83.5 -8t96 -30t108 -71.5t95.5 -121.5q60 -104 81 -222.5t21 -269.5q0 -152 -18 -274q-40 -272 -195 -397q-120 -94 -268 -94q-42 0 -83 8t-94.5 29t-106 68.5t-93.5 117.5q-65 113 -87.5 244.5t-20.5 291.5z M276 709q1 -144 23.5 -259.5t52.5 -173.5q25 -50 65 -82.5t72 -42.5t60 -10q43 0 95 27.5t93 91.5q40 64 66 178.5t26 270.5q0 206 -45 366q-27 97 -66.5 144t-92.5 67q-28 14 -76 14q-67 0 -123 -44t-86 -109q-28 -61 -47.5 -178.5t-16.5 -259.5z" />
<glyph unicode="1" horiz-adv-x="1110" d="M154 1161l358 285h178v-1440h-205q4 426 0 641q-4 250 -2 375q1 33 4.5 98.5t4.5 98.5l-226 -191z" />
<glyph unicode="2" horiz-adv-x="1110" d="M78 2l2 223q161 135 237 208t222 233q41 49 68 84.5t63 91t54.5 109t18.5 102.5q0 50 -20 96q-20 48 -57.5 79.5t-81.5 43t-70 15t-51 3.5q-68 0 -136.5 -19.5t-187.5 -72.5l-24 180q146 51 224.5 69.5t154.5 18.5q37 0 83 -5t128 -33t137 -76q46 -42 85.5 -115.5 t39.5 -177.5q0 -44 -9.5 -86t-31 -89t-37 -75t-47.5 -82q-86 -110 -129 -158.5t-138 -142.5l-296 -262h712v-162h-913z" />
<glyph unicode="3" horiz-adv-x="1110" d="M57 39l13 184q82 -27 123 -39.5t110 -25.5t127 -13q191 0 268 125q41 61 41 136q-5 156 -166 225q-46 20 -102.5 29t-108 8.5t-110.5 -0.5v172q67 0 97.5 0.5t83 6t93.5 17.5q88 27 144.5 80.5t56.5 138.5q0 62 -37 115q-77 107 -264 107q-67 0 -140 -17t-98.5 -27 t-72.5 -30l-13 174q242 61 379 61q104 0 191 -28q124 -38 197 -128.5t73 -219.5q0 -52 -14 -98t-33.5 -76t-46.5 -56t-46.5 -39t-41.5 -24q-58 -26 -133 -43q4 0 26.5 -5t54.5 -15.5t52 -20.5q94 -45 145 -132.5t51 -195.5q0 -196 -161 -307q-144 -98 -385 -98 q-35 0 -68.5 2t-65.5 7t-55.5 8.5t-53 11t-42 10.5t-39 11t-29.5 9z" />
<glyph unicode="4" horiz-adv-x="1110" d="M33 319v175l571 952h244v-959h178v-168h-174v-317h-205v317h-614zM233 485h420l11 762z" />
<glyph unicode="5" horiz-adv-x="1110" d="M141 27l11 186q92 -36 155 -53t135 -17q90 0 160 31q54 22 92 58.5t55 77t24 72t7 58.5q0 26 -5 55t-26 74.5t-57 79.5q-99 90 -276 90q-57 0 -110 -9.5t-150 -37.5l10 748h792v-166h-600l-12 -385q121 18 186 18q175 0 297 -94q28 -21 53 -47.5t54.5 -70t47 -104.5 t17.5 -130q0 -96 -35 -187t-100 -153q-50 -48 -117.5 -80.5t-134.5 -44.5t-104.5 -15.5t-69.5 -3.5q-68 0 -126 9.5t-173 40.5z" />
<glyph unicode="6" horiz-adv-x="1110" d="M84 631q0 325 94 530q31 65 86 133q50 58 119 101q64 35 135 51q78 20 166 20q76 0 140.5 -12.5t156.5 -40.5l-31 -180q-60 24 -87.5 34t-76 20.5t-94.5 10.5q-112 0 -198 -55q-68 -42 -115 -119q-32 -51 -52.5 -115t-27.5 -109.5t-16 -125.5q7 6 19.5 17.5t22.5 21 t19 16.5q106 91 254 91q25 0 54 -3.5t73.5 -13t90.5 -33.5t83 -59q30 -29 58 -69.5t54.5 -117.5t26.5 -161q0 -156 -84 -285q-125 -198 -391 -198q-114 0 -197.5 39.5t-150.5 127.5q-131 172 -131 484zM304.5 436q2.5 -37 9 -76t33.5 -86t69 -81q66 -54 145 -54q65 0 117 31 q71 40 109 117.5t38 167.5q0 72 -22 125q-30 78 -93.5 128t-142.5 50q-52 0 -108 -25q-45 -21 -77 -56t-46.5 -75t-20.5 -65t-8 -50q-5 -14 -2.5 -51z" />
<glyph unicode="7" horiz-adv-x="1110" d="M78 1278v166l913 -2v-94q0 -2 1 -13.5t1 -25t-2 -27.5q-2 -12 -5.5 -23.5t-9 -26t-7.5 -22.5l-518 -1208h-228l561 1276h-706z" />
<glyph unicode="8" horiz-adv-x="1110" d="M51 387q0 80 37 158q21 46 49.5 81t70.5 63.5t72.5 44.5t90.5 44q-73 30 -117 58q-66 43 -104.5 116t-38.5 156q0 36 7.5 75t38.5 96t83 95q119 92 338 92q249 0 378 -159q70 -90 70 -187q0 -75 -31 -137q-17 -38 -41.5 -69.5t-59 -58t-63 -44t-73.5 -41.5 q107 -55 145 -84q66 -54 105 -133.5t39 -165.5q0 -105 -56 -203q-120 -207 -432 -207q-271 0 -412 166q-96 119 -96 244zM260 383q4 -54 27 -98q37 -74 109.5 -115t156.5 -41q47 0 96 14q23 6 49 18.5t59.5 38t55 69.5t21.5 100q0 86 -54 153q-19 25 -46 47.5t-46 36t-59 33 t-52.5 24.5t-58.5 25q-44 -24 -71.5 -40t-61.5 -41.5t-58 -56t-42 -67.5q-25 -58 -25 -100zM324 1120q0 -38 13 -69.5t33 -56.5t61 -53t79 -49.5t104 -55.5q46 32 62 45q141 112 141 233q0 64 -51 117q-76 82 -197 82q-45 0 -82 -10q-21 -6 -40.5 -15t-51.5 -30t-51.5 -56.5 t-19.5 -81.5z" />
<glyph unicode="9" horiz-adv-x="1110" d="M59 991q0 95 35 180q54 137 171 215t263 78q39 0 83 -6t117 -37.5t124 -85.5q160 -168 160 -557q0 -361 -140 -569q-39 -70 -108 -125q-131 -109 -348 -109q-76 0 -140 12.5t-153 39.5l29 178q57 -22 86 -32t76.5 -20t91.5 -10q190 0 301 156q36 54 59 123t30.5 117 t16.5 135q-49 -49 -63 -60q-104 -88 -246 -88q-41 0 -83.5 6t-113 37t-121.5 84q-60 63 -93.5 154t-33.5 184zM270 1018q-8 -185 117 -279q61 -49 141 -49q53 0 109 23q75 35 115.5 113.5t40.5 170.5q0 53 -21 123q-31 80 -96.5 132.5t-147.5 52.5q-37 0 -84 -17 q-53 -19 -90.5 -57.5t-53.5 -83t-22.5 -74.5t-7.5 -55z" />
<glyph unicode=":" horiz-adv-x="425" d="M145 6v225h228v-225h-228zM145 834v223h230v-223h-230z" />
<glyph unicode=";" horiz-adv-x="425" d="M41 -279l129 504h231l-182 -504h-178zM152 829v224h223v-224h-223z" />
<glyph unicode="&#x3c;" d="M0 635v176l1366 641v-176l-1161 -553l1161 -553v-176z" />
<glyph unicode="=" d="M0 332v160h1366v-160h-1366zM0 700v162h1366v-162h-1366z" />
<glyph unicode="&#x3e;" d="M0 -6v176l1161 553l-1161 553v176l1366 -641v-176z" />
<glyph unicode="?" horiz-adv-x="980" d="M113 1395q4 1 30.5 9.5t45 14t54 14t65.5 14t70 9.5t77 4q154 0 262 -59q180 -104 180 -303q0 -50 -14 -103q-14 -55 -42.5 -107t-56 -86t-73.5 -87q-11 -12 -17 -19q-1 -1 -10 -11.5t-19 -23t-22.5 -28.5t-24.5 -34.5t-20 -35.5q-15 -29 -22 -60.5t-11 -94.5h-180 q2 96 15 153.5t57 124.5q26 41 84.5 107.5t79.5 95.5q65 93 65 184q0 47 -16 80q-25 50 -82.5 86.5t-151.5 36.5q-49 0 -108 -13t-97.5 -26t-103.5 -37zM369 4v219h213v-219h-213z" />
<glyph unicode="@" horiz-adv-x="1835" d="M141 481q0 52 7 108.5t25.5 138.5t61 174.5t105.5 176.5q33 45 71.5 87t108.5 98t147.5 96.5t188.5 69t231 28.5q218 0 371 -104q32 -21 61 -47.5t62 -70.5t57 -94.5t40 -122t16 -151.5q0 -64 -8 -120q-43 -302 -213 -478q-127 -127 -254 -127q-67 0 -104.5 31t-51.5 70 q-12 35 -14 73q-4 -5 -52 -63q-114 -109 -239 -109q-62 0 -113 25q-156 76 -156 307q0 144 60 283.5t168 222.5q100 78 205 76q129 0 202 -109q15 -22 33 -63l31 127h139l-67 -307q-4 -20 -16.5 -79t-20.5 -98.5t-15 -90.5t-6 -83q0 -45 17 -67.5t45 -22.5q50 0 120 70 q29 31 58.5 76.5t61 111.5t51.5 155t20 183q0 129 -43 221q-31 71 -84 124t-103.5 79t-111 41t-94 18t-66.5 3q-167 0 -323 -74q-223 -107 -358.5 -326t-135.5 -467q0 -155 53 -272q52 -117 152.5 -198t217.5 -116.5t247 -35.5q295 0 551 184q55 40 135 115l65 -84 q-74 -76 -164 -137q-278 -191 -585 -191q-131 0 -262 37.5t-236 107.5q-87 61 -151 148q-138 182 -138 442zM651 485q0 -108 49 -157t115 -49q61 0 125 47q53 41 89.5 102.5t51 123t20 99.5t5.5 62q1 58 -15 102.5t-42.5 68t-55 35t-57.5 11.5q-62 -2 -125 -49 q-77 -60 -118.5 -174t-41.5 -222z" />
<glyph unicode="A" horiz-adv-x="1449" d="M-10 6l610 1438h219l627 -1442h-238l-151 367h-699l-149 -363h-219zM426 532l567 3q-58 143 -137 333q-44 102 -84 207q-29 72 -67 193q-61 -186 -70 -209q-15 -40 -111 -273q-9 -23 -98 -254z" />
<glyph unicode="B" horiz-adv-x="1150" d="M131 2v1436h438q69 -4 115 -11q169 -19 264 -153q64 -88 64 -190v-9q0 -91 -43.5 -168t-120.5 -119q-39 -22 -133 -49q94 -19 143 -41q62 -28 104.5 -71.5t61 -90.5t25 -82.5t6.5 -68.5q0 -57 -17 -109.5t-44.5 -89.5t-48.5 -58.5t-42 -37.5q-37 -29 -77.5 -47t-91 -26 t-84.5 -10.5t-97 -4.5h-422zM328 668l2 -498q69 -3 125 -3q51 1 91 3q86 4 142 27q47 18 79.5 46t47.5 59t21 57t6 51q0 53 -25 100q-58 113 -209 141q-66 11 -280 17zM328 1276l2 -442h196q82 3 123 16q65 22 109.5 81.5t44.5 125.5q0 47 -21 88q-54 102 -188 123 q-49 8 -266 8z" />
<glyph unicode="C" horiz-adv-x="1236" d="M59 717q0 40 5 85.5t19 114t48.5 143t85.5 136.5q103 127 267 197.5t339 70.5q68 0 135 -12t113 -26.5t127 -43.5l-20 -194q-74 35 -113.5 51.5t-99.5 30.5t-123 14q-116 0 -228.5 -43t-187.5 -121q-69 -71 -105 -176t-36 -217q0 -203 108 -346q20 -28 45.5 -54t67.5 -57 t90 -53.5t116 -37.5t142 -15q105 0 293 49l4 -197q-98 -26 -159 -31q-45 -3 -107 -3q-153 0 -275.5 30t-191.5 69t-133 95q-74 68 -123.5 149.5t-69.5 160t-26.5 130t-6.5 101.5z" />
<glyph unicode="D" horiz-adv-x="1409" d="M131 4v1436h270q42 2 84 2l84 -2q20 -2 162 -17q156 -35 246 -84q162 -90 257 -259.5t95 -360.5q0 -96 -24 -189q-9 -33 -22.5 -68t-42.5 -88t-65 -100t-93.5 -96.5t-125.5 -83.5q-115 -58 -264 -78q-149 -13 -272 -16h-21q-67 0 -268 4zM330 1266l2 -1088q46 -2 93 -2 l93 2q143 4 246.5 30.5t189.5 102.5q82 72 122 176.5t40 223.5q-1 96 -25 178.5t-63.5 138.5t-75.5 91t-73 59q-45 30 -103 49.5t-102 28.5q-44 10 -119 12q-62 2 -96 2h-13q-34 0 -116 -4z" />
<glyph unicode="E" horiz-adv-x="1024" d="M131 0v1442h799v-176h-592v-432h549v-177h-551v-477h608v-180h-813z" />
<glyph unicode="F" horiz-adv-x="937" d="M131 4v1440h760v-174h-553v-432h532v-176h-534v-658h-205z" />
<glyph unicode="G" horiz-adv-x="1409" d="M63 723q0 337 205 530q38 36 85.5 68.5t118.5 67t166.5 55.5t201.5 22q71 0 144 -10.5t122 -22t139 -36.5l-14 -201q-111 52 -185 74t-174 22q-229 0 -389 -123q-97 -75 -149.5 -193t-52.5 -251q0 -145 61.5 -273t173.5 -200q69 -44 162 -71t176 -27q63 0 213 30v422 h-307v168h510v-729q-170 -40 -259.5 -54t-179.5 -14q-174 0 -323 58q-54 21 -107 52t-116.5 89t-110.5 130t-79 181t-32 236z" />
<glyph unicode="H" d="M131 4v1438h203v-600h690v600h203v-1446h-201v668h-688v-660h-207z" />
<glyph unicode="I" horiz-adv-x="468" d="M133 2v1434h201v-1434h-201z" />
<glyph unicode="J" horiz-adv-x="724" d="M16 10l2 174q72 -24 148 -24q84 0 132 42.5t64 94.5q11 33 15 115v1030h205v-1059q-5 -94 -21.5 -157t-62.5 -120q-105 -124 -289 -124q-71 0 -193 28z" />
<glyph unicode="K" horiz-adv-x="1236" d="M133 2v1434h203v-650l614 652h293q-35 -30 -207 -189q-143 -143 -213 -215q-16 -16 -22 -24l-252 -252l737 -758h-299q-168 173 -369 391q-122 135 -284 326v-715h-201z" />
<glyph unicode="L" horiz-adv-x="1024" d="M131 2v1436h207v-1258h600v-178h-807z" />
<glyph unicode="M" horiz-adv-x="1835" d="M129 4v1438l338 -2q166 -413 270 -695q87 -225 183 -520q158 462 200 576q76 215 240 641h332v-1442h-201q-2 200 -1.5 398.5t1.5 396.5q8 374 16 557q-122 -360 -143 -418q-28 -79 -83.5 -224.5t-70.5 -185.5q-66 -174 -192 -522h-203q-137 369 -201 537 q-144 371 -186 487q-7 18 -111 326v-1348h-188z" />
<glyph unicode="N" horiz-adv-x="1409" d="M133 2v1436h270q187 -326 289 -500q189 -313 246 -420q58 -111 149 -323q-13 358 -16 643q0 200 4 598h189v-1436h-254q-123 218 -273 473q-50 86 -176 291q-86 144 -133.5 240.5t-116.5 263.5q15 -420 17 -688q0 -96 -1 -288.5t-1 -289.5h-193z" />
<glyph unicode="O" horiz-adv-x="1536" d="M66 745q9 309 176 500q68 74 157 127q164 94 355 94q154 -2 296.5 -61t235.5 -166q28 -34 53 -76t52 -104.5t43 -148.5t16 -181q0 -120 -25.5 -225.5t-68.5 -180t-85 -124t-87 -84.5q-178 -135 -432 -135q-174 0 -316 65q-131 61 -218 172.5t-122 243.5q-31 116 -31 246 q0 19 1 38zM279 717q0 -120 28 -215q46 -162 163.5 -263.5t281.5 -101.5q199 0 327 137q63 71 112.5 183t49.5 266q0 36 -4 76.5t-17 109.5t-47.5 139t-85.5 123q-60 60 -137 93q-90 43 -196 43q-176 0 -303 -129q-87 -87 -129.5 -207t-42.5 -254z" />
<glyph unicode="P" horiz-adv-x="1110" d="M131 4v1436q146 2 234 2q66 0 100 -1q78 -3 231 -18q1 0 29 -7t60 -17t55 -21q99 -51 154 -149t55 -213q0 -106 -47 -200t-132 -152q-43 -28 -99.5 -46.5t-104.5 -27.5q-46 -8 -116 -11q-52 -2 -87 -2h-21q-38 1 -108 3v-576h-203zM336 760q147 -6 149 -6 q104 0 170.5 19.5t118.5 84.5q57 73 57 160q0 25 -5.5 50t-19.5 55t-43.5 58t-72.5 48q-74 37 -172 44q-41 3 -79 3q-54 0 -103 -6v-510z" />
<glyph unicode="Q" horiz-adv-x="1536" d="M66 709q0 266 127 458q78 116 192 189q167 112 385 112q184 0 343.5 -86.5t246.5 -244.5q92 -174 92 -406q0 -112 -23.5 -211.5t-62.5 -171t-76 -119t-78 -84.5q-41 -38 -141 -102l344 -311h-268l-277 256q-98 -8 -145 -8q-126 0 -249.5 47t-213.5 135 q-97 100 -146.5 247t-49.5 300zM281 711q3 -184 64.5 -303.5t143.5 -182.5q109 -88 261 -88q40 0 104 13q129 24 221 120q63 65 116.5 182t53.5 271q0 219 -108 383q-42 63 -95.5 106.5t-106.5 62.5t-93 26.5t-78 7.5q-72 0 -172 -37q-43 -20 -83.5 -47.5t-83.5 -76 t-74.5 -107.5t-50.5 -145q-19 -82 -19 -175v-10z" />
<glyph unicode="R" horiz-adv-x="1236" d="M141 4v1440q58 -2 116 -2l116 2q22 0 61.5 1t71 1t59.5 -2q68 -2 176 -17q76 -18 113 -34q62 -29 105.5 -74t61.5 -92.5t25 -82.5t7 -67q0 -140 -80 -235q-26 -31 -64 -54.5t-65.5 -34t-81.5 -28.5q57 -31 79.5 -55t55.5 -84l270 -586h-237l-225 520q-11 20 -16 28 t-17.5 26t-25 27t-31.5 20t-44.5 17t-56.5 7q-55 2 -166 2v-643h-207zM346 825q131 0 197 2q83 0 143 19q60 20 97 59.5t48 74t11 67.5q0 37 -20 84.5t-70 87.5q-39 31 -83.5 41t-107.5 10l-107 -1h-60q-48 0 -48 1v-445z" />
<glyph unicode="S" horiz-adv-x="980" d="M53 45l29 191q71 -30 106 -43.5t93.5 -27t113.5 -13.5q173 0 244 112q35 58 35 125q0 68 -33.5 117.5t-95.5 91.5q-46 30 -143 77.5t-142 76.5q-26 17 -44.5 32t-48.5 45.5t-52.5 73.5t-34.5 96q-10 45 -10 91q0 140 92 241q125 135 364 135q28 0 56.5 -2.5t51.5 -5.5 t50 -8.5t43 -9.5t40 -11t32.5 -9.5t29 -9.5t21.5 -7l-31 -180q-178 71 -297 71q-151 0 -207 -106q-26 -42 -26 -101q0 -33 16.5 -64t32 -47.5t51.5 -49.5l340 -205q46 -33 82 -78q76 -93 76 -233q0 -60 -23 -140.5t-86 -148.5q-44 -47 -101.5 -78.5t-115.5 -43.5t-93 -15.5 t-67 -3.5q-57 0 -122.5 10.5t-107.5 21.5t-118 33z" />
<glyph unicode="T" horiz-adv-x="1110" d="M-4 1262v176h1104v-176h-449v-1258h-207v1258h-448z" />
<glyph unicode="U" d="M121 629v813h207v-856q4 -59 6.5 -87t11.5 -76.5t22 -78t38 -64t59 -61.5q85 -69 213 -69q184 0 278 137q28 41 45 86t23.5 100.5t8 92t1.5 102.5v774h201v-891q-6 -79 -6 -80q-13 -188 -119 -315q-26 -31 -59 -58t-83.5 -55.5t-121.5 -45.5t-152 -17q-72 0 -112 8 q-189 20 -312 147q-75 77 -108 174q-15 47 -24 106.5t-11.5 99.5t-5.5 114z" />
<glyph unicode="V" d="M0 1438h227q59 -162 181 -486q17 -44 50 -131t50 -131q19 -50 35.5 -96t28.5 -79t24.5 -73.5t18.5 -60t16.5 -59.5t13.5 -50.5t14 -55t13 -52.5q70 229 108 340q35 100 156 418q35 91 99.5 264t94.5 250h222l-559 -1434h-248z" />
<glyph unicode="W" horiz-adv-x="1748" d="M0 1436h213l129 -529q82 -347 86 -368q35 -165 64 -355q36 254 61 379q14 80 78 395q16 80 88 480h287q18 -86 53.5 -258t52.5 -258q50 -220 90 -441q30 -161 49 -297q34 222 54 310q10 45 22.5 96.5t28 112.5t24.5 96q16 69 76 338q66 264 76 301h205 q-92 -338 -103 -385q-22 -85 -63 -255t-62 -255q-46 -194 -137 -547l-252 2q-91 449 -100 489q-68 325 -86 420q-36 179 -70 410q-24 -168 -57 -373q-32 -163 -90 -446l-48 -249l-48 -249h-259z" />
<glyph unicode="X" d="M20 6l537 733l-498 701h238l381 -547l393 549h234l-492 -682l528 -758h-243l-410 619l-424 -615h-244z" />
<glyph unicode="Y" horiz-adv-x="1323" d="M-12 1442h256l420 -637l421 637h242l-567 -830v-612h-203v612z" />
<glyph unicode="Z" horiz-adv-x="1150" d="M61 2v184q199 279 299 430q35 51 116 172t126 185q122 172 225 307l-737 -6v162h961l-2 -172l-283 -412q-25 -36 -116 -172.5t-142 -210.5q-131 -182 -217 -299h770v-168h-1000z" />
<glyph unicode="[" horiz-adv-x="555" d="M141 -274v1841h398v-131h-213v-1577h211v-133h-396z" />
<glyph unicode="\" horiz-adv-x="724" d="M53 1446h164l455 -1446h-164z" />
<glyph unicode="]" horiz-adv-x="555" d="M23 -141h219v1573h-217v135h403v-1846h-405v138z" />
<glyph unicode="^" horiz-adv-x="1492" d="M291 688l385 758h158l368 -758h-198l-254 533l-263 -533h-196z" />
<glyph unicode="_" horiz-adv-x="1024" d="M-20 -281h1064v-161h-1064v161z" />
<glyph unicode="`" horiz-adv-x="555" d="M-233 1454h262l170 -272h-154z" />
<glyph unicode="a" horiz-adv-x="1024" d="M20 307q0 164 148 254q139 88 371 88q62 0 184 -8q0 117 -39 176q-27 40 -85 73.5t-144 33.5q-54 0 -110.5 -16.5t-91 -33t-99.5 -51.5v166q3 2 26 13.5l29 14.5t27.5 13t33 13.5t33.5 11t40 10.5t43 7t51.5 5.5t56.5 1.5q176 0 284 -80q52 -39 80 -86q28 -48 49 -174 v-739h-168v168q-78 -89 -133 -123q-95 -59 -231 -59q-230 0 -316 164q-39 72 -39 157zM225 303q0 -51 25 -88q17 -28 45 -46.5t58.5 -26t48.5 -9.5t34 -2q38 0 105 19q64 26 110.5 79.5t63.5 120.5q12 51 12 156q-73 6 -147 6q-146 0 -242 -47q-63 -31 -88 -74 q-25 -38 -25 -88z" />
<glyph unicode="b" horiz-adv-x="1193" d="M111 0v1550h194v-661q38 55 60 74q41 41 121.5 78.5t181.5 37.5q122 0 233 -67q47 -28 83 -65t69 -94t51 -141t18 -190q0 -232 -110 -368q-20 -25 -47 -49t-70.5 -54t-104 -48.5t-126.5 -18.5q-152 0 -275 88q-15 11 -30 23.5t-22.5 20t-25 25.5t-24.5 25v-166h-176z M307 557q-2 -23 -2 -45q0 -190 133 -297q79 -65 178 -65q83 0 148 43q75 48 117.5 150t42.5 206q0 125 -66 225q-91 139 -231 139q-82 0 -150 -41q-53 -29 -89.5 -75.5t-52.5 -96.5t-21.5 -82t-6.5 -61z" />
<glyph unicode="c" horiz-adv-x="894" d="M51 532q0 148 55 261q62 131 195.5 209.5t282.5 78.5q77 0 227 -39l-10 -172q-70 28 -107.5 36.5t-81.5 8.5q-74 0 -131 -24q-29 -11 -55.5 -26t-59 -44.5t-56.5 -66t-40 -92.5t-16 -121q0 -95 33 -176q40 -98 124 -155.5t191 -57.5q50 0 95.5 11t131.5 46l15 -170 q-87 -30 -145 -43.5t-126 -13.5q-118 0 -221 47q-39 17 -75.5 41.5t-79 68t-73.5 96t-52 130t-21 167.5z" />
<glyph unicode="d" horiz-adv-x="1193" d="M51 526q0 138 39 240q52 138 171.5 224.5t266.5 86.5q152 0 267 -84q20 -14 84 -78v637h196q2 -201 1.5 -402.5t-1.5 -404.5q-2 -170 -2 -298.5t2 -213.5q4 -154 8 -233h-184l-8 162q-55 -64 -78 -82q-44 -38 -121 -70.5t-176 -32.5q-67 0 -128 17.5t-104.5 45.5t-70 51 t-45.5 46q-117 135 -117 389zM255 482q1 -23 9 -67t23 -80t46.5 -77.5t76.5 -69.5q72 -47 153 -47q87 3 158 47q45 28 77.5 70t48.5 80t25.5 83t11 69t1.5 47q0 213 -156 323q-80 51 -156 51q-51 0 -117.5 -25t-117.5 -89q-80 -98 -82 -267q-2 -25 -1 -48z" />
<glyph unicode="e" horiz-adv-x="1067" d="M49 541q0 220 137 374q68 79 162 121q85 39 203 39q66 0 133 -16q147 -40 227 -162q55 -79 74 -166q20 -90 25 -254h-764q0 -1 4 -17.5l8 -33t10.5 -38.5t15 -44t17.5 -39q44 -77 128.5 -119.5t180.5 -42.5q55 0 113 15t96.5 31.5t104.5 48.5v-185q-131 -42 -200 -56.5 t-142 -14.5q-206 0 -340 114q-91 74 -142 196t-51 249zM246 627h565q-8 52 -15 81t-21.5 67t-38.5 65t-60 49q-65 39 -135 39q-56 0 -109 -25t-92 -67q-34 -39 -54.5 -88.5t-39.5 -120.5z" />
<glyph unicode="f" horiz-adv-x="724" d="M-2 907v150h246q0 117 6 176q6 73 23 127t43 87.5t53 53t63 33.5q67 27 160 27q32 0 133 -9l-12 -166q-63 13 -92 13q-45 0 -89 -19q-62 -30 -80 -100q-16 -64 -16 -193v-30h279v-150h-277v-903h-192v903h-248z" />
<glyph unicode="g" horiz-adv-x="1193" d="M51 522q0 264 137 416q31 31 66 59q119 86 264 86q94 0 167.5 -29t113.5 -63q32 -25 80 -92v164l184 -2v-770q-3 -300 -8 -344q-3 -28 -21 -111q-44 -105 -78 -149q-64 -81 -184 -119.5t-244 -38.5q-37 0 -75 3t-74.5 9.5t-64.5 11.5t-61.5 14.5t-49 14t-43.5 14t-29 9.5 l21 182q143 -57 213.5 -75.5t148.5 -18.5q120 1 182 27.5t103 82.5q36 48 53 109q15 58 15 111v7q-1 57 -3 122q-1 -1 -14.5 -16t-30 -31t-33.5 -29q-54 -43 -128 -66.5t-148 -23.5q-128 0 -242 69q-217 131 -217 467zM258 532q0 -254 152 -342q73 -38 149 -38q58 0 117 26 q32 16 62.5 41.5t62.5 67t51.5 104t19.5 137.5q0 89 -26 168q-22 66 -60 113.5t-81 70t-79.5 32.5t-70.5 10q-81 0 -158 -60q-139 -106 -139 -330z" />
<glyph unicode="h" horiz-adv-x="1150" d="M115 4v1546h192v-641q27 36 64 68q54 48 129.5 75t150.5 27q60 0 109 -14q69 -21 127.5 -65.5t89.5 -104.5q14 -27 24.5 -64.5t14 -58t10.5 -72.5l6 -698h-192q3 230 3 357q0 76 -1 116q-1 33 -11 209q-10 62 -26 102q-18 40 -46 67.5t-59.5 39.5t-54 16t-43.5 4 q-64 0 -122 -32t-97 -86q-27 -37 -42.5 -84t-20 -80t-9.5 -96v-531h-196z" />
<glyph unicode="i" horiz-adv-x="425" d="M100 1311v209h211v-209h-211zM113 2v1059h192v-1059h-192z" />
<glyph unicode="j" horiz-adv-x="425" d="M-113 -430l11 154h17.5h18t16.5 0.5t17.5 1.5t15.5 2.5t17.5 4t15.5 6.5t17 9q34 19 51 53t29 109v1151l194 -2q-2 -211 -2 -368.5t2 -262.5q6 -294 6 -295q0 -126 -14 -301q-15 -80 -33 -119q-13 -26 -32 -50t-50.5 -48.5t-79.5 -39.5t-106 -15q-35 0 -111 10zM102 1311 v211h213v-211h-213z" />
<glyph unicode="k" horiz-adv-x="1024" d="M113 4v1544h194v-927l432 438h262l-497 -463l557 -596h-275l-479 543v-539h-194z" />
<glyph unicode="l" horiz-adv-x="425" d="M113 4v1546h194v-1546h-194z" />
<glyph unicode="m" horiz-adv-x="1748" d="M111 4v1055h182l6 -152q8 8 21 23.5t24.5 28t22.5 22.5q101 96 245 96q160 0 242 -86q33 -33 78 -121q53 80 63 91q51 54 130.5 86t154.5 32q94 0 159.5 -40.5t102.5 -88.5q36 -43 54 -99t21 -98t3 -116v-637h-186v68l-9 581q-1 58 -5 90.5t-23 71t-56 61.5 q-49 37 -120 37q-54 0 -101.5 -29.5t-81.5 -78.5q-24 -35 -38.5 -80t-19 -77.5t-9.5 -90.5v-551h-197v649q-3 45 -7 73.5t-15 65.5t-33.5 62.5t-56.5 40.5q-45 18 -87 18q-73 0 -129 -43.5t-90 -115.5q-24 -48 -35 -106q-11 -55 -11 -105l1 -119v-418h-200z" />
<glyph unicode="n" horiz-adv-x="1150" d="M111 4v1057h184v-152q3 3 15.5 18t29 31.5t33.5 30.5q56 44 131.5 68t150.5 24q194 0 308 -166q32 -50 47.5 -111.5t17.5 -102.5t2 -123v-576h-192l-7 682q0 1 -2.5 15.5t-4 23t-6.5 26t-10 30t-14 29.5t-19.5 30t-26 26t-33.5 23q-50 28 -113 28q-46 -1 -87.5 -16 t-70 -39t-45 -42t-28.5 -36q-39 -57 -50.5 -120t-13.5 -156v-502h-196z" />
<glyph unicode="o" horiz-adv-x="1193" d="M51 528q0 32 5.5 72t19.5 96.5t47.5 117t81.5 108.5q73 74 176 114.5t213 40.5q108 0 205 -37q84 -32 147 -86.5t96 -109t53.5 -119.5t25.5 -108.5t5 -84.5q0 -126 -47 -235q-28 -69 -70.5 -123t-90.5 -87t-96 -56t-97.5 -33t-83.5 -14t-66 -4q-33 0 -68.5 4t-90 16.5 t-112 43.5t-103.5 77q-49 49 -82 110.5t-46.5 122t-17.5 99t-4 75.5zM258 541v-22q0 -231 162 -333q74 -47 164 -47q84 0 157 43q60 34 100 87.5t55.5 111.5t20.5 94.5t5 69.5q0 232 -166 332q-84 47 -160 47q-44 0 -104 -21q-37 -14 -72 -38.5t-72.5 -66t-61.5 -108.5 t-28 -149z" />
<glyph unicode="p" horiz-adv-x="1193" d="M104 1063h185v-193q65 82 96 111q109 98 277 98q67 0 127.5 -16t104 -41.5t70 -47t46.5 -42.5q120 -137 120 -408q0 -313 -215 -461q-109 -81 -253 -81q-171 8 -275 96q-41 37 -90 115l6 -627h-188q-4 496 -4 743q0 64 3 227q1 116 1 195v57q0 22 -11 275zM307 559v-23 q0 -218 144 -331q80 -58 167 -58q57 0 125 27q62 30 103.5 87t57.5 121.5t21 102.5t5 68q0 62 -15 117q-28 103 -105 176.5t-175 73.5q-74 0 -146 -39q-55 -30 -93.5 -77t-56 -99t-24 -83.5t-8.5 -62.5z" />
<glyph unicode="q" horiz-adv-x="1193" d="M51 512q0 70 12 141q41 240 213 348q122 78 267 78q61 0 123 -18q71 -21 117.5 -61t109.5 -117v180h178v-1503h-192v598q-17 -20 -74 -76q-45 -37 -120 -67.5t-171 -30.5q-160 0 -285 102q-178 144 -178 426zM258 535q-1 -29 1 -59t12 -80t39 -98.5t75 -84.5 q81 -63 176 -63q78 0 150 40q39 22 69.5 54t48 68t29 69t16 67.5t6 53.5t1.5 37q0 123 -60 221q-41 67 -108 109t-140 42q-67 0 -124 -28q-184 -90 -191 -348z" />
<glyph unicode="r" horiz-adv-x="724" d="M104 1057h185l10 -176q28 46 59 82q90 108 242 108q22 0 129 -10v-187q-75 25 -133 25q-130 -3 -213 -123q-37 -55 -51 -113t-21 -147v-512h-198v418q0 44 1 150q1 71 1 128q-1 29 -1 55q0 77 -3 150q-1 23 -3.5 74t-3.5 78z" />
<glyph unicode="s" horiz-adv-x="768" d="M51 49l15 176q58 -27 85.5 -38.5t74.5 -24t89 -12.5q92 0 139.5 44t47.5 97q0 48 -37 92q-10 10 -25 19.5t-40 22.5t-29 15q-84 46 -131 74q-77 46 -109 80q-68 73 -68 190q0 79 35 142q42 76 130.5 115.5t189.5 39.5q42 0 91.5 -7.5t76.5 -14.5t90 -23l-14 -164 q-55 19 -77.5 26.5t-65 16.5t-79.5 9q-109 0 -153 -66q-21 -35 -21 -63q1 -29 14.5 -53.5t41.5 -46t45.5 -32t52.5 -28.5q14 -8 60 -31t71 -37q60 -35 90 -65q72 -78 72 -201q0 -90 -41 -158q-45 -75 -135.5 -116t-190.5 -41q-58 0 -119.5 13t-175.5 50z" />
<glyph unicode="t" horiz-adv-x="768" d="M-2 909v148h240v243l192 64v-307h279v-148h-279v-581q8 -58 16 -82q39 -103 154 -103q38 0 119 27l-2 -164q-125 -22 -178 -22q-146 0 -226 86q-39 42 -55 92q-16 43 -20 155v592h-240z" />
<glyph unicode="u" horiz-adv-x="1150" d="M106 412v645h197v-682q6 -55 23 -96q17 -42 45.5 -70.5t60.5 -40.5t55.5 -16.5t44.5 -4.5q124 0 207 103q40 49 56.5 102t27.5 135l8 572h195v-1057h-176l-8 158q-1 -1 -14 -16t-30 -33t-32 -31q-123 -98 -279 -98q-174 7 -280 120q-57 61 -75.5 129t-25.5 181z" />
<glyph unicode="v" horiz-adv-x="980" d="M-4 1057h205l293 -864l297 866h190l-379 -1057h-227z" />
<glyph unicode="w" horiz-adv-x="1705" d="M6 1057h207q21 -67 60.5 -203t60.5 -203q61 -189 84 -274q24 -82 47 -193l272 875h224q79 -254 114 -354q23 -69 52.5 -154t39.5 -116.5t27 -97.5t39 -167q30 138 61 250q15 53 33 111.5t42 130.5t36 110q61 214 82 287h199l-349 -1059h-221q-74 233 -112 346 q-80 238 -97 295q-25 86 -65 258q-56 -226 -109 -395q-32 -110 -166 -500h-219z" />
<glyph unicode="x" horiz-adv-x="1024" d="M10 4l377 559l-348 492h231l246 -371l240 375h211l-342 -506l374 -551h-239l-262 414l-262 -412h-226z" />
<glyph unicode="y" horiz-adv-x="980" d="M-6 1061l209 -2q29 -86 121 -354q16 -44 46.5 -124t35.5 -94q34 -87 50 -145t36 -158q64 214 129 406q41 123 167 473l197 -2q-199 -546 -223 -610q-123 -338 -135 -371q-47 -136 -66.5 -183t-81.5 -165q-38 -57 -61 -80q-90 -90 -236 -90q-55 0 -127 16l13 154 q1 0 18 -4t35.5 -6.5t36.5 -2.5q81 0 141 60q23 22 43 57.5t28.5 58t26.5 72.5z" />
<glyph unicode="z" horiz-adv-x="937" d="M35 2v168l616 741h-592v148h807v-164l-614 -743h635v-150h-852z" />
<glyph unicode="{" horiz-adv-x="724" d="M141 506v12q53 12 84 43q16 16 28 40.5t18 44.5t9.5 54.5t4.5 50t1.5 53.5t0.5 44v344q0 1 0.5 17.5t1 26t3 31t6 37t10.5 38t15.5 40t22 37.5t30.5 35.5t39.5 29.5t49.5 23q13 5 26.5 8.5t24.5 5.5t31.5 4t32.5 2.5t41.5 2t46.5 2.5l-2 -12q-6 -2 -18 -5.5t-22 -6.5 t-18 -7q-100 -34 -131 -131q-4 -13 -6.5 -26t-4 -22.5t-2.5 -29.5t-1.5 -29t-1 -40t-0.5 -45v-201q0 -204 -7 -258q-9 -68 -36 -115q-7 -11 -14.5 -21t-16.5 -18t-16 -14.5t-17.5 -12t-16 -9t-16 -7.5t-14 -5t-13.5 -4l-9 -3q23 -9 33 -13t36 -19t45 -37.5t33 -53.5 q6 -12 10.5 -24t7.5 -28t5.5 -27t4 -32t2 -32t1 -39t0.5 -40v-48v-51v-226q2 -102 8 -146t29 -85q14 -25 30.5 -42.5t42 -30t42 -18.5t53.5 -18l-2 -12q-14 1 -40.5 2t-39.5 2q-101 5 -160 35q-68 36 -102 104q-9 19 -16 42t-10.5 40t-6 46t-3 40.5t-1 46t-0.5 41.5v265 q0 11 0.5 29t0.5 32t-1 27q0 186 -103 247q-29 15 -43 19z" />
<glyph unicode="|" horiz-adv-x="468" d="M152 -512v2044h165v-2044h-165z" />
<glyph unicode="}" horiz-adv-x="724" d="M59 -500q80 19 120 50q55 42 73 116q9 38 12 176v201q0 22 0.5 73.5t1 69t1.5 55t4 54.5l7.5 42.5t11.5 43.5t17 35q38 64 133 94q-73 27 -106 59q-48 50 -59.5 118.5t-12.5 217.5v47v226v24v26t-0.5 24t-1 26t-2 24t-4 25.5t-5.5 23.5t-7.5 25t-10 22t-12.5 23 q-28 43 -62.5 62t-97.5 37v12q46 -4 70 -4l16 -1q16 -1 25.5 -2t28.5 -3.5t34.5 -7t35 -11t37.5 -16.5t34 -23q15 -12 27.5 -26.5t21.5 -27.5t16.5 -33t12.5 -32t8.5 -36.5t5.5 -34.5t3.5 -38t1.5 -35t0.5 -37t0.5 -34v-264q0 -115 2 -137q7 -131 90 -190q23 -14 54 -25v-12 q-49 -12 -80 -41q-13 -12 -23.5 -29.5t-17 -32.5t-11.5 -39.5t-7 -38t-3.5 -42t-1.5 -38v-39.5v-32v-256q-2 -37 -2 -109q-5 -106 -36 -169q-37 -76 -109 -113q-13 -7 -25 -11.5t-28 -8t-25 -5.5t-32 -3.5t-33 -2t-43 -2t-48 -2.5v12z" />
<glyph unicode="~" horiz-adv-x="1492" d="M254 594q49 69 89 103q83 69 183 69q38 -1 82.5 -13.5t69.5 -23t76 -33.5l67 -30q97 -43 144 -43q75 0 165 90q1 1 31 37l78 -148q-52 -59 -90 -88q-93 -74 -191 -74q-45 1 -84.5 14t-121.5 52l-58 29l-14 7q-13 6 -29 12t-36.5 13.5t-43.5 12t-43 4.5t-37 -3.5 t-33.5 -13.5t-28 -17t-27 -24t-22 -24.5t-23 -28.5t-21.5 -27z" />
<glyph unicode="&#xa1;" horiz-adv-x="468" d="M78 4l33 1038h178l28 -1038h-239zM86 1214v220h225v-220h-225z" />
<glyph unicode="&#xa3;" horiz-adv-x="980" d="M16 2v168h189v537h-166v112h166q-1 79 -1.5 146t15.5 139.5t51 134.5q42 73 101 122.5t121.5 70t105 27.5t82.5 7q96 -2 264 -45l-18 -176q-132 47 -215 47q-110 0 -185 -57q-32 -24 -65 -80q-26 -47 -39 -106.5t-12.5 -113t0.5 -114.5h329v-114h-327v-537h506v-168h-902 z" />
<glyph unicode="&#xa4;" d="M86 223l156 154q-20 28 -33 51t-32.5 64.5t-29.5 94t-10 111.5q0 137 66 254q26 43 39 60l-154 155l123 123l154 -153q39 27 70 44.5t102 38.5t147 21q134 0 248 -59q13 -7 29 -18t27.5 -18.5t12.5 -8.5l154 153l125 -123l-156 -155q103 -140 103 -318q0 -123 -47 -223 q-15 -33 -58 -96l158 -156l-127 -123l-156 156q-141 -102 -315 -102q-77 0 -147 20.5t-100 38t-70 45.5l-156 -156zM301 694q0 -162 111.5 -272.5t273.5 -110.5q121 0 209 62q27 18 52 42t53.5 63t45.5 95.5t17 122.5q0 137 -78 238q-117 147 -301 145q-77 0 -141 -24 q-114 -42 -178 -140t-64 -221z" />
<glyph unicode="&#xa6;" horiz-adv-x="468" d="M152 389h165v-780h-165v780zM152 631v780h165v-780h-165z" />
<glyph unicode="&#xa7;" horiz-adv-x="937" d="M51 -205l21 185q2 -1 29.5 -12.5t42.5 -17.5t49 -17t61.5 -17t65.5 -11t75 -5q123 1 190.5 51.5t67.5 120.5q0 47 -28 84q-13 18 -34 34t-52.5 31t-50.5 23t-57.5 22t-45.5 17q-117 52 -170 84q-32 16 -72 51q-46 46 -67 106q-17 52 -17 101q1 43 11.5 79.5t36 70.5 t45 55t59.5 59q-1 1 -21 17.5t-34 31.5q-74 72 -74 178q0 82 49 164q111 172 397 172q87 0 144.5 -11t150.5 -42l-24 -182q-140 50 -200 61q-46 8 -91 8q-128 0 -193 -76q-32 -36 -32 -80q0 -21 10 -51q11 -25 34.5 -45t42.5 -30t54 -25q182 -74 326 -152q8 -6 23.5 -18 t23.5 -18q88 -77 88 -201q0 -56 -19 -111q-20 -49 -50.5 -83t-84.5 -79q59 -47 66 -55q59 -65 59 -166q0 -96 -59 -186q-117 -178 -412 -178q-25 0 -49.5 1t-43.5 2.5t-41 5t-36 5.5t-33.5 7.5t-29 7.5t-28.5 8.5t-25 8.5t-25 9t-23 8zM233 659q0 -51 31 -90 q33 -43 118.5 -82t252.5 -98q26 33 38 50t24 47t12 61q-5 87 -66 131q-13 10 -29.5 19.5t-29.5 15t-44 18.5t-53 23l-165 73q-30 -31 -45.5 -50t-29.5 -51t-14 -67z" />
<glyph unicode="&#xa8;" horiz-adv-x="555" d="M-190 1229v192h188v-192h-188zM207 1229v192h184v-192h-184z" />
<glyph unicode="&#xa9;" horiz-adv-x="1705" d="M125 725q0 264 166 467q28 32 58.5 61.5t84 67.5t112 65.5t140.5 46.5t170 19q247 0 434 -141q35 -26 68 -57.5t76.5 -87t74.5 -117t53 -149t21 -181.5q-7 -280 -180 -479q-102 -118 -246 -182t-303 -64q-156 0 -297.5 61.5t-245.5 175.5q-186 203 -186 494zM190 723 q0 -131 50 -252q75 -187 244 -299.5t372 -112.5q95 0 211 35q203 67 325 239.5t124 387.5q0 227 -132 403q-24 32 -52 61.5t-77 68t-103.5 66t-132.5 47t-163 19.5q-223 0 -393 -126q-32 -23 -63 -51t-70.5 -78.5t-69 -106.5t-50 -135.5t-20.5 -165.5zM383 725 q0 210 138.5 348.5t348.5 138.5q178 0 310 -108q29 -25 75 -76l-114 -108q-18 20 -28 30.5t-38.5 34t-54.5 36.5t-67 24.5t-85 11.5q-76 0 -139 -29q-89 -40 -137.5 -122t-48.5 -181q0 -73 30 -141q38 -87 119.5 -138t179.5 -51q52 0 98.5 14t81.5 39.5t51.5 41t37.5 38.5 l114 -100q-154 -186 -389 -186q-96 0 -184 32q-139 53 -219 175.5t-80 275.5z" />
<glyph unicode="&#xab;" horiz-adv-x="980" d="M33 537l297 419h184l-270 -424l264 -419h-180zM459 535l280 421h183l-258 -419l254 -424h-177z" />
<glyph unicode="&#xac;" d="M0 518v162h1366v-680h-164v518h-1202z" />
<glyph unicode="&#xad;" horiz-adv-x="641" d="M47 461v151h528v-151h-528z" />
<glyph unicode="&#xae;" horiz-adv-x="1705" d="M125 725q0 264 166 467q28 32 58.5 61.5t84 67.5t112 65.5t140.5 46.5t170 19q175 0 328 -76t258 -217q144 -194 141 -440q0 -42 -6 -87t-22 -110t-53.5 -136.5t-92.5 -135.5q-68 -80 -151.5 -135.5t-163 -79.5t-135.5 -32.5t-105 -8.5q-249 0 -446 149q-34 27 -66 58 t-73.5 85.5t-71.5 115t-51 146t-21 177.5zM190 723q0 -131 50 -252q75 -187 244 -299.5t372 -112.5q112 0 223 39q198 70 317.5 241t121.5 382q0 223 -129 399q-24 32 -52 62t-78 69t-105 67t-134 48t-164 20q-223 0 -393 -126q-32 -23 -63 -51t-70.5 -78.5t-69 -106.5 t-50 -135.5t-20.5 -165.5zM545 268v920h299h18q54 0 83.5 -1.5t74.5 -9.5t78 -28t59 -53q49 -61 49 -144q0 -21 -4.5 -43t-16 -51t-38.5 -56t-66 -46q-39 -17 -65 -23q41 -17 55 -28q17 -13 30 -31t20.5 -31.5t14.5 -40t9 -37.5t6.5 -42.5t5.5 -37.5q23 -147 62 -217l-189 2 q-13 28 -22.5 63.5t-13 52.5t-10 67.5t-7.5 58.5q-11 64 -25.5 94.5t-46.5 48.5q-28 17 -52.5 21t-86.5 6h-57v-414h-164zM709 811h137q37 0 55 2q95 7 127 70q14 21 14 57q0 13 -3 28.5t-17 39t-37 36.5q-43 19 -123 19q-7 0 -23 -1t-24 -1h-106v-250z" />
<glyph unicode="&#xb0;" horiz-adv-x="724" d="M33 1217q0 137 96.5 233t232.5 96q138 0 234 -96t96 -233q0 -79 -30 -142q-40 -86 -122 -138t-178 -52q-138 1 -233.5 98t-95.5 234zM201 1221q0 -67 47.5 -114.5t113.5 -47.5q68 0 115 47.5t47 114.5q0 66 -47.5 113.5t-114.5 47.5t-114 -47.5t-47 -113.5z" />
<glyph unicode="&#xb1;" d="M84 0v162h1196v-162h-1196zM84 772v162h520v496h162v-496h514v-162h-514v-496h-162v496h-520z" />
<glyph unicode="&#xb4;" horiz-adv-x="555" d="M8 1182l172 274h254l-280 -274h-146z" />
<glyph unicode="&#xb5;" horiz-adv-x="1150" d="M141 748q0 90 13 131q36 73 90 71q39 0 65 -39q25 -36 25 -108q0 -52 -12 -158q-2 -17 -23 -194q-18 -146 -27 -195q14 -35 39 -80q65 -92 166 -92q61 0 109 37q18 13 34 30.5t28 34.5t22.5 38t17 37t13 35.5t9.5 30.5t6 24t3 14q8 40 12 90.5t5 98t1 85t-1 69.5t-1 33 q0 133 25 172q26 39 74 37q31 0 51 -14q30 -22 41.5 -65.5t11.5 -120.5q0 -40 -2.5 -94t-17 -156t-39.5 -178q-15 -50 -41 -99q40 -104 110 -104q20 0 39 12q49 27 49 111q0 13 -4 45l58 2q28 -70 28 -142q0 -13 -1.5 -27.5t-9 -42.5t-21 -48t-41.5 -36t-66 -16 q-83 0 -139 80q-24 32 -43 90q-35 -53 -77 -90.5t-83 -55.5t-74.5 -25t-64.5 -7q-123 0 -209 99q-15 15 -29 36q-13 -208 62 -364q9 -19 30 -51.5t25 -40.5q1 -2 7.5 -12.5t8.5 -14.5t7 -13t6.5 -14.5t4.5 -13.5t4 -15.5t1 -15.5q0 -37 -25 -61.5t-63 -24.5q-21 0 -47 13 q-41 20 -68 80q-53 112 -53 352q0 211 22 348q-2 14 -6 40.5t-7 48t-5 40.5q-23 180 -23 363z" />
<glyph unicode="&#xb6;" d="M180 1038q0 137 72.5 241.5t202.5 145.5q77 21 178 21h471v-111h-70v-1677h-119v1677h-294v-1677h-119v995q-76 13 -119 35q-100 45 -151.5 139.5t-51.5 210.5z" />
<glyph unicode="&#xb7;" horiz-adv-x="382" d="M55 598q0 39 15 64q12 24 44 49.5t79 25.5q24 0 49 -10q41 -18 64.5 -52t23.5 -77q0 -22 -11 -51q-8 -21 -20.5 -38.5t-43 -34.5t-69.5 -15q-58 1 -94.5 40.5t-36.5 98.5z" />
<glyph unicode="&#xb8;" horiz-adv-x="555" d="M-53 -395l41 67q2 -1 19.5 -7t35 -11.5t42 -10.5t44.5 -5q52 0 81.5 25t29.5 54q0 28 -29 58t-80 30q-23 0 -72 -8l-26 37l217 256l82 -10l-176 -207q24 6 67 6q69 0 121.5 -39.5t52.5 -107.5q0 -57 -36 -99t-87 -60.5t-108 -18.5q-22 0 -47 3.5t-46.5 8.5t-44 11.5 t-37 11.5t-28.5 10t-16 6z" />
<glyph unicode="&#xbb;" horiz-adv-x="980" d="M53 956h185l292 -426l-290 -419h-183l271 417zM471 958h191l278 -426l-278 -417h-185l262 417z" />
<glyph unicode="&#xbf;" horiz-adv-x="980" d="M88 346q0 68 18 125q15 48 47 98.5t53 75t73 82.5q66 74 92 121q21 33 32 65t14.5 54.5t8.5 72.5l180 -2q-1 -63 -3.5 -94.5t-15 -74.5t-36.5 -85q-28 -47 -89 -116t-81 -97q-76 -97 -76 -200q0 -49 21 -90q61 -119 225 -119q116 0 307 76l14 -195q-107 -35 -176.5 -50.5 t-154.5 -15.5q-25 0 -49 1.5t-73 10.5t-90.5 24.5t-90 48t-82.5 77.5q-68 88 -68 207zM403 1212v224h220v-224h-220z" />
<glyph unicode="&#xc0;" horiz-adv-x="1449" d="M-10 6l610 1438h219l627 -1442h-238l-151 367h-699l-149 -363h-219zM383 1843h264l168 -276h-156zM426 532l567 3q-58 143 -137 333q-44 102 -84 207q-29 72 -67 193q-61 -186 -70 -209q-15 -40 -111 -273q-9 -23 -98 -254z" />
<glyph unicode="&#xc1;" horiz-adv-x="1449" d="M-10 6l610 1438h219l627 -1442h-238l-151 367h-699l-149 -363h-219zM426 532l567 3q-58 143 -137 333q-44 102 -84 207q-29 72 -67 193q-61 -186 -70 -209q-15 -40 -111 -273q-9 -23 -98 -254zM623 1569l170 274h254l-279 -274h-145z" />
<glyph unicode="&#xc2;" horiz-adv-x="1449" d="M-10 6l610 1438h219l627 -1442h-238l-151 367h-699l-149 -363h-219zM395 1581l230 270h198l207 -272h-176l-133 178l-154 -176h-172zM426 532l567 3q-58 143 -137 333q-44 102 -84 207q-29 72 -67 193q-61 -186 -70 -209q-15 -40 -111 -273q-9 -23 -98 -254z" />
<glyph unicode="&#xc3;" horiz-adv-x="1449" d="M-10 6l610 1438h219l627 -1442h-238l-151 367h-699l-149 -363h-219zM358 1597q12 69 27 109q9 19 21.5 37t34 40t54.5 35.5t72 12.5q68 0 203 -49q7 -3 23.5 -9.5t20.5 -8.5t15.5 -6t15.5 -5t12.5 -3t15 -2.5t14.5 -0.5q29 0 45 8q9 3 16 7t14 10t11.5 10t11 13.5t8.5 13 t9.5 15.5t9.5 15h86q0 -7 -8 -42.5t-17 -59.5q-20 -47 -69 -89t-130 -42q-67 0 -139 34q-9 4 -36 17t-40 18.5t-35 11t-42 5.5q-29 0 -54 -11q-10 -3 -19 -9t-14.5 -10.5t-13 -14.5t-10.5 -14.5t-11.5 -18t-10.5 -17.5h-91zM426 532l567 3q-58 143 -137 333q-44 102 -84 207 q-29 72 -67 193q-61 -186 -70 -209q-15 -40 -111 -273q-9 -23 -98 -254z" />
<glyph unicode="&#xc4;" horiz-adv-x="1449" d="M-10 6l610 1438h219l627 -1442h-238l-151 367h-699l-149 -363h-219zM391 1599v203h191v-203h-191zM426 532l567 3q-58 143 -137 333q-44 102 -84 207q-29 72 -67 193q-61 -186 -70 -209q-15 -40 -111 -273q-9 -23 -98 -254zM844 1602v202h192v-202h-192z" />
<glyph unicode="&#xc5;" horiz-adv-x="1449" d="M-10 6l610 1438h219l627 -1442h-238l-151 367h-699l-149 -363h-219zM426 532l567 3q-21 52 -64 155.5t-65 155.5q-89 215 -98 239l-61 183q-27 -90 -68 -203q-38 -94 -102 -248q-69 -175 -109 -285zM502 1731q13 58 41 96q61 88 174 88q54 0 104 -29q31 -17 53 -43 t31.5 -53t13 -47t3.5 -37q0 -47 -19 -88q-17 -38 -44 -64.5t-56 -37.5t-50 -15t-40 -4q-96 2 -159.5 70t-51.5 164zM594 1710q0 -50 33 -87.5t80 -37.5q51 0 90 35.5t39 85.5q0 49 -34.5 82t-82.5 33q-39 0 -74 -21.5t-47 -54.5q-4 -14 -4 -35z" />
<glyph unicode="&#xc6;" horiz-adv-x="1878" d="M-6 0l872 1432h910v-172h-578l27 -431h512v-172h-500l31 -477h528v-182h-713l-26 371h-611l-223 -369h-229zM541 535h508l-48 763z" />
<glyph unicode="&#xc7;" horiz-adv-x="1236" d="M74 723q0 96 21 184t51.5 150t72.5 117t77 87t71 58q191 135 469 135q161 0 292 -43q2 -1 97 -41l-29 -199q-36 25 -59 39q-124 66 -285 66q-138 0 -256 -53q-67 -31 -120 -75.5t-84 -94.5t-51.5 -98t-29 -99t-11.5 -82.5t-3 -62.5q0 -183 84 -308q15 -22 45 -57 q55 -64 119 -102q145 -92 332 -92q75 1 134.5 12.5t147.5 36.5l-2 -201q-65 -17 -92 -20q-60 -15 -162 -15h-35l-108 -135q46 4 67 4q72 0 122 -40t50 -111q0 -32 -18.5 -72t-65.5 -70q-67 -41 -157 -41q-80 0 -213 49l41 78q18 -9 62.5 -22t82.5 -13q28 0 46 6.5t42 24.5 q23 26 23 53q0 9 -1.5 16.5t-5.5 14t-5.5 10t-7.5 9.5l-5 6q-36 24 -80 24q-18 0 -78 -10l-30 37l151 188q-229 15 -401 127q-37 26 -68 54q-88 77 -143 176q-48 85 -68 164q-26 98 -26 231z" />
<glyph unicode="&#xc8;" horiz-adv-x="1024" d="M131 0v1442h799v-176h-592v-432h549v-177h-551v-477h608v-180h-813zM170 1843h264l168 -276h-158z" />
<glyph unicode="&#xc9;" horiz-adv-x="1024" d="M131 0v1442h799v-176h-592v-432h549v-177h-551v-477h608v-180h-813zM410 1569l170 274h254l-279 -274h-145z" />
<glyph unicode="&#xca;" horiz-adv-x="1024" d="M131 0v1442h799v-176h-592v-432h549v-177h-551v-477h608v-180h-813zM182 1581l230 270h198l207 -272h-176l-135 178l-152 -176h-172z" />
<glyph unicode="&#xcb;" horiz-adv-x="1024" d="M131 0v1442h799v-176h-592v-432h549v-177h-551v-477h608v-180h-813zM180 1612v203h191v-203h-191zM635 1614v201h194v-201h-194z" />
<glyph unicode="&#xcc;" horiz-adv-x="468" d="M-106 1843h262l170 -276h-158zM133 2v1434h201v-1434h-201z" />
<glyph unicode="&#xcd;" horiz-adv-x="468" d="M133 2v1434h201v-1434h-201zM133 1569l170 274h252l-276 -274h-146z" />
<glyph unicode="&#xce;" horiz-adv-x="468" d="M-96 1581l229 270h199l207 -272h-177l-133 178l-151 -176h-174zM133 2v1434h201v-1434h-201z" />
<glyph unicode="&#xcf;" horiz-adv-x="468" d="M-96 1612v203h190v-203h-190zM133 2v1434h201v-1434h-201zM358 1614v201h193v-201h-193z" />
<glyph unicode="&#xd1;" horiz-adv-x="1409" d="M133 2v1436h270q187 -326 289 -500q189 -313 246 -420q58 -111 149 -323q-13 358 -16 643q0 200 4 598h189v-1436h-254q-123 218 -273 473q-50 86 -176 291q-86 144 -133.5 240.5t-116.5 263.5q15 -420 17 -688q0 -96 -1 -288.5t-1 -289.5h-193zM336 1597q10 58 29 109 q7 18 20 36.5t34 40.5t54.5 35.5t73.5 12.5q63 0 203 -49q9 -3 23.5 -9.5t20 -8.5t15.5 -6t15 -5.5t13 -3t14.5 -2t14.5 -0.5q35 0 43 8q28 9 44.5 29t35.5 55h88q0 -1 -3.5 -19.5t-9.5 -42.5t-13 -40q-20 -47 -69 -89t-130 -42q-65 0 -139 34q-9 4 -36 17t-40 18.5t-35 11 t-41 5.5q-28 0 -53 -11q-15 -5 -26 -12t-23 -22.5t-15.5 -21t-17.5 -28.5h-90z" />
<glyph unicode="&#xd2;" horiz-adv-x="1536" d="M66 745q9 309 176 500q68 74 157 127q164 94 355 94q154 -2 296.5 -61t235.5 -166q28 -34 53 -76t52 -104.5t43 -148.5t16 -181q0 -120 -25.5 -225.5t-68.5 -180t-85 -124t-87 -84.5q-178 -135 -432 -135q-174 0 -316 65q-131 61 -218 172.5t-122 243.5t-30 284zM279 717 q0 -120 28 -215q46 -162 163.5 -263.5t281.5 -101.5q199 0 327 137q63 71 112.5 183t49.5 266q0 36 -4 76.5t-17 109.5t-47.5 139t-85.5 123q-60 60 -137 93q-90 43 -196 43q-176 0 -303 -129q-87 -87 -129.5 -207t-42.5 -254zM426 1843h264l168 -276h-158z" />
<glyph unicode="&#xd3;" horiz-adv-x="1536" d="M66 745q9 309 176 500q68 74 157 127q164 94 355 94q154 -2 296.5 -61t235.5 -166q28 -34 53 -76t52 -104.5t43 -148.5t16 -181q0 -120 -25.5 -225.5t-68.5 -180t-85 -124t-87 -84.5q-178 -135 -432 -135q-174 0 -316 65q-131 61 -218 172.5t-122 243.5t-30 284zM279 717 q0 -120 28 -215q46 -162 163.5 -263.5t281.5 -101.5q199 0 327 137q63 71 112.5 183t49.5 266q0 36 -4 76.5t-17 109.5t-47.5 139t-85.5 123q-60 60 -137 93q-90 43 -196 43q-176 0 -303 -129q-87 -87 -129.5 -207t-42.5 -254zM666 1569l170 274h254l-279 -274h-145z" />
<glyph unicode="&#xd4;" horiz-adv-x="1536" d="M66 745q9 309 176 500q68 74 157 127q164 94 355 94q154 -2 296.5 -61t235.5 -166q28 -34 53 -76t52 -104.5t43 -148.5t16 -181q0 -120 -25.5 -225.5t-68.5 -180t-85 -124t-87 -84.5q-178 -135 -432 -135q-174 0 -316 65q-131 61 -218 172.5t-122 243.5t-30 284zM279 717 q0 -120 28 -215q46 -162 163.5 -263.5t281.5 -101.5q199 0 327 137q63 71 112.5 183t49.5 266q0 36 -4 76.5t-17 109.5t-47.5 139t-85.5 123q-60 60 -137 93q-90 43 -196 43q-176 0 -303 -129q-87 -87 -129.5 -207t-42.5 -254zM438 1581l230 270h198l207 -272h-176l-135 178 l-152 -176h-172z" />
<glyph unicode="&#xd5;" horiz-adv-x="1536" d="M66 745q9 309 176 500q68 74 157 127q164 94 355 94q154 -2 296.5 -61t235.5 -166q28 -34 53 -76t52 -104.5t43 -148.5t16 -181q0 -120 -25.5 -225.5t-68.5 -180t-85 -124t-87 -84.5q-178 -135 -432 -135q-174 0 -316 65q-131 61 -218 172.5t-122 243.5t-30 284zM279 717 q0 -120 28 -215q46 -162 163.5 -263.5t281.5 -101.5q199 0 327 137q63 71 112.5 183t49.5 266q0 36 -4 76.5t-17 109.5t-47.5 139t-85.5 123q-60 60 -137 93q-90 43 -196 43q-176 0 -303 -129q-87 -87 -129.5 -207t-42.5 -254zM399 1597q15 71 29 109q59 127 182 125 q63 0 203 -49q7 -3 23.5 -9.5t20.5 -8.5t15.5 -6t15.5 -5t12.5 -3t15 -2.5t14.5 -0.5q29 0 45 8q9 3 16 7t14 10t11.5 10t11 13.5t8.5 13t9.5 15.5t9.5 15h86q0 -1 -3.5 -19.5t-9.5 -42.5t-12 -40q-8 -19 -22 -39t-37.5 -42t-59.5 -36t-79 -14q-68 0 -142 34 q-10 5 -35.5 17.5t-39 18t-35 11t-41.5 5.5q-29 0 -54 -11q-19 -7 -34.5 -21t-23.5 -26.5t-21 -36.5h-93z" />
<glyph unicode="&#xd6;" horiz-adv-x="1536" d="M66 745q9 309 176 500q68 74 157 127q164 94 355 94q154 -2 296.5 -61t235.5 -166q28 -34 53 -76t52 -104.5t43 -148.5t16 -181q0 -120 -25.5 -225.5t-68.5 -180t-85 -124t-87 -84.5q-178 -135 -432 -135q-174 0 -316 65q-131 61 -218 172.5t-122 243.5t-30 284zM279 717 q0 -120 28 -215q46 -162 163.5 -263.5t281.5 -101.5q199 0 327 137q63 71 112.5 183t49.5 266q0 36 -4 76.5t-17 109.5t-47.5 139t-85.5 123q-60 60 -137 93q-90 43 -196 43q-176 0 -303 -129q-87 -87 -129.5 -207t-42.5 -254zM446 1604v202h189v-202h-189zM893 1606v202 h192v-202h-192z" />
<glyph unicode="&#xd7;" d="M158 188l411 410l-411 412l112 114l414 -411l410 411l114 -114l-409 -412l409 -410l-114 -114l-410 409l-414 -409z" />
<glyph unicode="&#xd8;" horiz-adv-x="1536" d="M70 707q0 171 51 307q76 211 247.5 326.5t399.5 115.5q66 0 127 -10t98.5 -20t87 -34t64.5 -33.5t58 -37.5l3 -1.5t3 -2t3.5 -2.5l3 -2t3.5 -2l114 135l74 -66l-121 -135q45 -65 57 -86q53 -82 84 -181.5t31 -260.5q0 -172 -49 -303q-78 -211 -253.5 -324t-401.5 -113 q-183 0 -326 72q-45 23 -119 76l-116 -135l-72 63l121 140q-7 10 -26.5 37.5t-29.5 43.5q-51 80 -83.5 180t-32.5 253zM270 715q0 -82 17.5 -161t31.5 -113t42 -90q4 -9 6 -13l727 831q-1 1 -19.5 15.5t-25 19t-26 19t-32.5 20.5t-35 18t-42 17.5t-45 12t-52.5 9.5t-56.5 3 q-190 0 -322 -136q-29 -29 -55 -65.5t-53 -92t-43.5 -132t-16.5 -162.5zM434 266q27 -24 53 -41q128 -94 291 -94q124 0 223 59q42 25 84 68t83.5 109t67.5 161.5t26 204.5q0 35 -3 69.5t-7 60.5t-12 56t-13 47t-16 44t-15.5 36.5t-16.5 34.5t-14 29z" />
<glyph unicode="&#xd9;" d="M121 629v813h207v-856q4 -59 6.5 -87t11.5 -76.5t22 -78t38 -64t59 -61.5q85 -69 213 -69q184 0 278 137q28 41 45 86t23.5 100.5t8 92t1.5 102.5v774h201v-891q-6 -79 -6 -80q-13 -188 -119 -315q-26 -31 -59 -58t-83.5 -55.5t-121.5 -45.5t-152 -17q-72 0 -112 8 q-189 20 -312 147q-75 77 -108 174q-15 47 -24 106.5t-11.5 99.5t-5.5 114zM340 1843h264l170 -276h-158z" />
<glyph unicode="&#xda;" d="M121 629v813h207v-856q4 -59 6.5 -87t11.5 -76.5t22 -78t38 -64t59 -61.5q85 -69 213 -69q184 0 278 137q28 41 45 86t23.5 100.5t8 92t1.5 102.5v774h201v-891q-6 -79 -6 -80q-13 -188 -119 -315q-26 -31 -59 -58t-83.5 -55.5t-121.5 -45.5t-152 -17q-72 0 -112 8 q-189 20 -312 147q-75 77 -108 174q-15 47 -24 106.5t-11.5 99.5t-5.5 114zM580 1569l172 274h252l-279 -274h-145z" />
<glyph unicode="&#xdb;" d="M121 629v813h207v-856q4 -59 6.5 -87t11.5 -76.5t22 -78t38 -64t59 -61.5q85 -69 213 -69q184 0 278 137q28 41 45 86t23.5 100.5t8 92t1.5 102.5v774h201v-891q-6 -79 -6 -80q-13 -188 -119 -315q-26 -31 -59 -58t-83.5 -55.5t-121.5 -45.5t-152 -17q-72 0 -112 8 q-189 20 -312 147q-75 77 -108 174q-15 47 -24 106.5t-11.5 99.5t-5.5 114zM352 1581l230 270h198l207 -272h-176l-133 178l-152 -176h-174z" />
<glyph unicode="&#xdc;" d="M121 629v813h207v-856q0 -30 4 -92q19 -204 155 -291q97 -53 199 -53q192 0 283 159q29 52 44 119t17 112t2 128v774h203v-891q-6 -79 -6 -80q-13 -188 -119 -315q-26 -31 -59 -58t-83.5 -55.5t-121.5 -45.5t-152 -17q-72 0 -112 8q-189 20 -312 147q-75 77 -108 174 q-15 47 -24 106.5t-11.5 99.5t-5.5 114zM367 1597v201h188v-201h-188zM817 1599v203h193v-203h-193z" />
<glyph unicode="&#xdf;" horiz-adv-x="1193" d="M106 856q0 116 15 307q0 1 4 18l8 34t11 40t16.5 46t19.5 42q20 38 51.5 73.5t80.5 71.5t123 57.5t161 21.5q93 0 182 -29q119 -42 190.5 -140.5t71.5 -226.5q0 -161 -102 -260q-36 -33 -119 -82q66 -22 97.5 -37t60.5 -38q45 -37 76 -85.5t43.5 -96t17 -79.5t4.5 -59 q0 -81 -31 -164q-37 -95 -114.5 -166.5t-171.5 -97.5q-50 -16 -129 -16q-69 0 -195 18v164q99 -22 156 -22t100 18q31 12 58 31t54.5 51t43.5 84t16 117q0 103 -57 176q-29 37 -64 60.5t-80.5 35.5t-80 16.5t-91.5 8.5l3 151q95 6 127 16q81 25 127.5 90t46.5 152 q0 59 -23 113q-19 45 -49.5 76.5t-64.5 45t-59.5 18.5t-49.5 5q-71 0 -135 -37q-29 -17 -51 -37.5t-37 -48.5t-24.5 -49.5t-17 -60t-10.5 -59.5t-8 -66v-1053h-196q4 348 2 522q-1 29 -4 147t-3 183z" />
<glyph unicode="&#xe0;" horiz-adv-x="1024" d="M20 307q0 164 148 254q139 88 371 88q62 0 184 -8q0 117 -39 176q-27 40 -85 73.5t-144 33.5q-54 0 -110.5 -16.5t-91 -33t-99.5 -51.5v166q3 2 26 13.5l29 14.5t27.5 13t33 13.5t33.5 11t40 10.5t43 7t51.5 5.5t56.5 1.5q176 0 284 -80q52 -39 80 -86q28 -48 49 -174 v-739h-168v168q-78 -89 -133 -123q-95 -59 -231 -59q-230 0 -316 164q-39 72 -39 157zM172 1454h262l170 -272h-153zM225 303q0 -51 25 -88q17 -28 45 -46.5t58.5 -26t48.5 -9.5t34 -2q38 0 105 19q64 26 110.5 79.5t63.5 120.5q12 51 12 156q-73 6 -147 6q-146 0 -242 -47 q-63 -31 -88 -74q-25 -38 -25 -88z" />
<glyph unicode="&#xe1;" horiz-adv-x="1024" d="M20 307q0 164 148 254q139 88 371 88q62 0 184 -8q0 117 -39 176q-27 40 -85 73.5t-144 33.5q-54 0 -110.5 -16.5t-91 -33t-99.5 -51.5v166q3 2 26 13.5l29 14.5t27.5 13t33 13.5t33.5 11t40 10.5t43 7t51.5 5.5t56.5 1.5q176 0 284 -80q52 -39 80 -86q28 -48 49 -174 v-739h-168v168q-78 -89 -133 -123q-95 -59 -231 -59q-230 0 -316 164q-39 72 -39 157zM225 303q0 -51 25 -88q17 -28 45 -46.5t58.5 -26t48.5 -9.5t34 -2q38 0 105 19q64 26 110.5 79.5t63.5 120.5q12 51 12 156q-73 6 -147 6q-146 0 -242 -47q-63 -31 -88 -74 q-25 -38 -25 -88zM414 1182l172 274h254l-281 -274h-145z" />
<glyph unicode="&#xe2;" horiz-adv-x="1024" d="M20 307q0 164 148 254q139 88 371 88q62 0 184 -8q0 117 -39 176q-27 40 -85 73.5t-144 33.5q-54 0 -110.5 -16.5t-91 -33t-99.5 -51.5v166q3 2 26 13.5l29 14.5t27.5 13t33 13.5t33.5 11t40 10.5t43 7t51.5 5.5t56.5 1.5q176 0 284 -80q52 -39 80 -86q28 -48 49 -174 v-739h-168v168q-78 -89 -133 -123q-95 -59 -231 -59q-230 0 -316 164q-39 72 -39 157zM186 1190l228 270h196l203 -268h-174l-131 176l-152 -178h-170zM225 303q0 -51 25 -88q17 -28 45 -46.5t58.5 -26t48.5 -9.5t34 -2q38 0 105 19q64 26 110.5 79.5t63.5 120.5 q12 51 12 156q-73 6 -147 6q-146 0 -242 -47q-63 -31 -88 -74q-25 -38 -25 -88z" />
<glyph unicode="&#xe3;" horiz-adv-x="1024" d="M20 307q0 164 148 254q139 88 371 88q62 0 184 -8q0 117 -39 176q-27 40 -85 73.5t-144 33.5q-54 0 -110.5 -16.5t-91 -33t-99.5 -51.5v166q3 2 26 13.5l29 14.5t27.5 13t33 13.5t33.5 11t40 10.5t43 7t51.5 5.5t56.5 1.5q176 0 284 -80q52 -39 80 -86q28 -48 49 -174 v-739h-168v168q-78 -89 -133 -123q-95 -59 -231 -59q-230 0 -316 164q-39 72 -39 157zM150 1223q18 61 32 92q20 44 67.5 83.5t121.5 39.5q60 0 137 -33q3 -1 23.5 -11t26 -12.5t22.5 -9.5t26.5 -9t23.5 -4.5t27 -2.5q32 0 55.5 12.5t35 27.5t32.5 48l90 -2q-8 -41 -34 -94 q-9 -18 -21.5 -35.5t-34.5 -39t-55 -35t-72 -13.5q-55 0 -123 28q-10 5 -31.5 15.5t-34 15.5t-31 12t-35 10t-33.5 3q-46 0 -72 -20.5t-57 -67.5zM225 303q0 -51 25 -88q17 -28 45 -46.5t58.5 -26t48.5 -9.5t34 -2q38 0 105 19q64 26 110.5 79.5t63.5 120.5q12 51 12 156 q-73 6 -147 6q-146 0 -242 -47q-63 -31 -88 -74q-25 -38 -25 -88z" />
<glyph unicode="&#xe4;" horiz-adv-x="1024" d="M27 303q0 54 18 105q47 125 209 190q71 28 155 40t159.5 10t160.5 -5q-3 98 -20 139q-20 51 -79 94.5t-157 43.5q-54 0 -114 -16.5t-96.5 -33t-102.5 -49.5v170q79 33 119.5 48t103.5 28.5t125 13.5q56 0 117 -12q193 -55 249 -180q25 -59 35 -189v-698h-166v168 q-62 -72 -65 -76q-108 -108 -293 -108q-201 0 -295 129q-63 91 -63 188zM225 1227v188h191v-188h-191zM233 301q0 -44 23 -84q23 -38 67 -60t71.5 -26t51.5 -4q70 2 131.5 33.5t102.5 89.5q27 39 39.5 85.5t13.5 78.5t0 96q-67 2 -126 4t-123 -8t-117 -33q-69 -30 -103 -74 q-31 -40 -31 -98zM625 1223v192h178v-192h-178z" />
<glyph unicode="&#xe5;" horiz-adv-x="1024" d="M25 307q0 178 174 268q140 72 350 72q3 0 186 -6q-8 93 -28 141q-29 68 -97 105t-145 37q-54 0 -115 -18.5t-92.5 -34t-101.5 -52.5v172q73 31 116 47t105 29.5t123 13.5q167 0 286 -94q68 -52 93 -115q25 -61 30 -204v-666h-168v174q-58 -72 -91 -100q-105 -88 -277 -88 q-208 0 -299 145q-49 83 -49 174zM227 303q0 -84 62 -128t149 -44q54 0 97 16q68 23 118.5 77.5t67.5 123.5q13 51 10 156q-98 8 -147 8q-132 0 -228 -41q-64 -28 -98 -72q-31 -42 -31 -96zM301 1327q0 24 6 47q17 68 81.5 114t137.5 46q82 0 141.5 -61.5t59.5 -147.5 t-69.5 -148.5t-157.5 -62.5q-81 0 -140 64t-59 149zM389 1327q0 -53 36.5 -89t88.5 -36q50 0 85.5 34t35.5 83q0 52 -34 89.5t-83 37.5q-40 0 -75.5 -24t-47.5 -60q-6 -16 -6 -35z" />
<glyph unicode="&#xe6;" horiz-adv-x="1748" d="M31 305q0 33 7.5 66t26.5 72.5t60 77t100 65.5q84 39 194 50t331 11q-5 46 -10 72.5t-19.5 59.5t-38.5 57q-82 82 -219 82q-58 0 -115.5 -16.5t-91.5 -33.5t-102 -55l-7 178q78 33 118 47.5t103 27.5t128 13q171 0 274 -80q18 -13 96 -92q38 55 62 76q34 33 80 55.5 t91 31t70.5 11t47.5 2.5q123 0 229 -55q51 -27 90 -62.5t63.5 -80.5t40 -86.5t24 -100t12 -100t5.5 -106.5h-743q18 -105 39 -150q42 -90 130.5 -141t192.5 -51q49 0 100.5 14t86 29t92.5 45l-2 -191q-99 -37 -155 -48t-154 -11q-224 0 -340 98q-44 39 -103 123 q-5 -7 -18 -26.5t-20 -29t-18.5 -25t-22 -27t-21.5 -21.5q-107 -94 -309 -94q-230 0 -334 155q-51 77 -51 164zM240 301q0 -79 61.5 -124.5t144.5 -45.5q92 1 169 58.5t114 148.5q21 60 33 162q-2 0 -26 1t-56 2t-70 1t-79.5 -2.5t-73.5 -7.5q-18 -3 -33.5 -6t-52.5 -17.5 t-63 -33.5t-47 -55t-21 -81zM938 637l539 2q-8 49 -15 76.5t-20.5 63.5t-36 62.5t-55.5 47.5q-59 41 -133 41q-38 0 -89.5 -18.5t-97.5 -65.5q-37 -40 -56.5 -88t-35.5 -121z" />
<glyph unicode="&#xe7;" horiz-adv-x="894" d="M55 532q0 137 47 248q63 143 200 223t298 80q41 0 79.5 -6t61 -12t76.5 -23l-10 -172q-2 1 -15.5 8t-19 9t-19 8t-24 8.5t-25.5 5.5t-31.5 4.5t-35.5 1.5q-100 0 -170 -30q-101 -43 -155 -137t-54 -207q0 -53 12 -107q48 -202 211 -260q63 -22 135 -22q17 0 33 1.5 t29.5 3.5t28 5.5t25 6.5t23.5 8t20 7.5t19 8.5t16.5 8t15 7.5t12.5 6.5l14 -176q-94 -34 -137 -43.5t-103 -11.5l-131 -166q40 4 66 4q73 0 123.5 -40t50.5 -110q0 -33 -18.5 -73t-65.5 -70q-67 -41 -158 -41q-82 0 -213 49l41 78q87 -35 146 -35q28 0 46 6.5t42 24.5 q20 28 20 53q0 28 -22 55q-37 25 -80 25q-53 0 -78 -10l-31 37l172 217q-84 7 -137 28q-108 38 -184 118.5t-111 181.5t-35 216z" />
<glyph unicode="&#xe8;" horiz-adv-x="1067" d="M49 541q0 220 137 374q68 79 162 121q85 39 203 39q66 0 133 -16q147 -40 227 -162q55 -79 74 -166q20 -90 25 -254h-764q0 -1 4 -17.5l8 -33t10.5 -38.5t15 -44t17.5 -39q44 -77 128.5 -119.5t180.5 -42.5q55 0 113 15t96.5 31.5t104.5 48.5v-185q-131 -42 -200 -56.5 t-142 -14.5q-206 0 -340 114q-91 74 -142 196t-51 249zM193 1454h262l170 -272h-154zM246 627h565q-8 52 -15 81t-21.5 67t-38.5 65t-60 49q-65 39 -135 39q-56 0 -109 -25t-92 -67q-34 -39 -54.5 -88.5t-39.5 -120.5z" />
<glyph unicode="&#xe9;" horiz-adv-x="1067" d="M49 541q0 220 137 374q68 79 162 121q85 39 203 39q66 0 133 -16q147 -40 227 -162q55 -79 74 -166q20 -90 25 -254h-764q0 -1 4 -17.5l8 -33t10.5 -38.5t15 -44t17.5 -39q44 -77 128.5 -119.5t180.5 -42.5q55 0 113 15t96.5 31.5t104.5 48.5v-185q-131 -42 -200 -56.5 t-142 -14.5q-206 0 -340 114q-91 74 -142 196t-51 249zM246 627h565q-8 52 -15 81t-21.5 67t-38.5 65t-60 49q-65 39 -135 39q-56 0 -109 -25t-92 -67q-34 -39 -54.5 -88.5t-39.5 -120.5zM436 1182l170 274h254l-278 -274h-146z" />
<glyph unicode="&#xea;" horiz-adv-x="1067" d="M49 541q0 220 137 374q68 79 162 121q85 39 203 39q66 0 133 -16q147 -40 227 -162q55 -79 74 -166q20 -90 25 -254h-764q0 -1 4 -17.5l8 -33t10.5 -38.5t15 -44t17.5 -39q44 -77 128.5 -119.5t180.5 -42.5q55 0 113 15t96.5 31.5t104.5 48.5v-185q-131 -42 -200 -56.5 t-142 -14.5q-206 0 -340 114q-91 74 -142 196t-51 249zM229 1190l228 270h196l203 -268h-174l-131 176l-152 -178h-170zM246 627h565q-8 52 -15 81t-21.5 67t-38.5 65t-60 49q-65 39 -135 39q-56 0 -109 -25t-92 -67q-34 -39 -54.5 -88.5t-39.5 -120.5z" />
<glyph unicode="&#xeb;" horiz-adv-x="1067" d="M49 541q0 220 137 374q68 79 162 121q85 39 203 39q66 0 133 -16q147 -40 227 -162q55 -79 74 -166q20 -90 25 -254h-764q0 -1 4 -17.5l8 -33t10.5 -38.5t15 -44t17.5 -39q44 -77 128.5 -119.5t180.5 -42.5q55 0 113 15t96.5 31.5t104.5 48.5v-185q-131 -42 -200 -56.5 t-142 -14.5q-206 0 -340 114q-91 74 -142 196t-51 249zM246 627h565q-8 52 -15 81t-21.5 67t-38.5 65t-60 49q-65 39 -135 39q-56 0 -109 -25t-92 -67q-34 -39 -54.5 -88.5t-39.5 -120.5zM246 1229v192h190v-192h-190zM645 1229v192h182v-192h-182z" />
<glyph unicode="&#xec;" horiz-adv-x="425" d="M-127 1454h262l170 -272h-153zM113 2v1059h194v-1059h-194z" />
<glyph unicode="&#xed;" horiz-adv-x="425" d="M113 2v1059h194v-1059h-194zM117 1182l170 274h254l-281 -274h-143z" />
<glyph unicode="&#xee;" horiz-adv-x="425" d="M-111 1190l228 270h194l203 -268h-174l-131 176l-152 -178h-168zM113 2v1059h194v-1059h-194z" />
<glyph unicode="&#xef;" horiz-adv-x="425" d="M-84 1229v192h190v-192h-190zM113 2v1059h194v-1059h-194zM313 1229v192h185v-192h-185z" />
<glyph unicode="&#xf1;" horiz-adv-x="1150" d="M111 4v1057h184v-152q3 3 15.5 18t29 31.5t33.5 30.5q56 44 131.5 68t150.5 24q194 0 308 -166q32 -50 47.5 -111.5t17.5 -102.5t2 -123v-576h-192l-7 682q0 1 -2.5 15.5t-4 23t-6.5 26t-10 30t-14 29.5t-19.5 30t-26 26t-33.5 23q-50 28 -113 28q-46 -1 -87.5 -16 t-70 -39t-45 -42t-28.5 -36q-39 -57 -50.5 -120t-13.5 -156v-502h-196zM213 1223q19 61 33 92q20 44 67.5 83.5t122.5 39.5q60 0 135 -33q4 -2 20.5 -10t22 -10t20 -8.5t22.5 -9t20 -6t23 -4.5t22 -1q47 0 71 20.5t52 67.5l92 -2q-1 -1 -6.5 -19t-13.5 -38.5t-17 -36.5 q-11 -25 -29.5 -49.5t-60 -49t-92.5 -24.5t-123 28q-9 4 -31.5 15t-34.5 16t-31 12t-35.5 10t-33.5 3q-46 0 -72 -20.5t-57 -67.5z" />
<glyph unicode="&#xf2;" horiz-adv-x="1193" d="M51 528q0 32 5.5 72t19.5 96.5t47.5 117t81.5 108.5q73 74 176 114.5t213 40.5q108 0 205 -37q84 -32 147 -86.5t96 -109t53.5 -119.5t25.5 -108.5t5 -84.5q0 -126 -47 -235q-28 -69 -70.5 -123t-90.5 -87t-96 -56t-97.5 -33t-83.5 -14t-66 -4q-33 0 -68.5 4t-90 16.5 t-112 43.5t-103.5 77q-49 49 -82 110.5t-46.5 122t-17.5 99t-4 75.5zM256 1454h262l172 -272h-153zM258 541q-8 -248 162 -355q74 -47 164 -47q84 0 157 43q60 34 100 87.5t55.5 111.5t20.5 94.5t5 69.5q0 232 -166 332q-84 47 -160 47q-44 0 -104 -21q-37 -14 -72 -38.5 t-72.5 -66t-61.5 -108.5t-28 -149z" />
<glyph unicode="&#xf3;" horiz-adv-x="1193" d="M51 528q0 32 5.5 72t19.5 96.5t47.5 117t81.5 108.5q73 74 176 114.5t213 40.5q108 0 205 -37q84 -32 147 -86.5t96 -109t53.5 -119.5t25.5 -108.5t5 -84.5q0 -126 -47 -235q-28 -69 -70.5 -123t-90.5 -87t-96 -56t-97.5 -33t-83.5 -14t-66 -4q-33 0 -68.5 4t-90 16.5 t-112 43.5t-103.5 77q-49 49 -82 110.5t-46.5 122t-17.5 99t-4 75.5zM258 541q-8 -248 162 -355q74 -47 164 -47q84 0 157 43q60 34 100 87.5t55.5 111.5t20.5 94.5t5 69.5q0 232 -166 332q-84 47 -160 47q-44 0 -104 -21q-37 -14 -72 -38.5t-72.5 -66t-61.5 -108.5 t-28 -149zM500 1182l172 274h252l-279 -274h-145z" />
<glyph unicode="&#xf4;" horiz-adv-x="1193" d="M51 528q0 32 5.5 72t19.5 96.5t47.5 117t81.5 108.5q73 74 176 114.5t213 40.5q108 0 205 -37q84 -32 147 -86.5t96 -109t53.5 -119.5t25.5 -108.5t5 -84.5q0 -126 -47 -235q-28 -69 -70.5 -123t-90.5 -87t-96 -56t-97.5 -33t-83.5 -14t-66 -4q-33 0 -68.5 4t-90 16.5 t-112 43.5t-103.5 77q-49 49 -82 110.5t-46.5 122t-17.5 99t-4 75.5zM258 541q-8 -248 162 -355q74 -47 164 -47q84 0 157 43q60 34 100 87.5t55.5 111.5t20.5 94.5t5 69.5q0 232 -166 332q-84 47 -160 47q-44 0 -104 -21q-37 -14 -72 -38.5t-72.5 -66t-61.5 -108.5 t-28 -149zM272 1190l228 270h194l205 -268h-176l-129 176l-152 -178h-170z" />
<glyph unicode="&#xf5;" horiz-adv-x="1193" d="M51 528q0 32 5.5 72t19.5 96.5t47.5 117t81.5 108.5q73 74 176 114.5t213 40.5q108 0 205 -37q84 -32 147 -86.5t96 -109t53.5 -119.5t25.5 -108.5t5 -84.5q0 -126 -47 -235q-28 -69 -70.5 -123t-90.5 -87t-96 -56t-97.5 -33t-83.5 -14t-66 -4q-33 0 -68.5 4t-90 16.5 t-112 43.5t-103.5 77q-49 49 -82 110.5t-46.5 122t-17.5 99t-4 75.5zM236 1223q16 61 30 92q10 19 23 36.5t36 39t57.5 34.5t74.5 13q60 0 137 -33l17 -8.5t19 -9t17 -7.5t19 -8t17.5 -6t20 -5.5t19 -3t20.5 -1.5q45 0 69 20t54 68l90 -2q-1 -2 -6 -19t-12.5 -38t-15.5 -37 q-9 -18 -21.5 -35.5t-34.5 -39t-55 -35t-72 -13.5q-55 0 -123 28q-9 4 -32 15t-34.5 16t-31 12t-36 10t-33.5 3q-32 0 -56.5 -12.5t-37.5 -27.5t-36 -48zM258 541q-8 -248 162 -355q74 -47 164 -47q84 0 157 43q60 34 100 87.5t55.5 111.5t20.5 94.5t5 69.5q0 232 -166 332 q-84 47 -160 47q-44 0 -104 -21q-37 -14 -72 -38.5t-72.5 -66t-61.5 -108.5t-28 -149z" />
<glyph unicode="&#xf6;" horiz-adv-x="1193" d="M57 522q2 128 52 242q34 80 87.5 140t105.5 92t113 51.5t101.5 24.5t79.5 5q135 0 256 -59q72 -36 126 -89.5t81.5 -105t44 -112t20.5 -99t4 -77.5q0 -135 -49 -246q-34 -79 -88.5 -138.5t-109 -90.5t-117.5 -50t-103.5 -23.5t-78.5 -4.5q-209 0 -346 116 q-58 48 -97.5 111.5t-55 127t-21 105t-5.5 80.5zM266 541q-2 -30 1 -67t16 -93.5t51 -110t96 -88.5q74 -45 160 -45q77 0 155 43q93 54 137 150.5t44 216.5q0 82 -22 148.5t-55.5 107.5t-77 69t-84.5 39t-79 11q-82 0 -164 -48q-45 -27 -79.5 -66t-52 -74.5t-28.5 -77 t-14 -66t-4 -49.5zM309 1219v192h187v-192h-187zM698 1221v194h183v-194h-183z" />
<glyph unicode="&#xf7;" d="M0 514v162h1366v-162h-1366zM569 297q0 49 33.5 83t83.5 34q49 0 82 -33.5t33 -83.5q0 -49 -33.5 -82t-83.5 -31q-47 0 -81 33t-34 80zM569 891q0 49 33.5 83t83.5 34q49 -1 82 -35t33 -84q0 -46 -34 -79.5t-81 -33.5q-50 2 -83.5 34t-33.5 81z" />
<glyph unicode="&#xf8;" horiz-adv-x="1193" d="M53 514q2 249 153 405t394 156q61 0 109.5 -7.5t92 -26t59 -27t57.5 -33.5l110 129l62 -47l-109 -135q52 -60 82 -109q70 -118 70 -284q0 -143 -62 -275q-35 -73 -90 -128t-108 -83.5t-114.5 -46t-101 -21.5t-75.5 -4q-91 0 -156 20.5t-164 70.5l-108 -119l-62 47 l107 129q-2 3 -17 22t-19.5 25.5t-19 27t-20 31.5t-17.5 33.5t-17.5 40t-14 43t-12 50t-6.5 54.5t-3 62zM246 514q0 -62 15 -115t26.5 -72.5t38.5 -60.5l479 580q-39 34 -51 41q-57 39 -164 39q-126 0 -209 -78q-44 -39 -73.5 -90t-41.5 -101.5t-16 -82.5t-4 -60zM375 213 q63 -43 111.5 -63.5t107.5 -20.5q56 0 139 33q55 27 95.5 68.5t61 81.5t33 86.5t15 74.5t2.5 55q0 62 -15.5 120t-27 81.5t-33.5 61.5z" />
<glyph unicode="&#xf9;" horiz-adv-x="1150" d="M106 412v645h197v-682q6 -55 23 -96q17 -42 45.5 -70.5t60.5 -40.5t55.5 -16.5t44.5 -4.5q124 0 207 103q40 49 56.5 102t27.5 135l8 572h195v-1057h-176l-8 158q-1 -1 -14 -16t-30 -33t-32 -31q-123 -98 -279 -98q-174 7 -280 120q-57 61 -75.5 129t-25.5 181zM236 1454 h262l170 -272h-154z" />
<glyph unicode="&#xfa;" horiz-adv-x="1150" d="M106 412v645h197v-682q6 -55 23 -96q17 -42 45.5 -70.5t60.5 -40.5t55.5 -16.5t44.5 -4.5q124 0 207 103q40 49 56.5 102t27.5 135l8 572h195v-1057h-176l-8 158q-1 -1 -14 -16t-30 -33t-32 -31q-123 -98 -279 -98q-174 7 -280 120q-57 61 -75.5 129t-25.5 181zM479 1182 l170 274h254l-278 -274h-146z" />
<glyph unicode="&#xfb;" horiz-adv-x="1150" d="M106 412v645h197v-682q6 -55 23 -96q17 -42 45.5 -70.5t60.5 -40.5t55.5 -16.5t44.5 -4.5q124 0 207 103q40 49 56.5 102t27.5 135l8 572h195v-1057h-176l-8 158q-1 -1 -14 -16t-30 -33t-32 -31q-123 -98 -279 -98q-174 7 -280 120q-57 61 -75.5 129t-25.5 181zM252 1190 l227 270h195l203 -268h-175l-131 176l-151 -178h-168z" />
<glyph unicode="&#xfc;" horiz-adv-x="1150" d="M115 446v609h196v-682q7 -60 23 -97q51 -131 203 -131q134 0 223 125q39 54 53 110t21 144v535h196v-1055h-174l-6 156q-26 -26 -80 -76q-25 -21 -45.5 -35t-54.5 -30.5t-79.5 -24.5t-101.5 -8q-70 0 -127 18q-72 25 -131.5 83t-85.5 130q-13 35 -19.5 78t-8 69t-2.5 82z M291 1229v188h186v-188h-186zM686 1229v192h180v-192h-180z" />
<glyph unicode="&#xff;" horiz-adv-x="980" d="M-6 1061l209 -2q29 -86 121 -354q16 -44 46.5 -124t35.5 -94q34 -87 50 -145t36 -158q64 214 129 406q41 123 167 473l197 -2q-199 -546 -223 -610q-123 -338 -135 -371q-47 -136 -66.5 -183t-81.5 -165q-38 -57 -61 -80q-90 -90 -236 -90q-55 0 -127 16l13 154 q1 0 18 -4t35.5 -6.5t36.5 -2.5q81 0 141 60q23 22 43 57.5t28.5 58t26.5 72.5zM215 1229v192h188v-192h-188zM612 1229v192h185v-192h-185z" />
<glyph unicode="&#x152;" horiz-adv-x="1878" d="M76 725q0 239 128.5 414.5t354.5 244.5q71 23 142.5 33.5t201.5 14.5h879v-179h-594v-415h549v-176h-549v-480h602v-178h-942q-41 2 -119 10q-220 25 -381 144q-71 54 -124 122t-80.5 127t-43.5 125.5t-20 108.5t-4 84zM295 731q0 -262 166 -409q109 -98 254 -125 q58 -12 107.5 -14.5t158.5 3.5l-2 1071h-135q-214 -8 -350 -102q-199 -135 -199 -424z" />
<glyph unicode="&#x153;" horiz-adv-x="1878" d="M59 528q0 216 119 361q23 28 55 56t82.5 60t121.5 52t149 20q68 0 145 -18q57 -16 105.5 -47t76.5 -60t78 -88q51 90 99 127q117 94 280 94q36 0 73.5 -6.5t91 -24t107.5 -59.5t97 -104q32 -46 51 -92.5t26.5 -104.5t9 -96.5t1.5 -112.5h-740q0 -1 4.5 -22.5t9.5 -41 t14 -46.5t20 -47q43 -85 126 -130.5t181 -45.5q74 0 134.5 21.5t147.5 66.5l9 -191q-73 -23 -112 -34t-97 -20t-117 -9q-22 0 -49 2t-78.5 10t-103 29t-89.5 53q-15 12 -31 30.5t-23 27.5t-27.5 38t-22.5 33q-25 -48 -49 -78q-48 -57 -135 -101t-213 -44q-106 0 -204.5 35 t-168.5 102q-76 71 -115 179t-39 226zM265 519q-2 -28 5.5 -69t19.5 -81.5t41.5 -85t71.5 -78.5q78 -66 172 -66q70 0 148 39q48 27 84 69.5t54 82t28.5 85.5t13 72.5t2.5 49.5q0 71 -22 145q-35 106 -114.5 175t-182.5 69q-59 -2 -127 -29q-59 -26 -100.5 -74t-59.5 -101.5 t-25 -89t-8 -65.5q1 -20 -1 -48zM1085 631h539q-15 97 -40 157t-87 101q-59 41 -133 41q-61 0 -133 -43q-65 -43 -94 -101t-52 -155z" />
<glyph unicode="&#x178;" horiz-adv-x="1323" d="M-12 1442h256l420 -637l421 637h242l-567 -830v-612h-203v612zM330 1612v203h190v-203h-190zM784 1614v201h193v-201h-193z" />
<glyph unicode="&#x2c6;" horiz-adv-x="555" d="M-219 1190l227 270h197l203 -268h-175l-131 176l-151 -178h-170z" />
<glyph unicode="&#x2dc;" horiz-adv-x="555" d="M-256 1223q19 61 33 92q20 44 67.5 83.5t122.5 39.5q58 0 135 -33q4 -2 20.5 -10t22 -10t20 -8.5t22.5 -9t20 -6t23 -4.5t22 -1q47 0 71 20.5t52 67.5l92 -2q-1 -1 -6.5 -19t-13.5 -38.5t-17 -36.5q-11 -25 -29.5 -49.5t-60 -49t-92.5 -24.5q-55 0 -123 28q-9 4 -31.5 15 t-34.5 16t-31 12t-35.5 10t-33.5 3q-46 0 -72 -20.5t-57 -67.5z" />
<glyph unicode="&#x2000;" horiz-adv-x="957" />
<glyph unicode="&#x2001;" horiz-adv-x="1915" />
<glyph unicode="&#x2002;" horiz-adv-x="957" />
<glyph unicode="&#x2003;" horiz-adv-x="1915" />
<glyph unicode="&#x2004;" horiz-adv-x="638" />
<glyph unicode="&#x2005;" horiz-adv-x="478" />
<glyph unicode="&#x2006;" horiz-adv-x="319" />
<glyph unicode="&#x2007;" horiz-adv-x="319" />
<glyph unicode="&#x2008;" horiz-adv-x="239" />
<glyph unicode="&#x2009;" horiz-adv-x="383" />
<glyph unicode="&#x200a;" horiz-adv-x="106" />
<glyph unicode="&#x2010;" horiz-adv-x="641" d="M47 461v151h528v-151h-528z" />
<glyph unicode="&#x2011;" horiz-adv-x="641" d="M47 461v151h528v-151h-528z" />
<glyph unicode="&#x2012;" horiz-adv-x="641" d="M47 461v151h528v-151h-528z" />
<glyph unicode="&#x2013;" horiz-adv-x="1110" d="M59 459v155h988v-155h-988z" />
<glyph unicode="&#x2014;" d="M0 518v162h1366v-162h-1366z" />
<glyph unicode="&#x2018;" horiz-adv-x="382" d="M35 934l178 508h184l-131 -508h-231z" />
<glyph unicode="&#x2019;" horiz-adv-x="382" d="M6 934l133 506h230l-181 -506h-182z" />
<glyph unicode="&#x201a;" horiz-adv-x="382" d="M-29 -272l131 512h234l-182 -512h-183z" />
<glyph unicode="&#x201c;" horiz-adv-x="768" d="M43 940l182 494h185l-138 -494h-229zM424 942l182 494h174l-129 -494h-227z" />
<glyph unicode="&#x201d;" horiz-adv-x="768" d="M-12 938l137 496h227l-186 -496h-178zM367 940l133 494h225l-176 -494h-182z" />
<glyph unicode="&#x201e;" horiz-adv-x="768" d="M-18 -270l133 497h223l-178 -497h-178zM358 -270l134 497h227l-187 -497h-174z" />
<glyph unicode="&#x2022;" horiz-adv-x="681" d="M74 723q0 48 20 98q32 78 100 123t152 45q112 0 186 -76.5t76 -189.5q0 -58 -22 -113q-8 -18 -19 -35t-32 -39.5t-45.5 -39t-62.5 -28t-81 -11.5q-112 0 -192 76t-80 190z" />
<glyph unicode="&#x2026;" horiz-adv-x="2048" d="M225 104q0 22 8 43q14 32 44 52t67 20q47 0 80 -34t33 -81q0 -48 -33 -82t-82 -34q-50 0 -83.5 33.5t-33.5 82.5zM909 104q0 26 9 46q13 32 43 50.5t65 18.5q47 0 81 -34t34 -81q0 -48 -33.5 -82t-83.5 -34q-48 0 -81.5 33.5t-33.5 82.5zM1591 104q0 47 35 81t82 34 q49 0 82 -33.5t33 -81.5t-33 -82t-82 -34q-50 0 -83.5 33.5t-33.5 82.5z" />
<glyph unicode="&#x202f;" horiz-adv-x="383" />
<glyph unicode="&#x205f;" horiz-adv-x="478" />
<glyph unicode="&#x2122;" horiz-adv-x="1406" d="M33 1346v100h553v-100h-213v-580h-121v580h-219zM643 766v680h162l170 -537l166 537h162v-680h-117l4 422q0 70 6 137q-9 -34 -35 -115l-137 -444h-104l-140 446q-6 18 -17.5 55t-17.5 56q9 -67 9 -135l6 -422h-117z" />
<glyph unicode="&#x25fc;" horiz-adv-x="1054" d="M0 0v1055h1055v-1055h-1055z" />
<glyph unicode="&#xfb01;" horiz-adv-x="1150" d="M-2 907v150h246q0 117 6 176q6 73 23 127t43 87.5t53 53t63 33.5q67 27 160 27q32 0 133 -9l-12 -166q-63 13 -92 13q-45 0 -89 -19q-62 -30 -80 -100.5t-16 -222.5h279v-150h-277v-903h-192v903h-248zM825 1311v209h211v-209h-211zM838 2v1059h192v-1059h-192z" />
<glyph unicode="&#xfb02;" horiz-adv-x="1150" d="M-2 907v150h246q0 117 6 176q6 73 23 127t43 87.5t53 53t63 33.5q67 27 160 27q32 0 133 -9l-12 -166q-63 13 -92 13q-45 0 -89 -19q-62 -30 -80 -100.5t-16 -222.5h279v-150h-277v-903h-192v903h-248zM838 4v1546h194v-1546h-194z" />
</font>
</defs>
</svg>
